<svg width="1440" height="1180" viewBox="0 0 1440 1180" fill="none" xmlns="http://www.w3.org/2000/svg">
<g clip-path="url(#clip0_936_2155)">
<mask id="mask0_936_2155" style="mask-type:luminance" maskUnits="userSpaceOnUse" x="0" y="0" width="1440" height="1180">
<path d="M1440 0H0V1180H1440V0Z" fill="white"/>
</mask>
<g mask="url(#mask0_936_2155)">
<path d="M1440 0H0V1180H1440V0Z" fill="#00080A"/>
<path d="M99.9398 163H88.2998L95.7998 120.28H129.04L127.36 129.76H105.76L104.56 136.78H124.24L122.62 145.66H102.94L99.9398 163ZM166.615 130.54C166.615 138.28 163.375 141.16 157.015 143.08C160.915 143.86 162.715 146.38 162.715 149.92C162.715 150.64 162.655 151.36 162.535 152.14L161.395 158.68C161.215 159.7 161.155 160.72 161.155 161.5C161.155 162.1 161.155 162.58 161.275 163H149.995C149.755 162.28 149.575 161.44 149.575 160.42C149.575 159.88 149.635 159.34 149.755 158.68L150.835 152.62C150.955 151.84 151.075 151.18 151.075 150.58C151.075 147.94 149.575 147.04 146.395 147.04H139.555L136.795 163H125.155L132.655 120.28H152.755C161.935 120.28 166.615 125.08 166.615 130.54ZM154.855 132.46C154.855 129.88 152.935 128.92 148.555 128.92H142.795L141.115 138.4H148.555C153.115 138.4 154.855 136.36 154.855 132.46ZM187.174 163.6C175.294 163.6 167.674 156.76 167.674 146.2C167.674 130.6 177.454 119.68 193.294 119.68C205.054 119.68 212.794 126.52 212.794 137.08C212.794 152.68 203.614 163.6 187.174 163.6ZM188.014 154.12C196.294 154.12 201.154 146.74 201.154 138.04C201.154 132.46 197.434 129.16 192.454 129.16C184.174 129.16 179.314 136.54 179.314 145.24C179.314 150.82 183.034 154.12 188.014 154.12ZM262.308 163H251.268L256.968 130.6L242.508 163H232.788L229.728 130.6L224.028 163H212.988L220.488 120.28H238.428L240.348 145.12L251.028 120.28H269.808L262.308 163ZM294.94 163H283.3L290.8 120.28H302.44L294.94 163ZM345.277 137.08C345.277 153.04 336.817 163 319.777 163H300.937L308.437 120.28H325.657C338.017 120.28 345.277 126.16 345.277 137.08ZM333.637 138.04C333.637 132.46 330.217 129.4 325.477 129.4H318.457L314.137 153.88H321.157C329.197 153.88 333.637 146.74 333.637 138.04ZM378.708 163H345.468L352.968 120.28H386.208L384.528 129.76H362.928L361.728 136.78H381.408L379.788 145.66H360.108L358.728 153.52H380.328L378.708 163ZM424.544 163H413.264L412.304 156.34H395.924L392.624 163H380.144L402.644 120.28H417.044L424.544 163ZM411.044 147.46L408.644 130.6L400.304 147.46H411.044ZM444.732 163.6C433.392 163.6 427.512 159.04 427.512 150.82C427.512 150.16 427.572 149.5 427.632 148.84H438.912C438.912 153.22 441.792 154.96 446.112 154.96C450.792 154.96 453.672 152.8 453.672 150.22C453.672 148 451.992 146.86 446.952 146.14L442.692 145.54C435.312 144.52 431.472 140.98 431.472 134.62C431.472 125.2 438.852 119.68 450.852 119.68C461.172 119.68 467.052 124.78 467.052 132.28C467.052 132.76 467.052 133.3 466.992 133.84H456.072C456.072 130.6 453.732 128.32 449.472 128.32C445.632 128.32 443.112 130.12 443.112 132.82C443.112 134.92 444.132 135.82 448.632 136.42L452.892 137.02C460.392 138.1 465.312 142 465.312 148.66C465.312 157.9 458.472 163.6 444.732 163.6ZM503.707 163H492.067L497.887 129.76H485.587L487.267 120.28H523.507L521.827 129.76H509.527L503.707 163ZM539.674 163.6C527.794 163.6 520.174 156.76 520.174 146.2C520.174 130.6 529.954 119.68 545.794 119.68C557.554 119.68 565.294 126.52 565.294 137.08C565.294 152.68 556.114 163.6 539.674 163.6ZM540.514 154.12C548.794 154.12 553.654 146.74 553.654 138.04C553.654 132.46 549.934 129.16 544.954 129.16C536.674 129.16 531.814 136.54 531.814 145.24C531.814 150.82 535.534 154.12 540.514 154.12ZM598.248 163.6C586.908 163.6 581.028 159.04 581.028 150.82C581.028 150.16 581.088 149.5 581.148 148.84H592.428C592.428 153.22 595.308 154.96 599.628 154.96C604.308 154.96 607.188 152.8 607.188 150.22C607.188 148 605.508 146.86 600.468 146.14L596.208 145.54C588.828 144.52 584.988 140.98 584.988 134.62C584.988 125.2 592.368 119.68 604.368 119.68C614.688 119.68 620.568 124.78 620.568 132.28C620.568 132.76 620.568 133.3 620.508 133.84H609.588C609.588 130.6 607.248 128.32 602.988 128.32C599.148 128.32 596.628 130.12 596.628 132.82C596.628 134.92 597.648 135.82 602.148 136.42L606.408 137.02C613.908 138.1 618.828 142 618.828 148.66C618.828 157.9 611.988 163.6 598.248 163.6ZM641.803 163.6C629.923 163.6 622.303 156.76 622.303 146.2C622.303 130.6 632.083 119.68 647.923 119.68C659.683 119.68 667.423 126.52 667.423 137.08C667.423 152.68 658.243 163.6 641.803 163.6ZM642.643 154.12C650.923 154.12 655.783 146.74 655.783 138.04C655.783 132.46 652.063 129.16 647.083 129.16C638.803 129.16 633.943 136.54 633.943 145.24C633.943 150.82 637.663 154.12 642.643 154.12ZM698.336 163H667.616L675.116 120.28H686.756L680.876 153.52H699.956L698.336 163ZM721.215 163.6C710.115 163.6 703.695 159.1 703.695 150.4C703.695 149.26 703.815 148.06 704.055 146.8L708.735 120.28H720.375L715.935 145.6C715.755 146.5 715.695 147.34 715.695 148.12C715.695 152.2 717.975 154.12 722.055 154.12C726.795 154.12 730.155 152.08 731.295 145.6L735.735 120.28H747.375L742.695 146.8C740.415 159.64 733.635 163.6 721.215 163.6ZM766.793 163H755.153L760.973 129.76H748.673L750.353 120.28H786.593L784.913 129.76H772.613L766.793 163ZM794.335 163H782.695L790.195 120.28H801.835L794.335 163ZM821.451 163.6C809.571 163.6 801.951 156.76 801.951 146.2C801.951 130.6 811.731 119.68 827.571 119.68C839.331 119.68 847.071 126.52 847.071 137.08C847.071 152.68 837.891 163.6 821.451 163.6ZM822.291 154.12C830.571 154.12 835.431 146.74 835.431 138.04C835.431 132.46 831.711 129.16 826.731 129.16C818.451 129.16 813.591 136.54 813.591 145.24C813.591 150.82 817.311 154.12 822.291 154.12ZM885.905 163H873.665L862.985 136.36L858.305 163H847.265L854.765 120.28H867.005L877.685 146.92L882.365 120.28H893.405L885.905 163ZM909.673 163.6C898.333 163.6 892.453 159.04 892.453 150.82C892.453 150.16 892.513 149.5 892.573 148.84H903.853C903.853 153.22 906.733 154.96 911.053 154.96C915.733 154.96 918.613 152.8 918.613 150.22C918.613 148 916.933 146.86 911.893 146.14L907.633 145.54C900.253 144.52 896.413 140.98 896.413 134.62C896.413 125.2 903.793 119.68 915.793 119.68C926.113 119.68 931.993 124.78 931.993 132.28C931.993 132.76 931.993 133.3 931.933 133.84H921.013C921.013 130.6 918.673 128.32 914.413 128.32C910.573 128.32 908.053 130.12 908.053 132.82C908.053 134.92 909.073 135.82 913.573 136.42L917.833 137.02C925.333 138.1 930.253 142 930.253 148.66C930.253 157.9 923.413 163.6 909.673 163.6Z" fill="white"/>
<path d="M702 219H1185.66" stroke="white" stroke-width="1.6625" stroke-linecap="round" stroke-linejoin="round"/>
<path d="M1195.55 218.652H1230.56" stroke="white" stroke-width="2.14707" stroke-linecap="round" stroke-linejoin="round"/>
<path d="M1213.06 236.151V201.152" stroke="white" stroke-width="2.14707" stroke-linecap="round" stroke-linejoin="round"/>
<path d="M1201.81 232.061L1224.31 205.25" stroke="white" stroke-width="2.14707" stroke-linecap="round" stroke-linejoin="round"/>
<path d="M1226.47 229.903L1199.65 207.406" stroke="white" stroke-width="2.14707" stroke-linecap="round" stroke-linejoin="round"/>
<path d="M545.925 224.249C540.975 224.249 537.8 221.399 537.8 216.999C537.8 210.499 541.875 205.949 548.475 205.949C553.375 205.949 556.6 208.799 556.6 213.199C556.6 219.699 552.775 224.249 545.925 224.249ZM546.275 220.299C549.725 220.299 551.75 217.224 551.75 213.599C551.75 211.274 550.2 209.899 548.125 209.899C544.675 209.899 542.65 212.974 542.65 216.599C542.65 218.924 544.2 220.299 546.275 220.299ZM561.131 224.249C558.581 224.249 557.081 222.924 557.081 220.649C557.081 220.324 557.131 219.974 557.181 219.624L558.681 211.099H563.281L561.956 218.674C561.931 218.874 561.906 219.074 561.906 219.249C561.906 220.074 562.281 220.549 563.031 220.549C564.281 220.549 565.106 219.649 565.381 218.024L566.581 211.099H571.181L568.931 223.999H564.581L564.856 222.374C563.956 223.599 562.706 224.249 561.131 224.249ZM575.533 223.999H570.933L573.183 211.099H577.533L577.083 213.624C577.908 211.649 579.058 210.899 580.683 210.899C581.033 210.899 581.908 210.999 582.083 211.099L581.383 215.099H579.733C577.983 215.099 576.883 216.249 576.533 218.249L575.533 223.999ZM605.008 211.224C605.008 215.699 602.208 218.099 597.433 218.099H593.708L592.683 223.999H587.833L590.958 206.199H598.833C602.658 206.199 605.008 208.199 605.008 211.224ZM600.158 211.649C600.158 210.324 599.258 209.799 597.433 209.799H595.183L594.358 214.499H597.308C599.208 214.499 600.158 213.524 600.158 211.649ZM608.98 223.999H604.38L606.63 211.099H610.98L610.53 213.624C611.355 211.649 612.505 210.899 614.13 210.899C614.48 210.899 615.355 210.999 615.53 211.099L614.83 215.099H613.18C611.43 215.099 610.33 216.249 609.98 218.249L608.98 223.999ZM621.586 220.799C623.336 220.799 624.661 218.724 624.661 216.449C624.661 214.999 623.886 214.299 622.736 214.299C620.986 214.299 619.661 216.374 619.661 218.649C619.661 220.099 620.436 220.799 621.586 220.799ZM621.236 224.249C617.486 224.249 615.061 222.249 615.061 218.949C615.061 213.724 618.486 210.849 623.086 210.849C626.836 210.849 629.261 212.849 629.261 216.149C629.261 221.374 625.836 224.249 621.236 224.249ZM636.226 224.249C632.476 224.249 630.051 222.249 630.051 218.949C630.051 213.724 633.226 210.849 638.076 210.849C642.051 210.849 644.051 212.974 644.051 215.449C644.051 215.749 644.001 216.049 643.951 216.349H639.626C639.626 215.324 639.126 214.299 637.726 214.299C635.726 214.299 634.651 216.374 634.651 218.649C634.651 220.099 635.426 220.799 636.576 220.799C637.526 220.799 638.726 220.299 639.226 218.649H643.551C642.976 221.949 640.776 224.249 636.226 224.249ZM650.582 224.249C646.632 224.249 644.407 222.174 644.407 218.949C644.407 213.724 647.832 210.849 652.282 210.849C655.932 210.849 658.307 212.849 658.307 216.149C658.307 216.974 658.157 217.799 657.907 218.624H648.907C648.882 218.824 648.882 218.999 648.882 219.174C648.882 220.474 649.557 221.199 650.882 221.199C651.932 221.199 652.757 220.749 653.232 219.749H657.507C656.757 222.449 654.532 224.249 650.582 224.249ZM651.982 213.899C650.732 213.899 649.882 214.524 649.407 215.724H653.907C653.832 214.524 653.232 213.899 651.982 213.899ZM664.754 224.249C661.079 224.249 658.754 222.749 658.754 220.399C658.754 220.174 658.754 219.974 658.804 219.749H663.154C663.154 220.849 664.029 221.299 665.229 221.299C666.504 221.299 667.154 220.749 667.154 220.149C667.154 219.749 666.854 219.499 665.779 219.349L664.004 219.099C661.304 218.724 659.979 217.649 659.979 215.324C659.979 212.424 662.879 210.849 666.629 210.849C669.179 210.849 672.254 211.749 672.254 214.549C672.254 214.749 672.229 214.949 672.204 215.149H667.854C667.854 214.174 667.254 213.799 666.154 213.799C665.254 213.799 664.579 214.199 664.579 214.849C664.579 215.249 664.654 215.424 665.479 215.549L667.254 215.799C670.229 216.224 671.754 217.274 671.754 219.799C671.754 222.649 668.804 224.249 664.754 224.249ZM678.695 224.249C675.02 224.249 672.695 222.749 672.695 220.399C672.695 220.174 672.695 219.974 672.745 219.749H677.095C677.095 220.849 677.97 221.299 679.17 221.299C680.445 221.299 681.095 220.749 681.095 220.149C681.095 219.749 680.795 219.499 679.72 219.349L677.945 219.099C675.245 218.724 673.92 217.649 673.92 215.324C673.92 212.424 676.82 210.849 680.57 210.849C683.12 210.849 686.195 211.749 686.195 214.549C686.195 214.749 686.17 214.949 686.145 215.149H681.795C681.795 214.174 681.195 213.799 680.095 213.799C679.195 213.799 678.52 214.199 678.52 214.849C678.52 215.249 678.595 215.424 679.42 215.549L681.195 215.799C684.17 216.224 685.695 217.274 685.695 219.799C685.695 222.649 682.745 224.249 678.695 224.249Z" fill="white"/>
<path d="M52.2502 665.075C52.2502 670.025 49.4002 673.2 45.0002 673.2C38.5002 673.2 33.9502 669.125 33.9502 662.525C33.9502 658.7 35.8502 654.8 40.2502 654.8C40.5002 654.8 40.7752 654.825 41.0502 654.85V659.45C39.2252 659.45 37.9002 660.8 37.9002 662.875C37.9002 666.325 40.9752 668.35 44.6002 668.35C46.9252 668.35 48.3002 666.8 48.3002 664.725C48.3002 662.5 47.0002 660.8 45.0002 660.2V655.55C49.8502 656.15 52.2502 660 52.2502 665.075ZM52.0002 642.68V647.28L44.4252 645.955C44.2252 645.93 44.0252 645.905 43.8502 645.905C43.0252 645.905 42.5502 646.28 42.5502 647.03C42.5502 648.28 43.4502 649.105 45.0752 649.38L52.0002 650.58V655.18L34.2002 652.055V647.455L40.3502 648.53C39.5002 647.805 38.8502 646.705 38.8502 645.13C38.8502 642.58 40.1752 641.08 42.4502 641.08C42.7752 641.08 43.1252 641.13 43.4752 641.18L52.0002 642.68ZM52.2502 636.228C52.2502 639.028 50.8502 640.553 48.6752 640.553C45.8752 640.553 44.6252 638.578 44.3502 635.353L44.1002 632.378C44.0502 631.703 43.7502 631.228 43.2002 631.228C42.4502 631.228 42.0502 631.853 42.0502 632.678C42.0502 633.753 42.5502 634.153 43.3502 634.353V638.953C40.4502 638.678 38.8502 636.653 38.8502 632.278C38.8502 628.928 40.1002 626.653 42.7752 626.653C43.1252 626.653 43.5002 626.678 43.9002 626.753L48.7002 627.603C49.7752 627.803 50.6002 627.903 51.1752 627.903C51.5502 627.903 51.8252 627.853 52.0002 627.778V631.978C51.6752 632.228 51.3002 632.328 50.9502 632.328C50.8752 632.328 50.7752 632.328 50.6252 632.303C51.7502 633.303 52.2502 634.303 52.2502 636.228ZM49.2002 634.578C49.2002 633.178 48.2002 632.103 46.9752 631.903L46.5252 631.828C46.6502 631.928 46.7002 632.353 46.7502 632.853L46.8502 634.103C46.9502 635.328 47.3752 635.953 48.1252 635.953C48.7502 635.953 49.2002 635.503 49.2002 634.578ZM52.0002 621.576V626.176L34.2002 623.051V618.451L52.0002 621.576ZM52.0002 614.984V619.584L34.2002 616.459V611.859L52.0002 614.984ZM52.2502 606.292C52.2502 610.242 50.1752 612.467 46.9502 612.467C41.7252 612.467 38.8502 609.042 38.8502 604.592C38.8502 600.942 40.8502 598.567 44.1502 598.567C44.9752 598.567 45.8002 598.717 46.6252 598.967V607.967C46.8252 607.992 47.0002 607.992 47.1752 607.992C48.4752 607.992 49.2002 607.317 49.2002 605.992C49.2002 604.942 48.7502 604.117 47.7502 603.642V599.367C50.4502 600.117 52.2502 602.342 52.2502 606.292ZM41.9002 604.892C41.9002 606.142 42.5252 606.992 43.7252 607.467V602.967C42.5252 603.042 41.9002 603.642 41.9002 604.892ZM52.0002 585.795V590.395L44.4252 589.07C44.2252 589.045 44.0252 589.02 43.8502 589.02C43.0252 589.02 42.5502 589.395 42.5502 590.145C42.5502 591.395 43.4502 592.22 45.0752 592.495L52.0002 593.695V598.295L39.1002 596.045V591.695L40.7252 591.97C39.5002 591.07 38.8502 589.82 38.8502 588.245C38.8502 585.695 40.1752 584.195 42.4502 584.195C42.7752 584.195 43.1252 584.245 43.4752 584.295L52.0002 585.795ZM51.5002 578.218C51.5002 581.393 49.2502 583.168 46.5752 583.168C42.0502 583.168 38.8502 580.743 38.8502 576.493C38.8502 574.743 39.5502 573.568 40.9502 572.968L39.1002 572.643V568.293L50.7502 570.343C55.5002 571.168 57.1502 573.893 57.1502 578.093C57.1502 581.118 56.1252 583.693 52.9752 583.693C52.7752 583.693 52.5752 583.693 52.3502 583.668V579.468C53.5002 579.468 54.2002 578.918 54.2002 577.568C54.2002 576.243 53.5002 575.393 52.1002 575.168L50.1752 574.843C50.8752 575.493 51.5002 576.643 51.5002 578.218ZM48.3002 576.818C48.3002 575.068 46.1002 573.918 44.0752 573.918C42.8752 573.918 42.0502 574.518 42.0502 575.668C42.0502 577.418 44.2502 578.568 46.2752 578.568C47.4752 578.568 48.3002 577.968 48.3002 576.818ZM52.2502 561.834C52.2502 565.784 50.1752 568.009 46.9502 568.009C41.7252 568.009 38.8502 564.584 38.8502 560.134C38.8502 556.484 40.8502 554.109 44.1502 554.109C44.9752 554.109 45.8002 554.259 46.6252 554.509V563.509C46.8252 563.534 47.0002 563.534 47.1752 563.534C48.4752 563.534 49.2002 562.859 49.2002 561.534C49.2002 560.484 48.7502 559.659 47.7502 559.184V554.909C50.4502 555.659 52.2502 557.884 52.2502 561.834ZM41.9002 560.434C41.9002 561.684 42.5252 562.534 43.7252 563.009V558.509C42.5252 558.584 41.9002 559.184 41.9002 560.434Z" fill="white"/>
<mask id="mask1_936_2155" style="mask-type:luminance" maskUnits="userSpaceOnUse" x="91" y="354" width="518" height="518">
<path d="M332.038 361.677L98.6777 595.037C88.9146 604.8 88.9146 620.629 98.6777 630.393L332.038 863.753C341.801 873.516 357.63 873.516 367.393 863.753L600.753 630.393C610.516 620.629 610.516 604.8 600.753 595.037L367.393 361.677C357.63 351.914 341.801 351.914 332.038 361.677Z" fill="white"/>
</mask>
<g mask="url(#mask1_936_2155)">
<path d="M332.038 361.677L98.6777 595.037C88.9146 604.8 88.9146 620.629 98.6777 630.393L332.038 863.753C341.801 873.516 357.63 873.516 367.393 863.753L600.753 630.393C610.516 620.629 610.516 604.8 600.753 595.037L367.393 361.677C357.63 351.914 341.801 351.914 332.038 361.677Z" fill="black" fill-opacity="0.5"/>
<g filter="url(#filter0_f_936_2155)">
<path d="M621 666.582C621 795.154 524.588 845.6 462.401 845.6C400.213 845.6 349.8 741.372 349.8 612.8C349.8 484.228 400.213 380 462.401 380C524.588 380 621 538.01 621 666.582Z" fill="#009252" fill-opacity="0.3"/>
</g>
<g filter="url(#filter1_f_936_2155)">
<path d="M81 666.582C81 795.154 177.412 845.6 239.599 845.6C301.787 845.6 352.2 741.372 352.2 612.8C352.2 484.228 301.787 380 239.599 380C177.412 380 81 538.01 81 666.582Z" fill="#00829B" fill-opacity="0.3"/>
</g>
<path d="M260.478 588.881C260.478 598.191 255.543 604.001 245.603 604.001H234.613L238.988 579.081H249.033C256.243 579.081 260.478 582.511 260.478 588.881ZM253.688 589.441C253.688 586.186 251.693 584.401 248.928 584.401H244.833L242.313 598.681H246.408C251.098 598.681 253.688 594.516 253.688 589.441ZM269.62 604.351C264.09 604.351 260.975 601.446 260.975 596.931C260.975 589.616 265.77 585.591 272 585.591C277.11 585.591 280.435 588.391 280.435 593.011C280.435 594.166 280.225 595.321 279.875 596.476H267.275C267.24 596.756 267.24 597.001 267.24 597.246C267.24 599.066 268.185 600.081 270.04 600.081C271.51 600.081 272.665 599.451 273.33 598.051H279.315C278.265 601.831 275.15 604.351 269.62 604.351ZM271.58 589.861C269.83 589.861 268.64 590.736 267.975 592.416H274.275C274.17 590.736 273.33 589.861 271.58 589.861ZM289.461 604.351C284.316 604.351 281.061 602.251 281.061 598.961C281.061 598.646 281.061 598.366 281.131 598.051H287.221C287.221 599.591 288.446 600.221 290.126 600.221C291.911 600.221 292.821 599.451 292.821 598.611C292.821 598.051 292.401 597.701 290.896 597.491L288.411 597.141C284.631 596.616 282.776 595.111 282.776 591.856C282.776 587.796 286.836 585.591 292.086 585.591C295.656 585.591 299.961 586.851 299.961 590.771C299.961 591.051 299.926 591.331 299.891 591.611H293.801C293.801 590.246 292.961 589.721 291.421 589.721C290.161 589.721 289.216 590.281 289.216 591.191C289.216 591.751 289.321 591.996 290.476 592.171L292.961 592.521C297.126 593.116 299.261 594.586 299.261 598.121C299.261 602.111 295.131 604.351 289.461 604.351ZM306.773 604.001H300.333L303.483 585.941H309.923L306.773 604.001ZM307.158 584.261C305.128 584.261 303.938 583.071 303.938 581.566C303.938 579.431 305.373 577.891 307.998 577.891C310.028 577.891 311.218 579.081 311.218 580.586C311.218 582.721 309.783 584.261 307.158 584.261ZM317.366 603.301C312.921 603.301 310.436 600.151 310.436 596.406C310.436 590.071 313.831 585.591 319.781 585.591C322.231 585.591 323.876 586.571 324.716 588.531L325.171 585.941H331.261L328.391 602.251C327.236 608.901 323.421 611.211 317.541 611.211C313.306 611.211 309.701 609.776 309.701 605.366C309.701 605.086 309.701 604.806 309.736 604.491H315.616C315.616 606.101 316.386 607.081 318.276 607.081C320.131 607.081 321.321 606.101 321.636 604.141L322.091 601.446C321.181 602.426 319.571 603.301 317.366 603.301ZM319.326 598.821C321.776 598.821 323.386 595.741 323.386 592.906C323.386 591.226 322.546 590.071 320.936 590.071C318.486 590.071 316.876 593.151 316.876 595.986C316.876 597.666 317.716 598.821 319.326 598.821ZM348.424 604.001H341.984L343.839 593.396C343.874 593.116 343.909 592.836 343.909 592.591C343.909 591.436 343.384 590.771 342.334 590.771C340.584 590.771 339.429 592.031 339.044 594.306L337.364 604.001H330.924L334.074 585.941H340.164L339.779 588.216C341.039 586.501 342.789 585.591 344.994 585.591C348.564 585.591 350.664 587.446 350.664 590.631C350.664 591.086 350.594 591.576 350.524 592.066L348.424 604.001ZM357.666 604.001H351.226L354.376 585.941H360.816L357.666 604.001ZM358.051 584.261C356.021 584.261 354.831 583.071 354.831 581.566C354.831 579.431 356.266 577.891 358.891 577.891C360.921 577.891 362.111 579.081 362.111 580.586C362.111 582.721 360.676 584.261 358.051 584.261ZM377.955 604.001H371.515L373.37 593.396C373.405 593.116 373.44 592.836 373.44 592.591C373.44 591.436 372.915 590.771 371.865 590.771C370.115 590.771 368.96 592.031 368.575 594.306L366.895 604.001H360.455L363.605 585.941H369.695L369.31 588.216C370.57 586.501 372.32 585.591 374.525 585.591C378.095 585.591 380.195 587.446 380.195 590.631C380.195 591.086 380.125 591.576 380.055 592.066L377.955 604.001ZM388.563 603.301C384.118 603.301 381.633 600.151 381.633 596.406C381.633 590.071 385.028 585.591 390.978 585.591C393.428 585.591 395.073 586.571 395.913 588.531L396.368 585.941H402.458L399.588 602.251C398.433 608.901 394.618 611.211 388.738 611.211C384.503 611.211 380.898 609.776 380.898 605.366C380.898 605.086 380.898 604.806 380.933 604.491H386.813C386.813 606.101 387.583 607.081 389.473 607.081C391.328 607.081 392.518 606.101 392.833 604.141L393.288 601.446C392.378 602.426 390.768 603.301 388.563 603.301ZM390.523 598.821C392.973 598.821 394.583 595.741 394.583 592.906C394.583 591.226 393.743 590.071 392.133 590.071C389.683 590.071 388.073 593.151 388.073 595.986C388.073 597.666 388.913 598.821 390.523 598.821ZM418.955 604.211C414.965 604.211 413.215 603.126 413.215 600.081C413.215 599.451 413.285 598.751 413.425 597.946L414.755 590.421H412.2L412.97 585.941H415.525L416.505 580.481H422.945L421.965 585.941H425.36L424.59 590.421H421.195L419.83 598.191C419.795 598.366 419.795 598.506 419.795 598.646C419.795 599.381 420.215 599.731 421.09 599.731H422.945L422.21 604.001C421.335 604.071 419.9 604.211 418.955 604.211ZM442.008 604.001H435.568L437.423 593.396C437.458 593.116 437.493 592.836 437.493 592.591C437.493 591.436 436.968 590.771 435.918 590.771C434.168 590.771 433.013 592.031 432.628 594.306L430.948 604.001H424.508L428.883 579.081H435.323L433.818 587.691C434.833 586.501 436.373 585.591 438.578 585.591C442.148 585.591 444.248 587.446 444.248 590.631C444.248 591.086 444.178 591.576 444.108 592.066L442.008 604.001ZM454.19 604.351C448.66 604.351 445.545 601.446 445.545 596.931C445.545 589.616 450.34 585.591 456.57 585.591C461.68 585.591 465.005 588.391 465.005 593.011C465.005 594.166 464.795 595.321 464.445 596.476H451.845C451.81 596.756 451.81 597.001 451.81 597.246C451.81 599.066 452.755 600.081 454.61 600.081C456.08 600.081 457.235 599.451 457.9 598.051H463.885C462.835 601.831 459.72 604.351 454.19 604.351ZM456.15 589.861C454.4 589.861 453.21 590.736 452.545 592.416H458.845C458.74 590.736 457.9 589.861 456.15 589.861ZM260.34 646.001H253.9L257.05 627.941H263.14L262.51 631.476C263.665 628.711 265.275 627.661 267.55 627.661C268.04 627.661 269.265 627.801 269.51 627.941L268.53 633.541H266.22C263.77 633.541 262.23 635.151 261.74 637.951L260.34 646.001ZM274.9 646.001H268.46L271.61 627.941H278.05L274.9 646.001ZM275.285 626.261C273.255 626.261 272.065 625.071 272.065 623.566C272.065 621.431 273.5 619.891 276.125 619.891C278.155 619.891 279.345 621.081 279.345 622.586C279.345 624.721 277.91 626.261 275.285 626.261ZM285.494 645.301C281.049 645.301 278.564 642.151 278.564 638.406C278.564 632.071 281.959 627.591 287.909 627.591C290.359 627.591 292.004 628.571 292.844 630.531L293.299 627.941H299.389L296.519 644.251C295.364 650.901 291.549 653.211 285.669 653.211C281.434 653.211 277.829 651.776 277.829 647.366C277.829 647.086 277.829 646.806 277.864 646.491H283.744C283.744 648.101 284.514 649.081 286.404 649.081C288.259 649.081 289.449 648.101 289.764 646.141L290.219 643.446C289.309 644.426 287.699 645.301 285.494 645.301ZM287.454 640.821C289.904 640.821 291.514 637.741 291.514 634.906C291.514 633.226 290.674 632.071 289.064 632.071C286.614 632.071 285.004 635.151 285.004 637.986C285.004 639.666 285.844 640.821 287.454 640.821ZM316.551 646.001H310.111L311.966 635.396C312.001 635.116 312.036 634.836 312.036 634.591C312.036 633.436 311.511 632.771 310.461 632.771C308.711 632.771 307.556 634.031 307.171 636.306L305.491 646.001H299.051L303.426 621.081H309.866L308.361 629.691C309.376 628.501 310.916 627.591 313.121 627.591C316.691 627.591 318.791 629.446 318.791 632.631C318.791 633.086 318.721 633.576 318.651 634.066L316.551 646.001ZM327.097 646.211C323.107 646.211 321.357 645.126 321.357 642.081C321.357 641.451 321.427 640.751 321.567 639.946L322.897 632.421H320.342L321.112 627.941H323.667L324.647 622.481H331.087L330.107 627.941H333.502L332.732 632.421H329.337L327.972 640.191C327.937 640.366 327.937 640.506 327.937 640.646C327.937 641.381 328.357 641.731 329.232 641.731H331.087L330.352 646.001C329.477 646.071 328.042 646.211 327.097 646.211ZM349.485 646.211C345.495 646.211 343.745 645.126 343.745 642.081C343.745 641.451 343.815 640.751 343.955 639.946L345.285 632.421H342.73L343.5 627.941H346.055L347.035 622.481H353.475L352.495 627.941H355.89L355.12 632.421H351.725L350.36 640.191C350.325 640.366 350.325 640.506 350.325 640.646C350.325 641.381 350.745 641.731 351.62 641.731H353.475L352.74 646.001C351.865 646.071 350.43 646.211 349.485 646.211ZM372.537 646.001H366.097L367.952 635.396C367.987 635.116 368.022 634.836 368.022 634.591C368.022 633.436 367.497 632.771 366.447 632.771C364.697 632.771 363.542 634.031 363.157 636.306L361.477 646.001H355.037L359.412 621.081H365.852L364.347 629.691C365.362 628.501 366.902 627.591 369.107 627.591C372.677 627.591 374.777 629.446 374.777 632.631C374.777 633.086 374.707 633.576 374.637 634.066L372.537 646.001ZM381.78 646.001H375.34L378.49 627.941H384.93L381.78 646.001ZM382.165 626.261C380.135 626.261 378.945 625.071 378.945 623.566C378.945 621.431 380.38 619.891 383.005 619.891C385.035 619.891 386.225 621.081 386.225 622.586C386.225 624.721 384.79 626.261 382.165 626.261ZM402.069 646.001H395.629L397.484 635.396C397.519 635.116 397.554 634.836 397.554 634.591C397.554 633.436 397.029 632.771 395.979 632.771C394.229 632.771 393.074 634.031 392.689 636.306L391.009 646.001H384.569L387.719 627.941H393.809L393.424 630.216C394.684 628.501 396.434 627.591 398.639 627.591C402.209 627.591 404.309 629.446 404.309 632.631C404.309 633.086 404.239 633.576 404.169 634.066L402.069 646.001ZM412.676 645.301C408.231 645.301 405.746 642.151 405.746 638.406C405.746 632.071 409.141 627.591 415.091 627.591C417.541 627.591 419.186 628.571 420.026 630.531L420.481 627.941H426.571L423.701 644.251C422.546 650.901 418.731 653.211 412.851 653.211C408.616 653.211 405.011 651.776 405.011 647.366C405.011 647.086 405.011 646.806 405.046 646.491H410.926C410.926 648.101 411.696 649.081 413.586 649.081C415.441 649.081 416.631 648.101 416.946 646.141L417.401 643.446C416.491 644.426 414.881 645.301 412.676 645.301ZM414.636 640.821C417.086 640.821 418.696 637.741 418.696 634.906C418.696 633.226 417.856 632.071 416.246 632.071C413.796 632.071 412.186 635.151 412.186 637.986C412.186 639.666 413.026 640.821 414.636 640.821ZM434.879 646.351C429.734 646.351 426.479 644.251 426.479 640.961C426.479 640.646 426.479 640.366 426.549 640.051H432.639C432.639 641.591 433.864 642.221 435.544 642.221C437.329 642.221 438.239 641.451 438.239 640.611C438.239 640.051 437.819 639.701 436.314 639.491L433.829 639.141C430.049 638.616 428.194 637.111 428.194 633.856C428.194 629.796 432.254 627.591 437.504 627.591C441.074 627.591 445.379 628.851 445.379 632.771C445.379 633.051 445.344 633.331 445.309 633.611H439.219C439.219 632.246 438.379 631.721 436.839 631.721C435.579 631.721 434.634 632.281 434.634 633.191C434.634 633.751 434.739 633.996 435.894 634.171L438.379 634.521C442.544 635.116 444.679 636.586 444.679 640.121C444.679 644.111 440.549 646.351 434.879 646.351Z" fill="url(#paint0_linear_936_2155)"/>
</g>
<path d="M332.144 361.784L98.7845 595.144C89.0805 604.848 89.0805 620.581 98.7845 630.285L332.144 863.645C341.848 873.349 357.582 873.349 367.286 863.645L600.646 630.285C610.35 620.581 610.35 604.848 600.646 595.144L367.286 361.784C357.582 352.08 341.848 352.08 332.144 361.784Z" stroke="white" stroke-width="0.302821"/>
<mask id="mask2_936_2155" style="mask-type:luminance" maskUnits="userSpaceOnUse" x="628" y="354" width="518" height="518">
<path d="M869.038 361.677L635.678 595.037C625.915 604.8 625.915 620.629 635.678 630.393L869.038 863.753C878.801 873.516 894.63 873.516 904.393 863.753L1137.75 630.393C1147.52 620.629 1147.52 604.8 1137.75 595.037L904.393 361.677C894.63 351.914 878.801 351.914 869.038 361.677Z" fill="white"/>
</mask>
<g mask="url(#mask2_936_2155)">
<path d="M869.038 361.677L635.678 595.037C625.915 604.8 625.915 620.629 635.678 630.393L869.038 863.753C878.801 873.516 894.63 873.516 904.393 863.753L1137.75 630.393C1147.52 620.629 1147.52 604.8 1137.75 595.037L904.393 361.677C894.63 351.914 878.801 351.914 869.038 361.677Z" fill="black" fill-opacity="0.5"/>
<g filter="url(#filter2_f_936_2155)">
<path d="M1158 666.582C1158 795.154 1061.59 845.6 999.401 845.6C937.213 845.6 886.8 741.372 886.8 612.8C886.8 484.228 937.213 380 999.401 380C1061.59 380 1158 538.01 1158 666.582Z" fill="#009252" fill-opacity="0.3"/>
</g>
<g filter="url(#filter3_f_936_2155)">
<path d="M618 666.582C618 795.154 714.412 845.6 776.599 845.6C838.787 845.6 889.2 741.372 889.2 612.8C889.2 484.228 838.787 380 776.599 380C714.412 380 618 538.01 618 666.582Z" fill="#00829B" fill-opacity="0.3"/>
</g>
<path d="M796.043 588.881C796.043 598.191 791.108 604.001 781.168 604.001H770.178L774.553 579.081H784.598C791.808 579.081 796.043 582.511 796.043 588.881ZM789.253 589.441C789.253 586.186 787.258 584.401 784.493 584.401H780.398L777.878 598.681H781.973C786.663 598.681 789.253 594.516 789.253 589.441ZM805.184 604.351C799.654 604.351 796.539 601.446 796.539 596.931C796.539 589.616 801.334 585.591 807.564 585.591C812.674 585.591 815.999 588.391 815.999 593.011C815.999 594.166 815.789 595.321 815.439 596.476H802.839C802.804 596.756 802.804 597.001 802.804 597.246C802.804 599.066 803.749 600.081 805.604 600.081C807.074 600.081 808.229 599.451 808.894 598.051H814.879C813.829 601.831 810.714 604.351 805.184 604.351ZM807.144 589.861C805.394 589.861 804.204 590.736 803.539 592.416H809.839C809.734 590.736 808.894 589.861 807.144 589.861ZM822.821 604.001H816.381L820.756 579.081H827.196L822.821 604.001ZM832.049 604.001H825.609L828.759 585.941H835.199L832.049 604.001ZM832.434 584.261C830.404 584.261 829.214 583.071 829.214 581.566C829.214 579.431 830.649 577.891 833.274 577.891C835.304 577.891 836.494 579.081 836.494 580.586C836.494 582.721 835.059 584.261 832.434 584.261ZM847.508 604.001H839.668L836.588 585.941H843.028L844.253 598.471L849.888 585.941H856.888L847.508 604.001ZM863.905 604.351C858.375 604.351 855.26 601.446 855.26 596.931C855.26 589.616 860.055 585.591 866.285 585.591C871.395 585.591 874.72 588.391 874.72 593.011C874.72 594.166 874.51 595.321 874.16 596.476H861.56C861.525 596.756 861.525 597.001 861.525 597.246C861.525 599.066 862.47 600.081 864.325 600.081C865.795 600.081 866.95 599.451 867.615 598.051H873.6C872.55 601.831 869.435 604.351 863.905 604.351ZM865.865 589.861C864.115 589.861 862.925 590.736 862.26 592.416H868.56C868.455 590.736 867.615 589.861 865.865 589.861ZM881.541 604.001H875.101L878.251 585.941H884.341L883.711 589.476C884.866 586.711 886.476 585.661 888.751 585.661C889.241 585.661 890.466 585.801 890.711 585.941L889.731 591.541H887.421C884.971 591.541 883.431 593.151 882.941 595.951L881.541 604.001ZM896.102 604.001H889.662L892.812 585.941H899.252L896.102 604.001ZM896.487 584.261C894.457 584.261 893.267 583.071 893.267 581.566C893.267 579.431 894.702 577.891 897.327 577.891C899.357 577.891 900.547 579.081 900.547 580.586C900.547 582.721 899.112 584.261 896.487 584.261ZM916.39 604.001H909.95L911.805 593.396C911.84 593.116 911.875 592.836 911.875 592.591C911.875 591.436 911.35 590.771 910.3 590.771C908.55 590.771 907.395 592.031 907.01 594.306L905.33 604.001H898.89L902.04 585.941H908.13L907.745 588.216C909.005 586.501 910.755 585.591 912.96 585.591C916.53 585.591 918.63 587.446 918.63 590.631C918.63 591.086 918.56 591.576 918.49 592.066L916.39 604.001ZM926.998 603.301C922.553 603.301 920.068 600.151 920.068 596.406C920.068 590.071 923.463 585.591 929.413 585.591C931.863 585.591 933.508 586.571 934.348 588.531L934.803 585.941H940.893L938.023 602.251C936.868 608.901 933.053 611.211 927.173 611.211C922.938 611.211 919.333 609.776 919.333 605.366C919.333 605.086 919.333 604.806 919.368 604.491H925.248C925.248 606.101 926.018 607.081 927.908 607.081C929.763 607.081 930.953 606.101 931.268 604.141L931.723 601.446C930.813 602.426 929.203 603.301 926.998 603.301ZM928.958 598.821C931.408 598.821 933.018 595.741 933.018 592.906C933.018 591.226 932.178 590.071 930.568 590.071C928.118 590.071 926.508 593.151 926.508 595.986C926.508 597.666 927.348 598.821 928.958 598.821ZM957.39 604.211C953.4 604.211 951.65 603.126 951.65 600.081C951.65 599.451 951.72 598.751 951.86 597.946L953.19 590.421H950.635L951.405 585.941H953.96L954.94 580.481H961.38L960.4 585.941H963.795L963.025 590.421H959.63L958.265 598.191C958.23 598.366 958.23 598.506 958.23 598.646C958.23 599.381 958.65 599.731 959.525 599.731H961.38L960.645 604.001C959.77 604.071 958.335 604.211 957.39 604.211ZM980.443 604.001H974.003L975.858 593.396C975.893 593.116 975.928 592.836 975.928 592.591C975.928 591.436 975.403 590.771 974.353 590.771C972.603 590.771 971.448 592.031 971.063 594.306L969.383 604.001H962.943L967.318 579.081H973.758L972.253 587.691C973.268 586.501 974.808 585.591 977.013 585.591C980.583 585.591 982.683 587.446 982.683 590.631C982.683 591.086 982.613 591.576 982.543 592.066L980.443 604.001ZM992.626 604.351C987.096 604.351 983.981 601.446 983.981 596.931C983.981 589.616 988.776 585.591 995.006 585.591C1000.12 585.591 1003.44 588.391 1003.44 593.011C1003.44 594.166 1003.23 595.321 1002.88 596.476H990.281C990.246 596.756 990.246 597.001 990.246 597.246C990.246 599.066 991.191 600.081 993.046 600.081C994.516 600.081 995.671 599.451 996.336 598.051H1002.32C1001.27 601.831 998.156 604.351 992.626 604.351ZM994.586 589.861C992.836 589.861 991.646 590.736 990.981 592.416H997.281C997.176 590.736 996.336 589.861 994.586 589.861ZM798.985 646.211C794.995 646.211 793.245 645.126 793.245 642.081C793.245 641.451 793.315 640.751 793.455 639.946L794.785 632.421H792.23L793 627.941H795.555L796.535 622.481H802.975L801.995 627.941H805.39L804.62 632.421H801.225L799.86 640.191C799.825 640.366 799.825 640.506 799.825 640.646C799.825 641.381 800.245 641.731 801.12 641.731H802.975L802.24 646.001C801.365 646.071 799.93 646.211 798.985 646.211ZM822.037 646.001H815.597L817.452 635.396C817.487 635.116 817.522 634.836 817.522 634.591C817.522 633.436 816.997 632.771 815.947 632.771C814.197 632.771 813.042 634.031 812.657 636.306L810.977 646.001H804.537L808.912 621.081H815.352L813.847 629.691C814.862 628.501 816.402 627.591 818.607 627.591C822.177 627.591 824.277 629.446 824.277 632.631C824.277 633.086 824.207 633.576 824.137 634.066L822.037 646.001ZM831.28 646.001H824.84L827.99 627.941H834.43L831.28 646.001ZM831.665 626.261C829.635 626.261 828.445 625.071 828.445 623.566C828.445 621.431 829.88 619.891 832.505 619.891C834.535 619.891 835.725 621.081 835.725 622.586C835.725 624.721 834.29 626.261 831.665 626.261ZM851.569 646.001H845.129L846.984 635.396C847.019 635.116 847.054 634.836 847.054 634.591C847.054 633.436 846.529 632.771 845.479 632.771C843.729 632.771 842.574 634.031 842.189 636.306L840.509 646.001H834.069L837.219 627.941H843.309L842.924 630.216C844.184 628.501 845.934 627.591 848.139 627.591C851.709 627.591 853.809 629.446 853.809 632.631C853.809 633.086 853.739 633.576 853.669 634.066L851.569 646.001ZM862.176 645.301C857.731 645.301 855.246 642.151 855.246 638.406C855.246 632.071 858.641 627.591 864.591 627.591C867.041 627.591 868.686 628.571 869.526 630.531L869.981 627.941H876.071L873.201 644.251C872.046 650.901 868.231 653.211 862.351 653.211C858.116 653.211 854.511 651.776 854.511 647.366C854.511 647.086 854.511 646.806 854.546 646.491H860.426C860.426 648.101 861.196 649.081 863.086 649.081C864.941 649.081 866.131 648.101 866.446 646.141L866.901 643.446C865.991 644.426 864.381 645.301 862.176 645.301ZM864.136 640.821C866.586 640.821 868.196 637.741 868.196 634.906C868.196 633.226 867.356 632.071 865.746 632.071C863.296 632.071 861.686 635.151 861.686 637.986C861.686 639.666 862.526 640.821 864.136 640.821ZM884.379 646.351C879.234 646.351 875.979 644.251 875.979 640.961C875.979 640.646 875.979 640.366 876.049 640.051H882.139C882.139 641.591 883.364 642.221 885.044 642.221C886.829 642.221 887.739 641.451 887.739 640.611C887.739 640.051 887.319 639.701 885.814 639.491L883.329 639.141C879.549 638.616 877.694 637.111 877.694 633.856C877.694 629.796 881.754 627.591 887.004 627.591C890.574 627.591 894.879 628.851 894.879 632.771C894.879 633.051 894.844 633.331 894.809 633.611H888.719C888.719 632.246 887.879 631.721 886.339 631.721C885.079 631.721 884.134 632.281 884.134 633.191C884.134 633.751 884.239 633.996 885.394 634.171L887.879 634.521C892.044 635.116 894.179 636.586 894.179 640.121C894.179 644.111 890.049 646.351 884.379 646.351ZM910.44 646.001H904L907.15 627.941H913.24L912.61 631.476C913.765 628.711 915.375 627.661 917.65 627.661C918.14 627.661 919.365 627.801 919.61 627.941L918.63 633.541H916.32C913.87 633.541 912.33 635.151 911.84 637.951L910.44 646.001ZM925.001 646.001H918.561L921.711 627.941H928.151L925.001 646.001ZM925.386 626.261C923.356 626.261 922.166 625.071 922.166 623.566C922.166 621.431 923.601 619.891 926.226 619.891C928.256 619.891 929.446 621.081 929.446 622.586C929.446 624.721 928.011 626.261 925.386 626.261ZM935.594 645.301C931.149 645.301 928.664 642.151 928.664 638.406C928.664 632.071 932.059 627.591 938.009 627.591C940.459 627.591 942.104 628.571 942.944 630.531L943.399 627.941H949.489L946.619 644.251C945.464 650.901 941.649 653.211 935.769 653.211C931.534 653.211 927.929 651.776 927.929 647.366C927.929 647.086 927.929 646.806 927.964 646.491H933.844C933.844 648.101 934.614 649.081 936.504 649.081C938.359 649.081 939.549 648.101 939.864 646.141L940.319 643.446C939.409 644.426 937.799 645.301 935.594 645.301ZM937.554 640.821C940.004 640.821 941.614 637.741 941.614 634.906C941.614 633.226 940.774 632.071 939.164 632.071C936.714 632.071 935.104 635.151 935.104 637.986C935.104 639.666 935.944 640.821 937.554 640.821ZM966.652 646.001H960.212L962.067 635.396C962.102 635.116 962.137 634.836 962.137 634.591C962.137 633.436 961.612 632.771 960.562 632.771C958.812 632.771 957.657 634.031 957.272 636.306L955.592 646.001H949.152L953.527 621.081H959.967L958.462 629.691C959.477 628.501 961.017 627.591 963.222 627.591C966.792 627.591 968.892 629.446 968.892 632.631C968.892 633.086 968.822 633.576 968.752 634.066L966.652 646.001ZM977.198 646.211C973.208 646.211 971.458 645.126 971.458 642.081C971.458 641.451 971.528 640.751 971.668 639.946L972.998 632.421H970.443L971.213 627.941H973.768L974.748 622.481H981.188L980.208 627.941H983.603L982.833 632.421H979.438L978.073 640.191C978.038 640.366 978.038 640.506 978.038 640.646C978.038 641.381 978.458 641.731 979.333 641.731H981.188L980.453 646.001C979.578 646.071 978.143 646.211 977.198 646.211Z" fill="url(#paint1_linear_936_2155)"/>
</g>
<path d="M869.144 361.784L635.785 595.144C626.081 604.848 626.08 620.581 635.784 630.285L869.144 863.645C878.848 873.349 894.582 873.349 904.286 863.645L1137.65 630.285C1147.35 620.581 1147.35 604.848 1137.65 595.144L904.286 361.784C894.582 352.08 878.848 352.08 869.144 361.784Z" stroke="white" stroke-width="0.302821"/>
<path d="M80.5 846.31V380" stroke="white" stroke-dasharray="2 6"/>
<path d="M617.5 1061V380" stroke="white" stroke-dasharray="2 6"/>
<path d="M349.5 1060V849" stroke="white" stroke-dasharray="2 6"/>
<path d="M886.5 1061V850" stroke="white" stroke-dasharray="2 6"/>
<path d="M1148.5 1064.03V389" stroke="white" stroke-dasharray="2 6"/>
<path d="M1147.32 613.278C1344.43 608.498 1473.2 369.28 1438.64 406.287" stroke="#34BDFE" stroke-width="5.2178"/>
<path d="M1148.85 614.277C1291.51 750.375 1551.77 672.455 1501.17 674.152" stroke="#34BDFE" stroke-width="5.2178"/>
<path d="M1161.08 620.371C1324.35 730.921 1568.08 610.913 1518.46 620.981" stroke="#34BDFE" stroke-width="5.2178"/>
<path d="M1167.86 617.569C1349.72 693.756 1565 528.045 1518.34 547.7" stroke="#34BDFE" stroke-width="5.2178"/>
<path d="M1148.85 617.305C1291.51 481.207 1551.77 559.127 1501.17 557.43" stroke="#34BDFE" stroke-width="5.2178"/>
<path d="M1161.08 611.208C1324.35 500.658 1568.08 620.666 1518.46 610.598" stroke="#34BDFE" stroke-width="5.2178"/>
<path d="M1167.86 614.012C1349.72 537.825 1565 703.536 1518.34 683.882" stroke="#34BDFE" stroke-width="5.2178"/>
<path d="M1149.13 615.548C1345.71 630.766 1498.06 405.827 1459.93 439.141" stroke="#34BDFE" stroke-width="5.2178"/>
<path d="M1154.25 610.186C1348.28 645.235 1522.62 436.881 1481.32 466.163" stroke="#34BDFE" stroke-width="5.2178"/>
<path d="M1141.36 615.305C1338.47 620.085 1467.24 859.303 1432.68 822.296" stroke="#34BDFE" stroke-width="5.2178"/>
<path d="M1183.97 610.082C1360.84 600.482 1459.46 818.278 1431.05 785.635" stroke="#34BDFE" stroke-width="5.2178"/>
<path d="M1169.18 615.305C1346.06 605.706 1444.68 823.501 1416.26 790.858" stroke="#34BDFE" stroke-width="5.2178"/>
<path d="M290.261 963.5L323.257 1000.16L290.269 1035.19H91.5V963.5H290.261Z" fill="#0A1613" stroke="url(#paint2_linear_936_2155)"/>
<path d="M147.202 996.512C147.202 1004.2 143.126 1009 134.915 1009H125.837L129.451 988.417H137.749C143.704 988.417 147.202 991.25 147.202 996.512ZM141.594 996.974C141.594 994.285 139.946 992.811 137.662 992.811H134.279L132.198 1004.61H135.58C139.454 1004.61 141.594 1001.17 141.594 996.974ZM152.325 1009H147.005L149.607 994.083H154.927L152.325 1009ZM152.643 992.695C150.966 992.695 149.983 991.712 149.983 990.469C149.983 988.706 151.169 987.434 153.337 987.434C155.014 987.434 155.997 988.417 155.997 989.66C155.997 991.423 154.811 992.695 152.643 992.695ZM161.769 1009.29C157.519 1009.29 154.831 1007.55 154.831 1004.84C154.831 1004.58 154.831 1004.35 154.889 1004.09H159.919C159.919 1005.36 160.931 1005.88 162.319 1005.88C163.793 1005.88 164.545 1005.24 164.545 1004.55C164.545 1004.09 164.198 1003.8 162.955 1003.62L160.902 1003.33C157.78 1002.9 156.247 1001.66 156.247 998.969C156.247 995.615 159.601 993.794 163.938 993.794C166.887 993.794 170.443 994.835 170.443 998.073C170.443 998.304 170.414 998.535 170.385 998.767H165.354C165.354 997.639 164.66 997.205 163.388 997.205C162.348 997.205 161.567 997.668 161.567 998.42C161.567 998.882 161.654 999.085 162.608 999.229L164.66 999.518C168.101 1000.01 169.864 1001.22 169.864 1004.14C169.864 1007.44 166.453 1009.29 161.769 1009.29ZM178.498 1009.29C174.161 1009.29 171.357 1006.98 171.357 1003.16C171.357 997.119 175.028 993.794 180.637 993.794C185.234 993.794 187.547 996.251 187.547 999.114C187.547 999.46 187.489 999.807 187.431 1000.15H182.429C182.429 998.969 181.851 997.784 180.232 997.784C177.919 997.784 176.676 1000.18 176.676 1002.81C176.676 1004.49 177.572 1005.3 178.902 1005.3C180.001 1005.3 181.389 1004.72 181.967 1002.81H186.968C186.303 1006.63 183.759 1009.29 178.498 1009.29ZM195.503 1005.3C197.527 1005.3 199.059 1002.9 199.059 1000.27C199.059 998.593 198.163 997.784 196.833 997.784C194.809 997.784 193.277 1000.18 193.277 1002.81C193.277 1004.49 194.173 1005.3 195.503 1005.3ZM195.099 1009.29C190.762 1009.29 187.958 1006.98 187.958 1003.16C187.958 997.119 191.918 993.794 197.238 993.794C201.575 993.794 204.379 996.107 204.379 999.923C204.379 1005.96 200.418 1009.29 195.099 1009.29ZM213.937 1009H207.461L204.917 994.083H210.237L211.249 1004.43L215.903 994.083H221.685L213.937 1009ZM227.482 1009.29C222.914 1009.29 220.341 1006.89 220.341 1003.16C220.341 997.119 224.302 993.794 229.448 993.794C233.669 993.794 236.415 996.107 236.415 999.923C236.415 1000.88 236.242 1001.83 235.953 1002.78H225.545C225.516 1003.02 225.516 1003.22 225.516 1003.42C225.516 1004.92 226.297 1005.76 227.829 1005.76C229.043 1005.76 229.997 1005.24 230.546 1004.09H235.49C234.623 1007.21 232.05 1009.29 227.482 1009.29ZM229.101 997.321C227.655 997.321 226.672 998.044 226.123 999.432H231.327C231.24 998.044 230.546 997.321 229.101 997.321ZM242.05 1009H236.73L239.332 994.083H244.363L243.842 997.003C244.796 994.719 246.126 993.852 248.005 993.852C248.41 993.852 249.422 993.967 249.624 994.083L248.815 998.709H246.907C244.883 998.709 243.611 1000.04 243.206 1002.35L242.05 1009Z" fill="url(#paint3_linear_936_2155)"/>
<path d="M567.261 963.5L600.257 1000.16L567.269 1035.19H369.369L410.449 1000.55L410.893 1000.18L410.458 999.796L369.322 963.5H567.261Z" fill="#0A1613" stroke="url(#paint4_linear_936_2155)"/>
<path d="M460.547 996.512C460.547 1004.2 456.471 1009 448.26 1009H439.182L442.796 988.417H451.093C457.049 988.417 460.547 991.25 460.547 996.512ZM454.939 996.974C454.939 994.285 453.291 992.811 451.007 992.811H447.624L445.543 1004.61H448.925C452.799 1004.61 454.939 1001.17 454.939 996.974ZM468.098 1009.29C463.53 1009.29 460.957 1006.89 460.957 1003.16C460.957 997.119 464.918 993.794 470.064 993.794C474.285 993.794 477.032 996.107 477.032 999.923C477.032 1000.88 476.858 1001.83 476.569 1002.78H466.161C466.132 1003.02 466.132 1003.22 466.132 1003.42C466.132 1004.92 466.913 1005.76 468.445 1005.76C469.66 1005.76 470.614 1005.24 471.163 1004.09H476.107C475.239 1007.21 472.666 1009.29 468.098 1009.29ZM469.717 997.321C468.272 997.321 467.289 998.044 466.74 999.432H471.943C471.857 998.044 471.163 997.321 469.717 997.321ZM483.627 1009H478.307L480.273 997.784H478.163L478.799 994.083H480.938L481.054 993.418C481.69 989.804 483.193 988.243 486.865 988.243C487.935 988.243 489.351 988.359 490.045 988.417L489.438 991.944H487.906C487.038 991.944 486.547 992.377 486.402 993.245L486.258 994.083H489.033L488.397 997.784H485.593L483.627 1009ZM493.479 1009H488.16L490.762 994.083H496.081L493.479 1009ZM493.797 992.695C492.121 992.695 491.138 991.712 491.138 990.469C491.138 988.706 492.323 987.434 494.491 987.434C496.168 987.434 497.151 988.417 497.151 989.66C497.151 991.423 495.966 992.695 493.797 992.695ZM510.238 1009H504.919L506.451 1000.24C506.48 1000.01 506.509 999.778 506.509 999.576C506.509 998.622 506.075 998.073 505.208 998.073C503.762 998.073 502.808 999.114 502.49 1000.99L501.102 1009H495.783L498.385 994.083H503.415L503.097 995.962C504.138 994.546 505.584 993.794 507.405 993.794C510.354 993.794 512.088 995.326 512.088 997.957C512.088 998.333 512.031 998.738 511.973 999.142L510.238 1009ZM520.301 1009.29C515.733 1009.29 513.16 1006.89 513.16 1003.16C513.16 997.119 517.121 993.794 522.267 993.794C526.488 993.794 529.235 996.107 529.235 999.923C529.235 1000.88 529.061 1001.83 528.772 1002.78H518.364C518.335 1003.02 518.335 1003.22 518.335 1003.42C518.335 1004.92 519.116 1005.76 520.648 1005.76C521.862 1005.76 522.817 1005.24 523.366 1004.09H528.31C527.442 1007.21 524.869 1009.29 520.301 1009.29ZM521.92 997.321C520.475 997.321 519.492 998.044 518.943 999.432H524.146C524.06 998.044 523.366 997.321 521.92 997.321Z" fill="url(#paint5_linear_936_2155)"/>
<path d="M837.261 963.5L870.257 1000.16L837.269 1035.19H639.369L680.449 1000.55L680.893 1000.18L680.458 999.796L639.322 963.5H837.261Z" fill="#0A1613" stroke="url(#paint6_linear_936_2155)"/>
<path d="M722.906 996.509C722.906 1004.2 718.83 1009 710.619 1009H701.541L705.155 988.414H713.453C719.408 988.414 722.906 991.247 722.906 996.509ZM717.298 996.971C717.298 994.282 715.65 992.808 713.366 992.808H709.983L707.902 1004.61H711.284C715.158 1004.61 717.298 1001.17 717.298 996.971ZM730.458 1009.29C725.89 1009.29 723.317 1006.89 723.317 1003.16C723.317 997.116 727.277 993.791 732.423 993.791C736.644 993.791 739.391 996.104 739.391 999.92C739.391 1000.88 739.217 1001.83 738.928 1002.78H728.521C728.492 1003.02 728.492 1003.22 728.492 1003.42C728.492 1004.92 729.272 1005.76 730.804 1005.76C732.019 1005.76 732.973 1005.24 733.522 1004.09H738.466C737.598 1007.21 735.025 1009.29 730.458 1009.29ZM732.077 997.318C730.631 997.318 729.648 998.041 729.099 999.429H734.303C734.216 998.041 733.522 997.318 732.077 997.318ZM748.957 1009H742.481L739.937 994.08H745.257L746.269 1004.43L750.923 994.08H756.706L748.957 1009ZM762.502 1009.29C757.934 1009.29 755.361 1006.89 755.361 1003.16C755.361 997.116 759.322 993.791 764.468 993.791C768.689 993.791 771.435 996.104 771.435 999.92C771.435 1000.88 771.262 1001.83 770.973 1002.78H760.565C760.536 1003.02 760.536 1003.22 760.536 1003.42C760.536 1004.92 761.317 1005.76 762.849 1005.76C764.063 1005.76 765.017 1005.24 765.567 1004.09H770.51C769.643 1007.21 767.07 1009.29 762.502 1009.29ZM764.121 997.318C762.676 997.318 761.693 998.041 761.143 999.429H766.347C766.26 998.041 765.567 997.318 764.121 997.318ZM777.07 1009H771.75L775.364 988.414H780.684L777.07 1009ZM787.526 1005.3C789.55 1005.3 791.082 1002.9 791.082 1000.27C791.082 998.59 790.186 997.781 788.856 997.781C786.832 997.781 785.3 1000.18 785.3 1002.81C785.3 1004.49 786.196 1005.3 787.526 1005.3ZM787.121 1009.29C782.785 1009.29 779.98 1006.98 779.98 1003.16C779.98 997.116 783.941 993.791 789.261 993.791C793.597 993.791 796.402 996.104 796.402 999.92C796.402 1005.96 792.441 1009.29 787.121 1009.29ZM806.191 1009.29C804.37 1009.29 802.982 1008.6 802.317 1007.27L801.016 1014.67H795.697L799.31 994.08H804.341L804.023 995.959C805.064 994.543 806.509 993.791 808.33 993.791C812.118 993.791 814.026 996.624 814.026 999.92C814.026 1005.15 811.106 1009.29 806.191 1009.29ZM805.295 1005.3C807.319 1005.3 808.706 1002.9 808.706 1000.27C808.706 998.59 807.955 997.781 806.625 997.781C804.601 997.781 803.213 1000.18 803.213 1002.81C803.213 1004.49 803.965 1005.3 805.295 1005.3Z" fill="url(#paint7_linear_936_2155)"/>
<path d="M1101.26 963.5L1134.26 1000.16L1101.27 1035.19H903.369L944.449 1000.55L944.893 1000.18L944.458 999.796L903.322 963.5H1101.26Z" fill="#0A1613" stroke="url(#paint8_linear_936_2155)"/>
<path d="M994.547 996.512C994.547 1004.2 990.471 1009 982.26 1009H973.182L976.796 988.417H985.093C991.049 988.417 994.547 991.25 994.547 996.512ZM988.939 996.974C988.939 994.285 987.291 992.811 985.007 992.811H981.624L979.543 1004.61H982.925C986.799 1004.61 988.939 1001.17 988.939 996.974ZM1002.1 1009.29C997.53 1009.29 994.957 1006.89 994.957 1003.16C994.957 997.119 998.918 993.794 1004.06 993.794C1008.29 993.794 1011.03 996.107 1011.03 999.923C1011.03 1000.88 1010.86 1001.83 1010.57 1002.78H1000.16C1000.13 1003.02 1000.13 1003.22 1000.13 1003.42C1000.13 1004.92 1000.91 1005.76 1002.45 1005.76C1003.66 1005.76 1004.61 1005.24 1005.16 1004.09H1010.11C1009.24 1007.21 1006.67 1009.29 1002.1 1009.29ZM1003.72 997.321C1002.27 997.321 1001.29 998.044 1000.74 999.432H1005.94C1005.86 998.044 1005.16 997.321 1003.72 997.321ZM1016.67 1009H1011.35L1014.96 988.417H1020.28L1016.67 1009ZM1024.29 1009H1018.97L1021.57 994.083H1026.89L1024.29 1009ZM1024.61 992.695C1022.93 992.695 1021.95 991.712 1021.95 990.469C1021.95 988.706 1023.13 987.434 1025.3 987.434C1026.98 987.434 1027.96 988.417 1027.96 989.66C1027.96 991.423 1026.78 992.695 1024.61 992.695ZM1037.06 1009H1030.58L1028.04 994.083H1033.36L1034.37 1004.43L1039.02 994.083H1044.81L1037.06 1009ZM1050.6 1009.29C1046.03 1009.29 1043.46 1006.89 1043.46 1003.16C1043.46 997.119 1047.42 993.794 1052.57 993.794C1056.79 993.794 1059.54 996.107 1059.54 999.923C1059.54 1000.88 1059.36 1001.83 1059.07 1002.78H1048.67C1048.64 1003.02 1048.64 1003.22 1048.64 1003.42C1048.64 1004.92 1049.42 1005.76 1050.95 1005.76C1052.16 1005.76 1053.12 1005.24 1053.67 1004.09H1058.61C1057.74 1007.21 1055.17 1009.29 1050.6 1009.29ZM1052.22 997.321C1050.78 997.321 1049.79 998.044 1049.24 999.432H1054.45C1054.36 998.044 1053.67 997.321 1052.22 997.321ZM1065.17 1009H1059.85L1062.45 994.083H1067.48L1066.96 997.003C1067.92 994.719 1069.25 993.852 1071.13 993.852C1071.53 993.852 1072.54 993.967 1072.75 994.083L1071.94 998.709H1070.03C1068 998.709 1066.73 1000.04 1066.33 1002.35L1065.17 1009Z" fill="url(#paint9_linear_936_2155)"/>
<path d="M1368.26 963.5L1401.26 1000.16L1368.27 1035.19H1170.37L1211.45 1000.55L1211.89 1000.18L1211.46 999.796L1170.32 963.5H1368.26Z" fill="#0A1613" stroke="url(#paint10_linear_936_2155)"/>
<path d="M1255.37 1009H1239.36L1242.97 988.414H1258.99L1258.18 992.981H1247.77L1247.19 996.364H1256.67L1255.89 1000.64H1246.41L1245.75 1004.43H1256.15L1255.37 1009ZM1267.69 1009H1261.21L1258.67 994.08H1263.99L1265 1004.43L1269.65 994.08H1275.43L1267.69 1009ZM1281.64 1005.3C1283.66 1005.3 1285.19 1002.9 1285.19 1000.27C1285.19 998.59 1284.3 997.781 1282.97 997.781C1280.94 997.781 1279.41 1000.18 1279.41 1002.81C1279.41 1004.49 1280.31 1005.3 1281.64 1005.3ZM1281.23 1009.29C1276.89 1009.29 1274.09 1006.98 1274.09 1003.16C1274.09 997.116 1278.05 993.791 1283.37 993.791C1287.71 993.791 1290.51 996.104 1290.51 999.92C1290.51 1005.96 1286.55 1009.29 1281.23 1009.29ZM1296.14 1009H1290.82L1294.43 988.414H1299.75L1296.14 1009ZM1308.91 1009H1302.43L1299.89 994.08H1305.21L1306.22 1004.43L1310.87 994.08H1316.65L1308.91 1009ZM1322.45 1009.29C1317.88 1009.29 1315.31 1006.89 1315.31 1003.16C1315.31 997.116 1319.27 993.791 1324.42 993.791C1328.64 993.791 1331.38 996.104 1331.38 999.92C1331.38 1000.88 1331.21 1001.83 1330.92 1002.78H1320.51C1320.49 1003.02 1320.49 1003.22 1320.49 1003.42C1320.49 1004.92 1321.27 1005.76 1322.8 1005.76C1324.01 1005.76 1324.97 1005.24 1325.52 1004.09H1330.46C1329.59 1007.21 1327.02 1009.29 1322.45 1009.29ZM1324.07 997.318C1322.63 997.318 1321.64 998.041 1321.09 999.429H1326.3C1326.21 998.041 1325.52 997.318 1324.07 997.318Z" fill="url(#paint11_linear_936_2155)"/>
</g>
</g>
<defs>
<filter id="filter0_f_936_2155" x="242.166" y="272.366" width="486.467" height="680.869" filterUnits="userSpaceOnUse" color-interpolation-filters="sRGB">
<feFlood flood-opacity="0" result="BackgroundImageFix"/>
<feBlend mode="normal" in="SourceGraphic" in2="BackgroundImageFix" result="shape"/>
<feGaussianBlur stdDeviation="53.8168" result="effect1_foregroundBlur_936_2155"/>
</filter>
<filter id="filter1_f_936_2155" x="-26.6336" y="272.366" width="486.467" height="680.869" filterUnits="userSpaceOnUse" color-interpolation-filters="sRGB">
<feFlood flood-opacity="0" result="BackgroundImageFix"/>
<feBlend mode="normal" in="SourceGraphic" in2="BackgroundImageFix" result="shape"/>
<feGaussianBlur stdDeviation="53.8168" result="effect1_foregroundBlur_936_2155"/>
</filter>
<filter id="filter2_f_936_2155" x="779.166" y="272.366" width="486.467" height="680.869" filterUnits="userSpaceOnUse" color-interpolation-filters="sRGB">
<feFlood flood-opacity="0" result="BackgroundImageFix"/>
<feBlend mode="normal" in="SourceGraphic" in2="BackgroundImageFix" result="shape"/>
<feGaussianBlur stdDeviation="53.8168" result="effect1_foregroundBlur_936_2155"/>
</filter>
<filter id="filter3_f_936_2155" x="510.366" y="272.366" width="486.467" height="680.869" filterUnits="userSpaceOnUse" color-interpolation-filters="sRGB">
<feFlood flood-opacity="0" result="BackgroundImageFix"/>
<feBlend mode="normal" in="SourceGraphic" in2="BackgroundImageFix" result="shape"/>
<feGaussianBlur stdDeviation="53.8168" result="effect1_foregroundBlur_936_2155"/>
</filter>
<linearGradient id="paint0_linear_936_2155" x1="334.307" y1="547.201" x2="325.489" y2="647.278" gradientUnits="userSpaceOnUse">
<stop offset="0.354971" stop-color="#0A6A97"/>
<stop offset="0.532442" stop-color="#34BDFE"/>
<stop offset="1" stop-color="#17E48A"/>
</linearGradient>
<linearGradient id="paint1_linear_936_2155" x1="871.307" y1="547.201" x2="862.489" y2="647.278" gradientUnits="userSpaceOnUse">
<stop offset="0.354971" stop-color="#0A6A97"/>
<stop offset="0.532442" stop-color="#34BDFE"/>
<stop offset="1" stop-color="#17E48A"/>
</linearGradient>
<linearGradient id="paint2_linear_936_2155" x1="193.829" y1="942.405" x2="186.231" y2="1029.01" gradientUnits="userSpaceOnUse">
<stop offset="0.354971" stop-color="#0A6A97"/>
<stop offset="0.532442" stop-color="#34BDFE"/>
<stop offset="1" stop-color="#17E48A"/>
</linearGradient>
<linearGradient id="paint3_linear_936_2155" x1="180.432" y1="972.368" x2="177.304" y2="1012.95" gradientUnits="userSpaceOnUse">
<stop offset="0.354971" stop-color="#0A6A97"/>
<stop offset="0.532442" stop-color="#34BDFE"/>
<stop offset="1" stop-color="#17E48A"/>
</linearGradient>
<linearGradient id="paint4_linear_936_2155" x1="470.829" y1="942.405" x2="463.231" y2="1029.01" gradientUnits="userSpaceOnUse">
<stop offset="0.354971" stop-color="#0A6A97"/>
<stop offset="0.532442" stop-color="#34BDFE"/>
<stop offset="1" stop-color="#17E48A"/>
</linearGradient>
<linearGradient id="paint5_linear_936_2155" x1="479.209" y1="972.368" x2="474.968" y2="1012.74" gradientUnits="userSpaceOnUse">
<stop offset="0.354971" stop-color="#0A6A97"/>
<stop offset="0.532442" stop-color="#34BDFE"/>
<stop offset="1" stop-color="#17E48A"/>
</linearGradient>
<linearGradient id="paint6_linear_936_2155" x1="740.829" y1="942.405" x2="733.231" y2="1029.01" gradientUnits="userSpaceOnUse">
<stop offset="0.354971" stop-color="#0A6A97"/>
<stop offset="0.532442" stop-color="#34BDFE"/>
<stop offset="1" stop-color="#17E48A"/>
</linearGradient>
<linearGradient id="paint7_linear_936_2155" x1="747.584" y1="972.365" x2="744.38" y2="1012.94" gradientUnits="userSpaceOnUse">
<stop offset="0.354971" stop-color="#0A6A97"/>
<stop offset="0.532442" stop-color="#34BDFE"/>
<stop offset="1" stop-color="#17E48A"/>
</linearGradient>
<linearGradient id="paint8_linear_936_2155" x1="1004.83" y1="942.405" x2="997.231" y2="1029.01" gradientUnits="userSpaceOnUse">
<stop offset="0.354971" stop-color="#0A6A97"/>
<stop offset="0.532442" stop-color="#34BDFE"/>
<stop offset="1" stop-color="#17E48A"/>
</linearGradient>
<linearGradient id="paint9_linear_936_2155" x1="1016.74" y1="972.368" x2="1012.84" y2="1012.81" gradientUnits="userSpaceOnUse">
<stop offset="0.354971" stop-color="#0A6A97"/>
<stop offset="0.532442" stop-color="#34BDFE"/>
<stop offset="1" stop-color="#17E48A"/>
</linearGradient>
<linearGradient id="paint10_linear_936_2155" x1="1271.83" y1="942.405" x2="1264.23" y2="1029.01" gradientUnits="userSpaceOnUse">
<stop offset="0.354971" stop-color="#0A6A97"/>
<stop offset="0.532442" stop-color="#34BDFE"/>
<stop offset="1" stop-color="#17E48A"/>
</linearGradient>
<linearGradient id="paint11_linear_936_2155" x1="1280.27" y1="972.365" x2="1276.11" y2="1012.76" gradientUnits="userSpaceOnUse">
<stop offset="0.354971" stop-color="#0A6A97"/>
<stop offset="0.532442" stop-color="#34BDFE"/>
<stop offset="1" stop-color="#17E48A"/>
</linearGradient>
<clipPath id="clip0_936_2155">
<rect width="1440" height="1180" fill="white"/>
</clipPath>
</defs>
</svg>
