<svg width="1440" height="899" viewBox="0 0 1440 899" fill="none" xmlns="http://www.w3.org/2000/svg">
<g clip-path="url(#clip0_888_2275)">
<rect width="1440" height="899" fill="#00080A"/>
<path d="M52.25 384.075C52.25 389.025 49.4 392.2 45 392.2C38.5 392.2 33.95 388.125 33.95 381.525C33.95 377.7 35.85 373.8 40.25 373.8C40.5 373.8 40.775 373.825 41.05 373.85V378.45C39.225 378.45 37.9 379.8 37.9 381.875C37.9 385.325 40.975 387.35 44.6 387.35C46.925 387.35 48.3 385.8 48.3 383.725C48.3 381.5 47 379.8 45 379.2V374.55C49.85 375.15 52.25 379 52.25 384.075ZM52 361.68V366.28L44.425 364.955C44.225 364.93 44.025 364.905 43.85 364.905C43.025 364.905 42.55 365.28 42.55 366.03C42.55 367.28 43.45 368.105 45.075 368.38L52 369.58V374.18L34.2 371.055V366.455L40.35 367.53C39.5 366.805 38.85 365.705 38.85 364.13C38.85 361.58 40.175 360.08 42.45 360.08C42.775 360.08 43.125 360.13 43.475 360.18L52 361.68ZM52.25 355.228C52.25 358.028 50.85 359.553 48.675 359.553C45.875 359.553 44.625 357.578 44.35 354.353L44.1 351.378C44.05 350.703 43.75 350.228 43.2 350.228C42.45 350.228 42.05 350.853 42.05 351.678C42.05 352.753 42.55 353.153 43.35 353.353V357.953C40.45 357.678 38.85 355.653 38.85 351.278C38.85 347.928 40.1 345.653 42.775 345.653C43.125 345.653 43.5 345.678 43.9 345.753L48.7 346.603C49.775 346.803 50.6 346.903 51.175 346.903C51.55 346.903 51.825 346.853 52 346.778V350.978C51.675 351.228 51.3 351.328 50.95 351.328C50.875 351.328 50.775 351.328 50.625 351.303C51.75 352.303 52.25 353.303 52.25 355.228ZM49.2 353.578C49.2 352.178 48.2 351.103 46.975 350.903L46.525 350.828C46.65 350.928 46.7 351.353 46.75 351.853L46.85 353.103C46.95 354.328 47.375 354.953 48.125 354.953C48.75 354.953 49.2 354.503 49.2 353.578ZM52 340.576V345.176L34.2 342.051V337.451L52 340.576ZM52 333.984V338.584L34.2 335.459V330.859L52 333.984ZM52.25 325.292C52.25 329.242 50.175 331.467 46.95 331.467C41.725 331.467 38.85 328.042 38.85 323.592C38.85 319.942 40.85 317.567 44.15 317.567C44.975 317.567 45.8 317.717 46.625 317.967V326.967C46.825 326.992 47 326.992 47.175 326.992C48.475 326.992 49.2 326.317 49.2 324.992C49.2 323.942 48.75 323.117 47.75 322.642V318.367C50.45 319.117 52.25 321.342 52.25 325.292ZM41.9 323.892C41.9 325.142 42.525 325.992 43.725 326.467V321.967C42.525 322.042 41.9 322.642 41.9 323.892ZM52 304.795L52 309.395L44.425 308.07C44.225 308.045 44.025 308.02 43.85 308.02C43.025 308.02 42.55 308.395 42.55 309.145C42.55 310.395 43.45 311.22 45.075 311.495L52 312.695V317.295L39.1 315.045V310.695L40.725 310.97C39.5 310.07 38.85 308.82 38.85 307.245C38.85 304.695 40.175 303.195 42.45 303.195C42.775 303.195 43.125 303.245 43.475 303.295L52 304.795ZM51.5 297.218C51.5 300.393 49.25 302.168 46.575 302.168C42.05 302.168 38.85 299.743 38.85 295.493C38.85 293.743 39.55 292.568 40.95 291.968L39.1 291.643V287.293L50.75 289.343C55.5 290.168 57.15 292.893 57.15 297.093C57.15 300.118 56.125 302.693 52.975 302.693C52.775 302.693 52.575 302.693 52.35 302.668V298.468C53.5 298.468 54.2 297.918 54.2 296.568C54.2 295.243 53.5 294.393 52.1 294.168L50.175 293.843C50.875 294.493 51.5 295.643 51.5 297.218ZM48.3 295.818C48.3 294.068 46.1 292.918 44.075 292.918C42.875 292.918 42.05 293.518 42.05 294.668C42.05 296.418 44.25 297.568 46.275 297.568C47.475 297.568 48.3 296.968 48.3 295.818ZM52.25 280.834C52.25 284.784 50.175 287.009 46.95 287.009C41.725 287.009 38.85 283.584 38.85 279.134C38.85 275.484 40.85 273.109 44.15 273.109C44.975 273.109 45.8 273.259 46.625 273.509V282.509C46.825 282.534 47 282.534 47.175 282.534C48.475 282.534 49.2 281.859 49.2 280.534C49.2 279.484 48.75 278.659 47.75 278.184V273.909C50.45 274.659 52.25 276.884 52.25 280.834ZM41.9 279.434C41.9 280.684 42.525 281.534 43.725 282.009V277.509C42.525 277.584 41.9 278.184 41.9 279.434Z" fill="white"/>
<g clip-path="url(#clip1_888_2275)">
<rect x="81" y="331.715" width="380.021" height="380.021" rx="25" transform="rotate(-45 81 331.715)" fill="black" fill-opacity="0.5"/>
<g filter="url(#filter0_f_888_2275)">
<path d="M621 385.582C621 514.154 524.589 564.6 462.401 564.6C400.213 564.6 349.8 460.372 349.8 331.8C349.8 203.228 400.213 99 462.401 99C524.589 99 621 257.01 621 385.582Z" fill="#009252" fill-opacity="0.3"/>
</g>
<g filter="url(#filter1_f_888_2275)">
<path d="M81.0002 385.582C81.0002 514.154 177.412 564.6 239.6 564.6C301.787 564.6 352.2 460.372 352.2 331.8C352.2 203.228 301.787 99 239.6 99C177.412 99 81.0002 257.01 81.0002 385.582Z" fill="#00829B" fill-opacity="0.3"/>
</g>
<path d="M260.478 307.88C260.478 317.19 255.543 323 245.603 323H234.613L238.988 298.08H249.033C256.243 298.08 260.478 301.51 260.478 307.88ZM253.688 308.44C253.688 305.185 251.693 303.4 248.928 303.4H244.833L242.313 317.68H246.408C251.098 317.68 253.688 313.515 253.688 308.44ZM269.62 323.35C264.09 323.35 260.975 320.445 260.975 315.93C260.975 308.615 265.77 304.59 272 304.59C277.11 304.59 280.435 307.39 280.435 312.01C280.435 313.165 280.225 314.32 279.875 315.475H267.275C267.24 315.755 267.24 316 267.24 316.245C267.24 318.065 268.185 319.08 270.04 319.08C271.51 319.08 272.665 318.45 273.33 317.05H279.315C278.265 320.83 275.15 323.35 269.62 323.35ZM271.58 308.86C269.83 308.86 268.64 309.735 267.975 311.415H274.275C274.17 309.735 273.33 308.86 271.58 308.86ZM289.461 323.35C284.316 323.35 281.061 321.25 281.061 317.96C281.061 317.645 281.061 317.365 281.131 317.05H287.221C287.221 318.59 288.446 319.22 290.126 319.22C291.911 319.22 292.821 318.45 292.821 317.61C292.821 317.05 292.401 316.7 290.896 316.49L288.411 316.14C284.631 315.615 282.776 314.11 282.776 310.855C282.776 306.795 286.836 304.59 292.086 304.59C295.656 304.59 299.961 305.85 299.961 309.77C299.961 310.05 299.926 310.33 299.891 310.61H293.801C293.801 309.245 292.961 308.72 291.421 308.72C290.161 308.72 289.216 309.28 289.216 310.19C289.216 310.75 289.321 310.995 290.476 311.17L292.961 311.52C297.126 312.115 299.261 313.585 299.261 317.12C299.261 321.11 295.131 323.35 289.461 323.35ZM306.773 323H300.333L303.483 304.94H309.923L306.773 323ZM307.158 303.26C305.128 303.26 303.938 302.07 303.938 300.565C303.938 298.43 305.373 296.89 307.998 296.89C310.028 296.89 311.218 298.08 311.218 299.585C311.218 301.72 309.783 303.26 307.158 303.26ZM317.366 322.3C312.921 322.3 310.436 319.15 310.436 315.405C310.436 309.07 313.831 304.59 319.781 304.59C322.231 304.59 323.876 305.57 324.716 307.53L325.171 304.94H331.261L328.391 321.25C327.236 327.9 323.421 330.21 317.541 330.21C313.306 330.21 309.701 328.775 309.701 324.365C309.701 324.085 309.701 323.805 309.736 323.49H315.616C315.616 325.1 316.386 326.08 318.276 326.08C320.131 326.08 321.321 325.1 321.636 323.14L322.091 320.445C321.181 321.425 319.571 322.3 317.366 322.3ZM319.326 317.82C321.776 317.82 323.386 314.74 323.386 311.905C323.386 310.225 322.546 309.07 320.936 309.07C318.486 309.07 316.876 312.15 316.876 314.985C316.876 316.665 317.716 317.82 319.326 317.82ZM348.424 323H341.984L343.839 312.395C343.874 312.115 343.909 311.835 343.909 311.59C343.909 310.435 343.384 309.77 342.334 309.77C340.584 309.77 339.429 311.03 339.044 313.305L337.364 323H330.924L334.074 304.94H340.164L339.779 307.215C341.039 305.5 342.789 304.59 344.994 304.59C348.564 304.59 350.664 306.445 350.664 309.63C350.664 310.085 350.594 310.575 350.524 311.065L348.424 323ZM357.666 323H351.226L354.376 304.94H360.816L357.666 323ZM358.051 303.26C356.021 303.26 354.831 302.07 354.831 300.565C354.831 298.43 356.266 296.89 358.891 296.89C360.921 296.89 362.111 298.08 362.111 299.585C362.111 301.72 360.676 303.26 358.051 303.26ZM377.955 323H371.515L373.37 312.395C373.405 312.115 373.44 311.835 373.44 311.59C373.44 310.435 372.915 309.77 371.865 309.77C370.115 309.77 368.96 311.03 368.575 313.305L366.895 323H360.455L363.605 304.94H369.695L369.31 307.215C370.57 305.5 372.32 304.59 374.525 304.59C378.095 304.59 380.195 306.445 380.195 309.63C380.195 310.085 380.125 310.575 380.055 311.065L377.955 323ZM388.563 322.3C384.118 322.3 381.633 319.15 381.633 315.405C381.633 309.07 385.028 304.59 390.978 304.59C393.428 304.59 395.073 305.57 395.913 307.53L396.368 304.94H402.458L399.588 321.25C398.433 327.9 394.618 330.21 388.738 330.21C384.503 330.21 380.898 328.775 380.898 324.365C380.898 324.085 380.898 323.805 380.933 323.49H386.813C386.813 325.1 387.583 326.08 389.473 326.08C391.328 326.08 392.518 325.1 392.833 323.14L393.288 320.445C392.378 321.425 390.768 322.3 388.563 322.3ZM390.523 317.82C392.973 317.82 394.583 314.74 394.583 311.905C394.583 310.225 393.743 309.07 392.133 309.07C389.683 309.07 388.073 312.15 388.073 314.985C388.073 316.665 388.913 317.82 390.523 317.82ZM418.955 323.21C414.965 323.21 413.215 322.125 413.215 319.08C413.215 318.45 413.285 317.75 413.425 316.945L414.755 309.42H412.2L412.97 304.94H415.525L416.505 299.48H422.945L421.965 304.94H425.36L424.59 309.42H421.195L419.83 317.19C419.795 317.365 419.795 317.505 419.795 317.645C419.795 318.38 420.215 318.73 421.09 318.73H422.945L422.21 323C421.335 323.07 419.9 323.21 418.955 323.21ZM442.008 323H435.568L437.423 312.395C437.458 312.115 437.493 311.835 437.493 311.59C437.493 310.435 436.968 309.77 435.918 309.77C434.168 309.77 433.013 311.03 432.628 313.305L430.948 323H424.508L428.883 298.08H435.323L433.818 306.69C434.833 305.5 436.373 304.59 438.578 304.59C442.148 304.59 444.248 306.445 444.248 309.63C444.248 310.085 444.178 310.575 444.108 311.065L442.008 323ZM454.19 323.35C448.66 323.35 445.545 320.445 445.545 315.93C445.545 308.615 450.34 304.59 456.57 304.59C461.68 304.59 465.005 307.39 465.005 312.01C465.005 313.165 464.795 314.32 464.445 315.475H451.845C451.81 315.755 451.81 316 451.81 316.245C451.81 318.065 452.755 319.08 454.61 319.08C456.08 319.08 457.235 318.45 457.9 317.05H463.885C462.835 320.83 459.72 323.35 454.19 323.35ZM456.15 308.86C454.4 308.86 453.21 309.735 452.545 311.415H458.845C458.74 309.735 457.9 308.86 456.15 308.86ZM260.34 365H253.9L257.05 346.94H263.14L262.51 350.475C263.665 347.71 265.275 346.66 267.55 346.66C268.04 346.66 269.265 346.8 269.51 346.94L268.53 352.54H266.22C263.77 352.54 262.23 354.15 261.74 356.95L260.34 365ZM274.9 365H268.46L271.61 346.94H278.05L274.9 365ZM275.285 345.26C273.255 345.26 272.065 344.07 272.065 342.565C272.065 340.43 273.5 338.89 276.125 338.89C278.155 338.89 279.345 340.08 279.345 341.585C279.345 343.72 277.91 345.26 275.285 345.26ZM285.494 364.3C281.049 364.3 278.564 361.15 278.564 357.405C278.564 351.07 281.959 346.59 287.909 346.59C290.359 346.59 292.004 347.57 292.844 349.53L293.299 346.94H299.389L296.519 363.25C295.364 369.9 291.549 372.21 285.669 372.21C281.434 372.21 277.829 370.775 277.829 366.365C277.829 366.085 277.829 365.805 277.864 365.49H283.744C283.744 367.1 284.514 368.08 286.404 368.08C288.259 368.08 289.449 367.1 289.764 365.14L290.219 362.445C289.309 363.425 287.699 364.3 285.494 364.3ZM287.454 359.82C289.904 359.82 291.514 356.74 291.514 353.905C291.514 352.225 290.674 351.07 289.064 351.07C286.614 351.07 285.004 354.15 285.004 356.985C285.004 358.665 285.844 359.82 287.454 359.82ZM316.551 365H310.111L311.966 354.395C312.001 354.115 312.036 353.835 312.036 353.59C312.036 352.435 311.511 351.77 310.461 351.77C308.711 351.77 307.556 353.03 307.171 355.305L305.491 365H299.051L303.426 340.08H309.866L308.361 348.69C309.376 347.5 310.916 346.59 313.121 346.59C316.691 346.59 318.791 348.445 318.791 351.63C318.791 352.085 318.721 352.575 318.651 353.065L316.551 365ZM327.097 365.21C323.107 365.21 321.357 364.125 321.357 361.08C321.357 360.45 321.427 359.75 321.567 358.945L322.897 351.42H320.342L321.112 346.94H323.667L324.647 341.48H331.087L330.107 346.94H333.502L332.732 351.42H329.337L327.972 359.19C327.937 359.365 327.937 359.505 327.937 359.645C327.937 360.38 328.357 360.73 329.232 360.73H331.087L330.352 365C329.477 365.07 328.042 365.21 327.097 365.21ZM349.485 365.21C345.495 365.21 343.745 364.125 343.745 361.08C343.745 360.45 343.815 359.75 343.955 358.945L345.285 351.42H342.73L343.5 346.94H346.055L347.035 341.48H353.475L352.495 346.94H355.89L355.12 351.42H351.725L350.36 359.19C350.325 359.365 350.325 359.505 350.325 359.645C350.325 360.38 350.745 360.73 351.62 360.73H353.475L352.74 365C351.865 365.07 350.43 365.21 349.485 365.21ZM372.537 365H366.097L367.952 354.395C367.987 354.115 368.022 353.835 368.022 353.59C368.022 352.435 367.497 351.77 366.447 351.77C364.697 351.77 363.542 353.03 363.157 355.305L361.477 365H355.037L359.412 340.08H365.852L364.347 348.69C365.362 347.5 366.902 346.59 369.107 346.59C372.677 346.59 374.777 348.445 374.777 351.63C374.777 352.085 374.707 352.575 374.637 353.065L372.537 365ZM381.78 365H375.34L378.49 346.94H384.93L381.78 365ZM382.165 345.26C380.135 345.26 378.945 344.07 378.945 342.565C378.945 340.43 380.38 338.89 383.005 338.89C385.035 338.89 386.225 340.08 386.225 341.585C386.225 343.72 384.79 345.26 382.165 345.26ZM402.069 365H395.629L397.484 354.395C397.519 354.115 397.554 353.835 397.554 353.59C397.554 352.435 397.029 351.77 395.979 351.77C394.229 351.77 393.074 353.03 392.689 355.305L391.009 365H384.569L387.719 346.94H393.809L393.424 349.215C394.684 347.5 396.434 346.59 398.639 346.59C402.209 346.59 404.309 348.445 404.309 351.63C404.309 352.085 404.239 352.575 404.169 353.065L402.069 365ZM412.676 364.3C408.231 364.3 405.746 361.15 405.746 357.405C405.746 351.07 409.141 346.59 415.091 346.59C417.541 346.59 419.186 347.57 420.026 349.53L420.481 346.94H426.571L423.701 363.25C422.546 369.9 418.731 372.21 412.851 372.21C408.616 372.21 405.011 370.775 405.011 366.365C405.011 366.085 405.011 365.805 405.046 365.49H410.926C410.926 367.1 411.696 368.08 413.586 368.08C415.441 368.08 416.631 367.1 416.946 365.14L417.401 362.445C416.491 363.425 414.881 364.3 412.676 364.3ZM414.636 359.82C417.086 359.82 418.696 356.74 418.696 353.905C418.696 352.225 417.856 351.07 416.246 351.07C413.796 351.07 412.186 354.15 412.186 356.985C412.186 358.665 413.026 359.82 414.636 359.82ZM434.879 365.35C429.734 365.35 426.479 363.25 426.479 359.96C426.479 359.645 426.479 359.365 426.549 359.05H432.639C432.639 360.59 433.864 361.22 435.544 361.22C437.329 361.22 438.239 360.45 438.239 359.61C438.239 359.05 437.819 358.7 436.314 358.49L433.829 358.14C430.049 357.615 428.194 356.11 428.194 352.855C428.194 348.795 432.254 346.59 437.504 346.59C441.074 346.59 445.379 347.85 445.379 351.77C445.379 352.05 445.344 352.33 445.309 352.61H439.219C439.219 351.245 438.379 350.72 436.839 350.72C435.579 350.72 434.634 351.28 434.634 352.19C434.634 352.75 434.739 352.995 435.894 353.17L438.379 353.52C442.544 354.115 444.679 355.585 444.679 359.12C444.679 363.11 440.549 365.35 434.879 365.35Z" fill="url(#paint0_linear_888_2275)"/>
</g>
<rect x="81.2141" y="331.715" width="379.718" height="379.718" rx="24.8486" transform="rotate(-45 81.2141 331.715)" stroke="white" stroke-width="0.302821"/>
<g clip-path="url(#clip2_888_2275)">
<rect x="618" y="331.715" width="380.021" height="380.021" rx="25" transform="rotate(-45 618 331.715)" fill="black" fill-opacity="0.5"/>
<g filter="url(#filter2_f_888_2275)">
<path d="M1158 385.582C1158 514.154 1061.59 564.6 999.401 564.6C937.213 564.6 886.8 460.372 886.8 331.8C886.8 203.228 937.213 99 999.401 99C1061.59 99 1158 257.01 1158 385.582Z" fill="#009252" fill-opacity="0.3"/>
</g>
<g filter="url(#filter3_f_888_2275)">
<path d="M618 385.582C618 514.154 714.412 564.6 776.6 564.6C838.787 564.6 889.2 460.372 889.2 331.8C889.2 203.228 838.787 99 776.6 99C714.412 99 618 257.01 618 385.582Z" fill="#00829B" fill-opacity="0.3"/>
</g>
<path d="M796.043 307.88C796.043 317.19 791.108 323 781.168 323H770.178L774.553 298.08H784.598C791.808 298.08 796.043 301.51 796.043 307.88ZM789.253 308.44C789.253 305.185 787.258 303.4 784.493 303.4H780.398L777.878 317.68H781.973C786.663 317.68 789.253 313.515 789.253 308.44ZM805.184 323.35C799.654 323.35 796.539 320.445 796.539 315.93C796.539 308.615 801.334 304.59 807.564 304.59C812.674 304.59 815.999 307.39 815.999 312.01C815.999 313.165 815.789 314.32 815.439 315.475H802.839C802.804 315.755 802.804 316 802.804 316.245C802.804 318.065 803.749 319.08 805.604 319.08C807.074 319.08 808.229 318.45 808.894 317.05H814.879C813.829 320.83 810.714 323.35 805.184 323.35ZM807.144 308.86C805.394 308.86 804.204 309.735 803.539 311.415H809.839C809.734 309.735 808.894 308.86 807.144 308.86ZM822.821 323H816.381L820.756 298.08H827.196L822.821 323ZM832.049 323H825.609L828.759 304.94H835.199L832.049 323ZM832.434 303.26C830.404 303.26 829.214 302.07 829.214 300.565C829.214 298.43 830.649 296.89 833.274 296.89C835.304 296.89 836.494 298.08 836.494 299.585C836.494 301.72 835.059 303.26 832.434 303.26ZM847.508 323H839.668L836.588 304.94H843.028L844.253 317.47L849.888 304.94H856.888L847.508 323ZM863.905 323.35C858.375 323.35 855.26 320.445 855.26 315.93C855.26 308.615 860.055 304.59 866.285 304.59C871.395 304.59 874.72 307.39 874.72 312.01C874.72 313.165 874.51 314.32 874.16 315.475H861.56C861.525 315.755 861.525 316 861.525 316.245C861.525 318.065 862.47 319.08 864.325 319.08C865.795 319.08 866.95 318.45 867.615 317.05H873.6C872.55 320.83 869.435 323.35 863.905 323.35ZM865.865 308.86C864.115 308.86 862.925 309.735 862.26 311.415H868.56C868.455 309.735 867.615 308.86 865.865 308.86ZM881.541 323H875.101L878.251 304.94H884.341L883.711 308.475C884.866 305.71 886.476 304.66 888.751 304.66C889.241 304.66 890.466 304.8 890.711 304.94L889.731 310.54H887.421C884.971 310.54 883.431 312.15 882.941 314.95L881.541 323ZM896.102 323H889.662L892.812 304.94H899.252L896.102 323ZM896.487 303.26C894.457 303.26 893.267 302.07 893.267 300.565C893.267 298.43 894.702 296.89 897.327 296.89C899.357 296.89 900.547 298.08 900.547 299.585C900.547 301.72 899.112 303.26 896.487 303.26ZM916.39 323H909.95L911.805 312.395C911.84 312.115 911.875 311.835 911.875 311.59C911.875 310.435 911.35 309.77 910.3 309.77C908.55 309.77 907.395 311.03 907.01 313.305L905.33 323H898.89L902.04 304.94H908.13L907.745 307.215C909.005 305.5 910.755 304.59 912.96 304.59C916.53 304.59 918.63 306.445 918.63 309.63C918.63 310.085 918.56 310.575 918.49 311.065L916.39 323ZM926.998 322.3C922.553 322.3 920.068 319.15 920.068 315.405C920.068 309.07 923.463 304.59 929.413 304.59C931.863 304.59 933.508 305.57 934.348 307.53L934.803 304.94H940.893L938.023 321.25C936.868 327.9 933.053 330.21 927.173 330.21C922.938 330.21 919.333 328.775 919.333 324.365C919.333 324.085 919.333 323.805 919.368 323.49H925.248C925.248 325.1 926.018 326.08 927.908 326.08C929.763 326.08 930.953 325.1 931.268 323.14L931.723 320.445C930.813 321.425 929.203 322.3 926.998 322.3ZM928.958 317.82C931.408 317.82 933.018 314.74 933.018 311.905C933.018 310.225 932.178 309.07 930.568 309.07C928.118 309.07 926.508 312.15 926.508 314.985C926.508 316.665 927.348 317.82 928.958 317.82ZM957.39 323.21C953.4 323.21 951.65 322.125 951.65 319.08C951.65 318.45 951.72 317.75 951.86 316.945L953.19 309.42H950.635L951.405 304.94H953.96L954.94 299.48H961.38L960.4 304.94H963.795L963.025 309.42H959.63L958.265 317.19C958.23 317.365 958.23 317.505 958.23 317.645C958.23 318.38 958.65 318.73 959.525 318.73H961.38L960.645 323C959.77 323.07 958.335 323.21 957.39 323.21ZM980.443 323H974.003L975.858 312.395C975.893 312.115 975.928 311.835 975.928 311.59C975.928 310.435 975.403 309.77 974.353 309.77C972.603 309.77 971.448 311.03 971.063 313.305L969.383 323H962.943L967.318 298.08H973.758L972.253 306.69C973.268 305.5 974.808 304.59 977.013 304.59C980.583 304.59 982.683 306.445 982.683 309.63C982.683 310.085 982.613 310.575 982.543 311.065L980.443 323ZM992.626 323.35C987.096 323.35 983.981 320.445 983.981 315.93C983.981 308.615 988.776 304.59 995.006 304.59C1000.12 304.59 1003.44 307.39 1003.44 312.01C1003.44 313.165 1003.23 314.32 1002.88 315.475H990.281C990.246 315.755 990.246 316 990.246 316.245C990.246 318.065 991.191 319.08 993.046 319.08C994.516 319.08 995.671 318.45 996.336 317.05H1002.32C1001.27 320.83 998.156 323.35 992.626 323.35ZM994.586 308.86C992.836 308.86 991.646 309.735 990.981 311.415H997.281C997.176 309.735 996.336 308.86 994.586 308.86ZM798.985 365.21C794.995 365.21 793.245 364.125 793.245 361.08C793.245 360.45 793.315 359.75 793.455 358.945L794.785 351.42H792.23L793 346.94H795.555L796.535 341.48H802.975L801.995 346.94H805.39L804.62 351.42H801.225L799.86 359.19C799.825 359.365 799.825 359.505 799.825 359.645C799.825 360.38 800.245 360.73 801.12 360.73H802.975L802.24 365C801.365 365.07 799.93 365.21 798.985 365.21ZM822.037 365H815.597L817.452 354.395C817.487 354.115 817.522 353.835 817.522 353.59C817.522 352.435 816.997 351.77 815.947 351.77C814.197 351.77 813.042 353.03 812.657 355.305L810.977 365H804.537L808.912 340.08H815.352L813.847 348.69C814.862 347.5 816.402 346.59 818.607 346.59C822.177 346.59 824.277 348.445 824.277 351.63C824.277 352.085 824.207 352.575 824.137 353.065L822.037 365ZM831.28 365H824.84L827.99 346.94H834.43L831.28 365ZM831.665 345.26C829.635 345.26 828.445 344.07 828.445 342.565C828.445 340.43 829.88 338.89 832.505 338.89C834.535 338.89 835.725 340.08 835.725 341.585C835.725 343.72 834.29 345.26 831.665 345.26ZM851.569 365H845.129L846.984 354.395C847.019 354.115 847.054 353.835 847.054 353.59C847.054 352.435 846.529 351.77 845.479 351.77C843.729 351.77 842.574 353.03 842.189 355.305L840.509 365H834.069L837.219 346.94H843.309L842.924 349.215C844.184 347.5 845.934 346.59 848.139 346.59C851.709 346.59 853.809 348.445 853.809 351.63C853.809 352.085 853.739 352.575 853.669 353.065L851.569 365ZM862.176 364.3C857.731 364.3 855.246 361.15 855.246 357.405C855.246 351.07 858.641 346.59 864.591 346.59C867.041 346.59 868.686 347.57 869.526 349.53L869.981 346.94H876.071L873.201 363.25C872.046 369.9 868.231 372.21 862.351 372.21C858.116 372.21 854.511 370.775 854.511 366.365C854.511 366.085 854.511 365.805 854.546 365.49H860.426C860.426 367.1 861.196 368.08 863.086 368.08C864.941 368.08 866.131 367.1 866.446 365.14L866.901 362.445C865.991 363.425 864.381 364.3 862.176 364.3ZM864.136 359.82C866.586 359.82 868.196 356.74 868.196 353.905C868.196 352.225 867.356 351.07 865.746 351.07C863.296 351.07 861.686 354.15 861.686 356.985C861.686 358.665 862.526 359.82 864.136 359.82ZM884.379 365.35C879.234 365.35 875.979 363.25 875.979 359.96C875.979 359.645 875.979 359.365 876.049 359.05H882.139C882.139 360.59 883.364 361.22 885.044 361.22C886.829 361.22 887.739 360.45 887.739 359.61C887.739 359.05 887.319 358.7 885.814 358.49L883.329 358.14C879.549 357.615 877.694 356.11 877.694 352.855C877.694 348.795 881.754 346.59 887.004 346.59C890.574 346.59 894.879 347.85 894.879 351.77C894.879 352.05 894.844 352.33 894.809 352.61H888.719C888.719 351.245 887.879 350.72 886.339 350.72C885.079 350.72 884.134 351.28 884.134 352.19C884.134 352.75 884.239 352.995 885.394 353.17L887.879 353.52C892.044 354.115 894.179 355.585 894.179 359.12C894.179 363.11 890.049 365.35 884.379 365.35ZM910.44 365H904L907.15 346.94H913.24L912.61 350.475C913.765 347.71 915.375 346.66 917.65 346.66C918.14 346.66 919.365 346.8 919.61 346.94L918.63 352.54H916.32C913.87 352.54 912.33 354.15 911.84 356.95L910.44 365ZM925.001 365H918.561L921.711 346.94H928.151L925.001 365ZM925.386 345.26C923.356 345.26 922.166 344.07 922.166 342.565C922.166 340.43 923.601 338.89 926.226 338.89C928.256 338.89 929.446 340.08 929.446 341.585C929.446 343.72 928.011 345.26 925.386 345.26ZM935.594 364.3C931.149 364.3 928.664 361.15 928.664 357.405C928.664 351.07 932.059 346.59 938.009 346.59C940.459 346.59 942.104 347.57 942.944 349.53L943.399 346.94H949.489L946.619 363.25C945.464 369.9 941.649 372.21 935.769 372.21C931.534 372.21 927.929 370.775 927.929 366.365C927.929 366.085 927.929 365.805 927.964 365.49H933.844C933.844 367.1 934.614 368.08 936.504 368.08C938.359 368.08 939.549 367.1 939.864 365.14L940.319 362.445C939.409 363.425 937.799 364.3 935.594 364.3ZM937.554 359.82C940.004 359.82 941.614 356.74 941.614 353.905C941.614 352.225 940.774 351.07 939.164 351.07C936.714 351.07 935.104 354.15 935.104 356.985C935.104 358.665 935.944 359.82 937.554 359.82ZM966.652 365H960.212L962.067 354.395C962.102 354.115 962.137 353.835 962.137 353.59C962.137 352.435 961.612 351.77 960.562 351.77C958.812 351.77 957.657 353.03 957.272 355.305L955.592 365H949.152L953.527 340.08H959.967L958.462 348.69C959.477 347.5 961.017 346.59 963.222 346.59C966.792 346.59 968.892 348.445 968.892 351.63C968.892 352.085 968.822 352.575 968.752 353.065L966.652 365ZM977.198 365.21C973.208 365.21 971.458 364.125 971.458 361.08C971.458 360.45 971.528 359.75 971.668 358.945L972.998 351.42H970.443L971.213 346.94H973.768L974.748 341.48H981.188L980.208 346.94H983.603L982.833 351.42H979.438L978.073 359.19C978.038 359.365 978.038 359.505 978.038 359.645C978.038 360.38 978.458 360.73 979.333 360.73H981.188L980.453 365C979.578 365.07 978.143 365.21 977.198 365.21Z" fill="url(#paint1_linear_888_2275)"/>
</g>
<rect x="618.214" y="331.715" width="379.718" height="379.718" rx="24.8486" transform="rotate(-45 618.214 331.715)" stroke="white" stroke-width="0.302821"/>
<line x1="80.5" y1="565.309" x2="80.5" y2="98.9986" stroke="white" stroke-dasharray="2 6"/>
<line x1="617.5" y1="780" x2="617.5" y2="99" stroke="white" stroke-dasharray="2 6"/>
<line x1="135.989" y1="800" x2="1305.01" y2="800" stroke="white" stroke-dasharray="2 6"/>
<line x1="349.5" y1="779" x2="349.5" y2="568" stroke="white" stroke-dasharray="2 6"/>
<line x1="886.5" y1="780" x2="886.5" y2="569" stroke="white" stroke-dasharray="2 6"/>
<line x1="1148.5" y1="783.027" x2="1148.5" y2="107.999" stroke="white" stroke-dasharray="2 6"/>
<path d="M1147.32 332.279C1344.43 327.499 1473.2 88.2808 1438.64 125.288" stroke="#34BDFE" stroke-width="5.2178"/>
<path d="M1148.85 333.278C1291.51 469.376 1551.77 391.456 1501.17 393.153" stroke="#34BDFE" stroke-width="5.2178"/>
<path d="M1161.08 339.373C1324.35 449.923 1568.08 329.915 1518.46 339.983" stroke="#34BDFE" stroke-width="5.2178"/>
<path d="M1167.86 336.568C1349.72 412.755 1565 247.044 1518.34 266.699" stroke="#34BDFE" stroke-width="5.2178"/>
<path d="M1148.85 336.304C1291.51 200.206 1551.77 278.126 1501.17 276.429" stroke="#34BDFE" stroke-width="5.2178"/>
<path d="M1161.08 330.209C1324.35 219.659 1568.08 339.667 1518.46 329.599" stroke="#34BDFE" stroke-width="5.2178"/>
<path d="M1167.86 333.01C1349.72 256.823 1565 422.534 1518.34 402.88" stroke="#34BDFE" stroke-width="5.2178"/>
<path d="M1149.13 334.547C1345.71 349.765 1498.06 124.826 1459.93 158.14" stroke="#34BDFE" stroke-width="5.2178"/>
<path d="M1154.25 329.184C1348.28 364.233 1522.62 155.879 1481.32 185.161" stroke="#34BDFE" stroke-width="5.2178"/>
<path d="M1141.36 334.303C1338.47 339.083 1467.24 578.301 1432.68 541.294" stroke="#34BDFE" stroke-width="5.2178"/>
<path d="M1183.97 329.081C1360.84 319.481 1459.46 537.277 1431.05 504.634" stroke="#34BDFE" stroke-width="5.2178"/>
<path d="M1169.18 334.303C1346.06 324.704 1444.68 542.499 1416.26 509.856" stroke="#34BDFE" stroke-width="5.2178"/>
<path d="M290.261 682.5L323.257 719.162L290.269 754.189H91.5V682.5H290.261Z" fill="#0A1613" stroke="url(#paint2_linear_888_2275)"/>
<path d="M147.203 715.511C147.203 723.201 143.126 728 134.916 728H125.838L129.452 707.416H137.749C143.705 707.416 147.203 710.249 147.203 715.511ZM141.594 715.973C141.594 713.284 139.946 711.81 137.662 711.81H134.28L132.198 723.606H135.581C139.455 723.606 141.594 720.165 141.594 715.973ZM152.326 728H147.006L149.608 713.082H154.927L152.326 728ZM152.644 711.694C150.967 711.694 149.984 710.711 149.984 709.468C149.984 707.705 151.169 706.433 153.337 706.433C155.014 706.433 155.997 707.416 155.997 708.659C155.997 710.422 154.812 711.694 152.644 711.694ZM161.77 728.289C157.52 728.289 154.831 726.554 154.831 723.837C154.831 723.577 154.831 723.345 154.889 723.085H159.92C159.92 724.357 160.931 724.878 162.319 724.878C163.794 724.878 164.545 724.242 164.545 723.548C164.545 723.085 164.198 722.796 162.955 722.623L160.902 722.334C157.78 721.9 156.248 720.657 156.248 717.968C156.248 714.614 159.602 712.793 163.938 712.793C166.887 712.793 170.443 713.834 170.443 717.072C170.443 717.303 170.414 717.534 170.385 717.766H165.355C165.355 716.638 164.661 716.204 163.389 716.204C162.348 716.204 161.567 716.667 161.567 717.419C161.567 717.881 161.654 718.084 162.608 718.228L164.661 718.517C168.101 719.009 169.865 720.223 169.865 723.143C169.865 726.439 166.453 728.289 161.77 728.289ZM178.498 728.289C174.161 728.289 171.357 725.976 171.357 722.16C171.357 716.118 175.029 712.793 180.637 712.793C185.234 712.793 187.547 715.25 187.547 718.113C187.547 718.459 187.489 718.806 187.431 719.153H182.43C182.43 717.968 181.852 716.783 180.233 716.783C177.92 716.783 176.677 719.182 176.677 721.813C176.677 723.49 177.573 724.299 178.903 724.299C180.001 724.299 181.389 723.721 181.967 721.813H186.969C186.304 725.629 183.76 728.289 178.498 728.289ZM195.504 724.299C197.528 724.299 199.06 721.9 199.06 719.269C199.06 717.592 198.164 716.783 196.834 716.783C194.81 716.783 193.278 719.182 193.278 721.813C193.278 723.49 194.174 724.299 195.504 724.299ZM195.099 728.289C190.762 728.289 187.958 725.976 187.958 722.16C187.958 716.118 191.919 712.793 197.238 712.793C201.575 712.793 204.379 715.106 204.379 718.922C204.379 724.964 200.419 728.289 195.099 728.289ZM213.938 728H207.462L204.918 713.082H210.237L211.249 723.432L215.904 713.082H221.686L213.938 728ZM227.482 728.289C222.915 728.289 220.341 725.89 220.341 722.16C220.341 716.118 224.302 712.793 229.448 712.793C233.669 712.793 236.416 715.106 236.416 718.922C236.416 719.876 236.242 720.83 235.953 721.784H225.545C225.516 722.015 225.516 722.218 225.516 722.42C225.516 723.924 226.297 724.762 227.829 724.762C229.044 724.762 229.998 724.242 230.547 723.085H235.491C234.623 726.208 232.05 728.289 227.482 728.289ZM229.101 716.32C227.656 716.32 226.673 717.043 226.124 718.431H231.328C231.241 717.043 230.547 716.32 229.101 716.32ZM242.05 728H236.731L239.333 713.082H244.363L243.843 716.002C244.797 713.718 246.127 712.851 248.006 712.851C248.411 712.851 249.422 712.966 249.625 713.082L248.815 717.708H246.907C244.883 717.708 243.611 719.038 243.207 721.351L242.05 728Z" fill="url(#paint3_linear_888_2275)"/>
<path d="M567.261 682.5L600.257 719.162L567.269 754.189H369.369L410.449 719.553L410.893 719.18L410.458 718.796L369.322 682.5H567.261Z" fill="#0A1613" stroke="url(#paint4_linear_888_2275)"/>
<path d="M460.548 715.511C460.548 723.201 456.471 728 448.261 728H439.183L442.796 707.416H451.094C457.049 707.416 460.548 710.249 460.548 715.511ZM454.939 715.973C454.939 713.284 453.291 711.81 451.007 711.81H447.625L445.543 723.606H448.926C452.8 723.606 454.939 720.165 454.939 715.973ZM468.099 728.289C463.531 728.289 460.958 725.89 460.958 722.16C460.958 716.118 464.919 712.793 470.065 712.793C474.286 712.793 477.032 715.106 477.032 718.922C477.032 719.876 476.859 720.83 476.57 721.784H466.162C466.133 722.015 466.133 722.218 466.133 722.42C466.133 723.924 466.913 724.762 468.446 724.762C469.66 724.762 470.614 724.242 471.163 723.085H476.107C475.24 726.208 472.667 728.289 468.099 728.289ZM469.718 716.32C468.272 716.32 467.289 717.043 466.74 718.431H471.944C471.857 717.043 471.163 716.32 469.718 716.32ZM483.627 728H478.308L480.274 716.783H478.163L478.799 713.082H480.939L481.054 712.417C481.69 708.803 483.194 707.242 486.865 707.242C487.935 707.242 489.352 707.358 490.046 707.416L489.438 710.943H487.906C487.039 710.943 486.547 711.376 486.403 712.244L486.258 713.082H489.034L488.398 716.783H485.593L483.627 728ZM493.48 728H488.16L490.762 713.082H496.082L493.48 728ZM493.798 711.694C492.121 711.694 491.138 710.711 491.138 709.468C491.138 707.705 492.323 706.433 494.492 706.433C496.169 706.433 497.151 707.416 497.151 708.659C497.151 710.422 495.966 711.694 493.798 711.694ZM510.239 728H504.919L506.451 719.24C506.48 719.009 506.509 718.777 506.509 718.575C506.509 717.621 506.075 717.072 505.208 717.072C503.763 717.072 502.808 718.113 502.49 719.992L501.103 728H495.783L498.385 713.082H503.416L503.098 714.961C504.138 713.545 505.584 712.793 507.405 712.793C510.354 712.793 512.089 714.325 512.089 716.956C512.089 717.332 512.031 717.737 511.973 718.141L510.239 728ZM520.302 728.289C515.734 728.289 513.161 725.89 513.161 722.16C513.161 716.118 517.122 712.793 522.268 712.793C526.489 712.793 529.235 715.106 529.235 718.922C529.235 719.876 529.062 720.83 528.773 721.784H518.365C518.336 722.015 518.336 722.218 518.336 722.42C518.336 723.924 519.116 724.762 520.649 724.762C521.863 724.762 522.817 724.242 523.366 723.085H528.31C527.443 726.208 524.87 728.289 520.302 728.289ZM521.921 716.32C520.475 716.32 519.492 717.043 518.943 718.431H524.147C524.06 717.043 523.366 716.32 521.921 716.32Z" fill="url(#paint5_linear_888_2275)"/>
<path d="M837.261 682.5L870.257 719.162L837.269 754.189H639.369L680.449 719.553L680.893 719.18L680.458 718.796L639.322 682.5H837.261Z" fill="#0A1613" stroke="url(#paint6_linear_888_2275)"/>
<path d="M722.906 715.511C722.906 723.201 718.83 728 710.619 728H701.541L705.155 707.416H713.452C719.408 707.416 722.906 710.249 722.906 715.511ZM717.297 715.973C717.297 713.284 715.65 711.81 713.366 711.81H709.983L707.902 723.606H711.284C715.158 723.606 717.297 720.165 717.297 715.973ZM730.457 728.289C725.889 728.289 723.316 725.89 723.316 722.16C723.316 716.118 727.277 712.793 732.423 712.793C736.644 712.793 739.391 715.106 739.391 718.922C739.391 719.876 739.217 720.83 738.928 721.784H728.52C728.491 722.015 728.491 722.218 728.491 722.42C728.491 723.924 729.272 724.762 730.804 724.762C732.018 724.762 732.972 724.242 733.522 723.085H738.466C737.598 726.208 735.025 728.289 730.457 728.289ZM732.076 716.32C730.631 716.32 729.648 717.043 729.098 718.431H734.302C734.216 717.043 733.522 716.32 732.076 716.32ZM748.957 728H742.481L739.937 713.082H745.257L746.268 723.432L750.923 713.082H756.705L748.957 728ZM762.502 728.289C757.934 728.289 755.361 725.89 755.361 722.16C755.361 716.118 759.322 712.793 764.468 712.793C768.689 712.793 771.435 715.106 771.435 718.922C771.435 719.876 771.262 720.83 770.973 721.784H760.565C760.536 722.015 760.536 722.218 760.536 722.42C760.536 723.924 761.316 724.762 762.849 724.762C764.063 724.762 765.017 724.242 765.566 723.085H770.51C769.643 726.208 767.07 728.289 762.502 728.289ZM764.121 716.32C762.675 716.32 761.692 717.043 761.143 718.431H766.347C766.26 717.043 765.566 716.32 764.121 716.32ZM777.07 728H771.75L775.364 707.416H780.683L777.07 728ZM787.526 724.299C789.55 724.299 791.082 721.9 791.082 719.269C791.082 717.592 790.186 716.783 788.856 716.783C786.832 716.783 785.3 719.182 785.3 721.813C785.3 723.49 786.196 724.299 787.526 724.299ZM787.121 728.289C782.784 728.289 779.98 725.976 779.98 722.16C779.98 716.118 783.941 712.793 789.26 712.793C793.597 712.793 796.401 715.106 796.401 718.922C796.401 724.964 792.441 728.289 787.121 728.289ZM806.191 728.289C804.369 728.289 802.982 727.595 802.317 726.265L801.016 733.666H795.696L799.31 713.082H804.341L804.022 714.961C805.063 713.545 806.509 712.793 808.33 712.793C812.117 712.793 814.026 715.626 814.026 718.922C814.026 724.155 811.106 728.289 806.191 728.289ZM805.295 724.299C807.318 724.299 808.706 721.9 808.706 719.269C808.706 717.592 807.954 716.783 806.624 716.783C804.601 716.783 803.213 719.182 803.213 721.813C803.213 723.49 803.965 724.299 805.295 724.299Z" fill="url(#paint7_linear_888_2275)"/>
<path d="M1101.26 682.5L1134.26 719.162L1101.27 754.189H903.369L944.449 719.553L944.893 719.18L944.458 718.796L903.322 682.5H1101.26Z" fill="#0A1613" stroke="url(#paint8_linear_888_2275)"/>
<path d="M994.548 715.511C994.548 723.201 990.471 728 982.261 728H973.183L976.796 707.416H985.094C991.049 707.416 994.548 710.249 994.548 715.511ZM988.939 715.973C988.939 713.284 987.291 711.81 985.007 711.81H981.625L979.543 723.606H982.926C986.8 723.606 988.939 720.165 988.939 715.973ZM1002.1 728.289C997.531 728.289 994.958 725.89 994.958 722.16C994.958 716.118 998.919 712.793 1004.06 712.793C1008.29 712.793 1011.03 715.106 1011.03 718.922C1011.03 719.876 1010.86 720.83 1010.57 721.784H1000.16C1000.13 722.015 1000.13 722.218 1000.13 722.42C1000.13 723.924 1000.91 724.762 1002.45 724.762C1003.66 724.762 1004.61 724.242 1005.16 723.085H1010.11C1009.24 726.208 1006.67 728.289 1002.1 728.289ZM1003.72 716.32C1002.27 716.32 1001.29 717.043 1000.74 718.431H1005.94C1005.86 717.043 1005.16 716.32 1003.72 716.32ZM1016.67 728H1011.35L1014.96 707.416H1020.28L1016.67 728ZM1024.29 728H1018.97L1021.57 713.082H1026.89L1024.29 728ZM1024.61 711.694C1022.93 711.694 1021.95 710.711 1021.95 709.468C1021.95 707.705 1023.13 706.433 1025.3 706.433C1026.98 706.433 1027.96 707.416 1027.96 708.659C1027.96 710.422 1026.78 711.694 1024.61 711.694ZM1037.06 728H1030.58L1028.04 713.082H1033.36L1034.37 723.432L1039.02 713.082H1044.81L1037.06 728ZM1050.6 728.289C1046.04 728.289 1043.46 725.89 1043.46 722.16C1043.46 716.118 1047.42 712.793 1052.57 712.793C1056.79 712.793 1059.54 715.106 1059.54 718.922C1059.54 719.876 1059.36 720.83 1059.07 721.784H1048.67C1048.64 722.015 1048.64 722.218 1048.64 722.42C1048.64 723.924 1049.42 724.762 1050.95 724.762C1052.16 724.762 1053.12 724.242 1053.67 723.085H1058.61C1057.74 726.208 1055.17 728.289 1050.6 728.289ZM1052.22 716.32C1050.78 716.32 1049.79 717.043 1049.24 718.431H1054.45C1054.36 717.043 1053.67 716.32 1052.22 716.32ZM1065.17 728H1059.85L1062.45 713.082H1067.48L1066.96 716.002C1067.92 713.718 1069.25 712.851 1071.13 712.851C1071.53 712.851 1072.54 712.966 1072.75 713.082L1071.94 717.708H1070.03C1068 717.708 1066.73 719.038 1066.33 721.351L1065.17 728Z" fill="url(#paint9_linear_888_2275)"/>
<path d="M1368.26 682.5L1401.26 719.162L1368.27 754.189H1170.37L1211.45 719.553L1211.89 719.18L1211.46 718.796L1170.32 682.5H1368.26Z" fill="#0A1613" stroke="url(#paint10_linear_888_2275)"/>
<path d="M1255.37 728H1239.36L1242.97 707.416H1258.99L1258.18 711.983H1247.77L1247.19 715.366H1256.67L1255.89 719.645H1246.41L1245.75 723.432H1256.15L1255.37 728ZM1267.69 728H1261.21L1258.67 713.082H1263.99L1265 723.432L1269.65 713.082H1275.43L1267.69 728ZM1281.64 724.299C1283.66 724.299 1285.19 721.9 1285.19 719.269C1285.19 717.592 1284.3 716.783 1282.97 716.783C1280.94 716.783 1279.41 719.182 1279.41 721.813C1279.41 723.49 1280.31 724.299 1281.64 724.299ZM1281.23 728.289C1276.89 728.289 1274.09 725.976 1274.09 722.16C1274.09 716.118 1278.05 712.793 1283.37 712.793C1287.71 712.793 1290.51 715.106 1290.51 718.922C1290.51 724.964 1286.55 728.289 1281.23 728.289ZM1296.14 728H1290.82L1294.43 707.416H1299.75L1296.14 728ZM1308.91 728H1302.43L1299.89 713.082H1305.21L1306.22 723.432L1310.87 713.082H1316.66L1308.91 728ZM1322.45 728.289C1317.88 728.289 1315.31 725.89 1315.31 722.16C1315.31 716.118 1319.27 712.793 1324.42 712.793C1328.64 712.793 1331.39 715.106 1331.39 718.922C1331.39 719.876 1331.21 720.83 1330.92 721.784H1320.51C1320.49 722.015 1320.49 722.218 1320.49 722.42C1320.49 723.924 1321.27 724.762 1322.8 724.762C1324.01 724.762 1324.97 724.242 1325.52 723.085H1330.46C1329.59 726.208 1327.02 728.289 1322.45 728.289ZM1324.07 716.32C1322.63 716.32 1321.64 717.043 1321.09 718.431H1326.3C1326.21 717.043 1325.52 716.32 1324.07 716.32Z" fill="url(#paint11_linear_888_2275)"/>
<path d="M320.265 37H318.265L317.025 25.16L311.625 37H309.525L307.805 22.76H309.645L310.925 34.88L316.485 22.76H318.285L319.545 34.88L325.105 22.76H327.005L320.265 37ZM329.067 37.2C326.327 37.2 324.787 35.54 324.787 32.96C324.787 29.4 326.747 26.48 330.427 26.48C333.427 26.48 334.607 28.68 334.607 30.72C334.607 31.3 334.527 31.8 334.447 32.1H326.467C326.407 32.44 326.407 32.74 326.407 33.02C326.407 35 327.447 36.04 329.167 36.04C330.767 36.04 331.927 35.18 332.527 33.86H334.027C333.347 35.92 331.707 37.2 329.067 37.2ZM330.347 27.64C328.567 27.64 327.107 28.74 326.647 30.98H332.967C332.987 30.84 332.987 30.72 332.987 30.58C332.987 28.78 332.007 27.64 330.347 27.64ZM342.904 37H341.244L342.844 27.88H341.084L341.284 26.68H343.064L343.284 25.4C343.604 23.56 344.324 22.66 346.284 22.66C346.724 22.66 347.484 22.72 347.884 22.76L347.704 23.92L346.524 23.88C345.424 23.88 345.104 24.36 344.944 25.36L344.724 26.68H347.184L346.984 27.88H344.504L342.904 37ZM350.983 35.92C353.523 35.92 355.003 33.7 355.003 30.8C355.003 28.86 354.003 27.76 352.283 27.76C349.743 27.76 348.263 29.98 348.263 32.88C348.263 34.82 349.263 35.92 350.983 35.92ZM350.883 37.2C348.203 37.2 346.603 35.58 346.603 32.96C346.603 29.16 348.763 26.48 352.363 26.48C355.063 26.48 356.663 28.1 356.663 30.72C356.663 34.52 354.503 37.2 350.883 37.2ZM359.054 37H357.394L359.894 22.76H361.554L359.054 37ZM362.843 37H361.183L363.683 22.76H365.343L362.843 37ZM369.773 35.92C372.313 35.92 373.793 33.7 373.793 30.8C373.793 28.86 372.793 27.76 371.073 27.76C368.533 27.76 367.053 29.98 367.053 32.88C367.053 34.82 368.053 35.92 369.773 35.92ZM369.673 37.2C366.993 37.2 365.393 35.58 365.393 32.96C365.393 29.16 367.553 26.48 371.153 26.48C373.853 26.48 375.453 28.1 375.453 30.72C375.453 34.52 373.293 37.2 369.673 37.2ZM386.644 37H384.904L383.904 28.82L380.044 37H378.244L376.344 26.68H378.024L379.484 35.14L383.444 26.68H384.964L385.964 35.14L390.384 26.68H392.144L386.644 37ZM400.452 37.1C398.772 37.1 397.912 36.68 397.912 35.38C397.912 35.14 397.932 34.88 397.992 34.6L399.172 27.88H397.412L397.612 26.68H399.392L399.932 23.56H401.592L401.032 26.68H403.512L403.312 27.88H400.832L399.632 34.64C399.592 34.8 399.592 34.96 399.592 35.08C399.592 35.72 399.992 35.88 400.892 35.88L401.912 35.84L401.712 37C401.292 37.04 400.832 37.1 400.452 37.1ZM411.733 37H410.073L411.233 30.44C411.273 30.16 411.293 29.92 411.293 29.68C411.293 28.46 410.593 27.82 409.313 27.82C407.713 27.82 406.333 29 405.973 31.1L404.953 37H403.293L405.793 22.76H407.453L406.473 28.24C407.213 27.16 408.413 26.48 409.793 26.48C411.793 26.48 413.013 27.44 413.013 29.3C413.013 29.56 412.993 29.88 412.933 30.18L411.733 37ZM418.559 37.2C415.819 37.2 414.279 35.54 414.279 32.96C414.279 29.4 416.239 26.48 419.919 26.48C422.919 26.48 424.099 28.68 424.099 30.72C424.099 31.3 424.019 31.8 423.939 32.1H415.959C415.899 32.44 415.899 32.74 415.899 33.02C415.899 35 416.939 36.04 418.659 36.04C420.259 36.04 421.419 35.18 422.019 33.86H423.519C422.839 35.92 421.199 37.2 418.559 37.2ZM419.839 27.64C418.059 27.64 416.599 28.74 416.139 30.98H422.459C422.479 30.84 422.479 30.72 422.479 30.58C422.479 28.78 421.499 27.64 419.839 27.64ZM443.436 28.26C443.436 33.36 440.796 37 435.556 37H429.956L432.456 22.76H437.576C441.496 22.76 443.436 24.86 443.436 28.26ZM441.716 28.38C441.716 25.66 440.276 24.14 437.556 24.14H433.936L431.916 35.62H435.716C439.776 35.62 441.716 32.36 441.716 28.38ZM448.62 35.92C451.16 35.92 452.64 33.7 452.64 30.8C452.64 28.86 451.64 27.76 449.92 27.76C447.38 27.76 445.9 29.98 445.9 32.88C445.9 34.82 446.9 35.92 448.62 35.92ZM448.52 37.2C445.84 37.2 444.24 35.58 444.24 32.96C444.24 29.16 446.4 26.48 450 26.48C452.7 26.48 454.3 28.1 454.3 30.72C454.3 34.52 452.14 37.2 448.52 37.2ZM458.771 37.2C456.771 37.2 455.551 36.24 455.551 34.38C455.551 34.12 455.571 33.8 455.631 33.5L456.831 26.68H458.491L457.331 33.24C457.291 33.52 457.271 33.76 457.271 34C457.271 35.22 457.971 35.86 459.251 35.86C460.851 35.86 462.251 34.7 462.611 32.58L463.611 26.68H465.271L463.471 37H461.891L462.191 35.34C461.391 36.52 460.151 37.2 458.771 37.2ZM470.978 37.2C469.118 37.2 467.998 36.34 467.578 34.7L467.178 37H465.598L468.098 22.76H469.758L468.738 28.4C469.418 27.28 470.658 26.48 472.358 26.48C474.938 26.48 476.278 28.24 476.278 30.72C476.278 34.32 474.378 37.2 470.978 37.2ZM470.698 35.92C473.178 35.92 474.618 33.7 474.618 30.8C474.618 28.86 473.658 27.76 471.998 27.76C469.518 27.76 468.077 29.98 468.077 32.88C468.077 34.82 469.038 35.92 470.698 35.92ZM478.683 37H477.023L479.523 22.76H481.183L478.683 37ZM485.512 37.2C482.772 37.2 481.232 35.54 481.232 32.96C481.232 29.4 483.192 26.48 486.872 26.48C489.872 26.48 491.052 28.68 491.052 30.72C491.052 31.3 490.972 31.8 490.892 32.1H482.912C482.852 32.44 482.852 32.74 482.852 33.02C482.852 35 483.892 36.04 485.612 36.04C487.212 36.04 488.372 35.18 488.972 33.86H490.472C489.792 35.92 488.152 37.2 485.512 37.2ZM486.792 27.64C485.012 27.64 483.552 28.74 483.092 30.98H489.412C489.432 30.84 489.432 30.72 489.432 30.58C489.432 28.78 488.452 27.64 486.792 27.64ZM510.389 28.26C510.389 33.36 507.749 37 502.509 37H496.909L499.409 22.76H504.529C508.449 22.76 510.389 24.86 510.389 28.26ZM508.669 28.38C508.669 25.66 507.229 24.14 504.509 24.14H500.889L498.869 35.62H502.669C506.729 35.62 508.669 32.36 508.669 28.38ZM512.433 37H510.773L512.573 26.68H514.233L512.433 37ZM513.813 24.62C513.233 24.62 512.893 24.28 512.893 23.84C512.893 23.24 513.293 22.78 514.053 22.78C514.653 22.78 514.993 23.12 514.993 23.56C514.993 24.18 514.573 24.62 513.813 24.62ZM517.982 37.2C516.022 37.2 514.662 36.18 514.662 34.4C514.662 32.4 515.842 31.42 518.242 31.2L520.742 31C521.902 30.9 522.642 30.6 522.642 29.44C522.642 28.34 521.782 27.68 520.382 27.68C518.762 27.68 517.802 28.38 517.582 29.82H515.982C516.142 27.72 517.622 26.48 520.502 26.48C522.762 26.48 524.282 27.46 524.282 29.32C524.282 29.54 524.262 29.78 524.242 29.98L523.462 34.36C523.302 35.22 523.222 35.88 523.222 36.34C523.222 36.64 523.262 36.86 523.322 37H521.862C521.702 36.76 521.642 36.44 521.642 36.12C521.642 35.88 521.662 35.6 521.722 35.28C520.942 36.52 519.762 37.2 517.982 37.2ZM518.462 36.04C520.462 36.04 521.782 34.64 522.102 32.7L522.302 31.48C522.022 31.82 521.422 31.98 520.542 32.06L518.542 32.24C517.002 32.36 516.322 33.06 516.322 34.26C516.322 35.34 517.142 36.04 518.462 36.04ZM538.569 37H536.969L538.129 30.4C538.169 30.14 538.189 29.86 538.189 29.62C538.189 28.58 537.749 27.82 536.589 27.82C535.209 27.82 534.009 28.94 533.669 31L532.609 37H531.029L532.169 30.4C532.229 30.12 532.249 29.84 532.249 29.62C532.249 28.6 531.809 27.82 530.669 27.82C529.289 27.82 528.129 28.94 527.769 31L526.729 37H525.129L526.929 26.68H528.509L528.209 28.34C528.829 27.24 529.949 26.48 531.149 26.48C532.769 26.48 533.629 27.3 533.869 28.56C534.589 27.2 535.749 26.48 537.069 26.48C538.789 26.48 539.849 27.52 539.849 29.28C539.849 29.56 539.829 29.86 539.769 30.18L538.569 37ZM545.495 35.92C548.035 35.92 549.515 33.7 549.515 30.8C549.515 28.86 548.515 27.76 546.795 27.76C544.255 27.76 542.775 29.98 542.775 32.88C542.775 34.82 543.775 35.92 545.495 35.92ZM545.395 37.2C542.715 37.2 541.115 35.58 541.115 32.96C541.115 29.16 543.275 26.48 546.875 26.48C549.575 26.48 551.175 28.1 551.175 30.72C551.175 34.52 549.015 37.2 545.395 37.2ZM560.346 37H558.686L559.846 30.44C559.886 30.16 559.906 29.92 559.906 29.68C559.906 28.46 559.206 27.82 557.926 27.82C556.326 27.82 554.946 29 554.586 31.1L553.566 37H551.906L553.706 26.68H555.286L554.986 28.34C555.786 27.16 557.026 26.48 558.406 26.48C560.406 26.48 561.626 27.44 561.626 29.3C561.626 29.56 561.606 29.88 561.546 30.18L560.346 37ZM566.813 37.2C564.233 37.2 562.893 35.44 562.893 32.96C562.893 29.36 564.793 26.48 568.192 26.48C569.993 26.48 571.133 27.32 571.533 28.88L572.613 22.76H574.273L571.773 37H570.193L570.513 35.18C569.793 36.4 568.513 37.2 566.813 37.2ZM567.173 35.92C569.653 35.92 571.093 33.7 571.093 30.8C571.093 28.86 570.133 27.76 568.473 27.76C565.993 27.76 564.553 29.98 564.553 32.88C564.553 34.82 565.513 35.92 567.173 35.92ZM582.318 37.2C580.358 37.2 578.998 36.18 578.998 34.4C578.998 32.4 580.178 31.42 582.578 31.2L585.078 31C586.238 30.9 586.978 30.6 586.978 29.44C586.978 28.34 586.118 27.68 584.718 27.68C583.098 27.68 582.138 28.38 581.918 29.82H580.318C580.478 27.72 581.958 26.48 584.838 26.48C587.098 26.48 588.618 27.46 588.618 29.32C588.618 29.54 588.598 29.78 588.578 29.98L587.798 34.36C587.638 35.22 587.558 35.88 587.558 36.34C587.558 36.64 587.598 36.86 587.658 37H586.198C586.038 36.76 585.978 36.44 585.978 36.12C585.978 35.88 585.998 35.6 586.058 35.28C585.278 36.52 584.098 37.2 582.318 37.2ZM582.798 36.04C584.798 36.04 586.118 34.64 586.438 32.7L586.638 31.48C586.358 31.82 585.758 31.98 584.878 32.06L582.878 32.24C581.338 32.36 580.658 33.06 580.658 34.26C580.658 35.34 581.478 36.04 582.798 36.04ZM594.845 37.2C593.045 37.2 591.905 36.36 591.505 34.8L590.425 40.92H588.765L591.265 26.68H592.845L592.525 28.5C593.245 27.28 594.525 26.48 596.225 26.48C598.805 26.48 600.145 28.24 600.145 30.72C600.145 34.32 598.245 37.2 594.845 37.2ZM594.565 35.92C597.045 35.92 598.485 33.7 598.485 30.8C598.485 28.86 597.525 27.76 595.865 27.76C593.385 27.76 591.945 29.98 591.945 32.88C591.945 34.82 592.905 35.92 594.565 35.92ZM606.27 37.2C604.47 37.2 603.33 36.36 602.93 34.8L601.85 40.92H600.19L602.69 26.68H604.27L603.95 28.5C604.67 27.28 605.95 26.48 607.65 26.48C610.23 26.48 611.57 28.24 611.57 30.72C611.57 34.32 609.67 37.2 606.27 37.2ZM605.99 35.92C608.47 35.92 609.91 33.7 609.91 30.8C609.91 28.86 608.95 27.76 607.29 27.76C604.81 27.76 603.37 29.98 603.37 32.88C603.37 34.82 604.33 35.92 605.99 35.92ZM613.976 37H612.316L614.116 26.68H615.696L615.316 28.88C616.136 27.14 617.196 26.58 618.576 26.58C618.856 26.58 619.396 26.62 619.676 26.68L619.436 28.12L618.296 28.08C616.596 28.08 615.316 29.28 614.876 31.8L613.976 37ZM623.601 35.92C626.141 35.92 627.621 33.7 627.621 30.8C627.621 28.86 626.621 27.76 624.901 27.76C622.361 27.76 620.881 29.98 620.881 32.88C620.881 34.82 621.881 35.92 623.601 35.92ZM623.501 37.2C620.821 37.2 619.221 35.58 619.221 32.96C619.221 29.16 621.381 26.48 624.981 26.48C627.681 26.48 629.281 28.1 629.281 30.72C629.281 34.52 627.121 37.2 623.501 37.2ZM633.432 37.2C631.472 37.2 630.112 36.18 630.112 34.4C630.112 32.4 631.292 31.42 633.692 31.2L636.192 31C637.352 30.9 638.092 30.6 638.092 29.44C638.092 28.34 637.232 27.68 635.832 27.68C634.212 27.68 633.252 28.38 633.032 29.82H631.432C631.592 27.72 633.072 26.48 635.952 26.48C638.212 26.48 639.732 27.46 639.732 29.32C639.732 29.54 639.712 29.78 639.692 29.98L638.912 34.36C638.752 35.22 638.672 35.88 638.672 36.34C638.672 36.64 638.712 36.86 638.772 37H637.312C637.152 36.76 637.092 36.44 637.092 36.12C637.092 35.88 637.112 35.6 637.172 35.28C636.392 36.52 635.212 37.2 633.432 37.2ZM633.912 36.04C635.912 36.04 637.232 34.64 637.552 32.7L637.752 31.48C637.472 31.82 636.872 31.98 635.992 32.06L633.992 32.24C632.452 32.36 631.772 33.06 631.772 34.26C631.772 35.34 632.592 36.04 633.912 36.04ZM645.158 37.2C642.598 37.2 640.998 35.58 640.998 32.96C640.998 29.16 643.078 26.48 646.638 26.48C649.338 26.48 650.698 28.2 650.698 29.88C650.698 30.02 650.678 30.18 650.658 30.36H649.158C649.158 29.08 648.338 27.76 646.538 27.76C644.078 27.76 642.658 29.98 642.658 32.88C642.658 34.82 643.658 35.92 645.258 35.92C647.038 35.92 648.258 34.94 648.758 33.24H650.258C649.878 35.46 648.218 37.2 645.158 37.2ZM659.467 37H657.807L658.967 30.44C659.007 30.16 659.027 29.92 659.027 29.68C659.027 28.46 658.327 27.82 657.047 27.82C655.447 27.82 654.067 29 653.707 31.1L652.687 37H651.027L653.527 22.76H655.187L654.207 28.24C654.947 27.16 656.147 26.48 657.527 26.48C659.527 26.48 660.747 27.44 660.747 29.3C660.747 29.56 660.727 29.88 660.667 30.18L659.467 37ZM661.514 39.78L660.714 39.42C661.294 38.7 661.514 38.12 661.694 37.06L662.074 34.88H663.494L663.114 37.06C662.894 38.3 662.394 39.2 661.514 39.78ZM673.803 37.2C671.843 37.2 670.483 36.18 670.483 34.4C670.483 32.4 671.663 31.42 674.063 31.2L676.563 31C677.723 30.9 678.463 30.6 678.463 29.44C678.463 28.34 677.603 27.68 676.203 27.68C674.583 27.68 673.623 28.38 673.403 29.82H671.803C671.963 27.72 673.443 26.48 676.323 26.48C678.583 26.48 680.103 27.46 680.103 29.32C680.103 29.54 680.083 29.78 680.063 29.98L679.283 34.36C679.123 35.22 679.043 35.88 679.043 36.34C679.043 36.64 679.083 36.86 679.143 37H677.683C677.523 36.76 677.463 36.44 677.463 36.12C677.463 35.88 677.483 35.6 677.543 35.28C676.763 36.52 675.583 37.2 673.803 37.2ZM674.283 36.04C676.283 36.04 677.603 34.64 677.923 32.7L678.123 31.48C677.843 31.82 677.243 31.98 676.363 32.06L674.363 32.24C672.823 32.36 672.143 33.06 672.143 34.26C672.143 35.34 672.963 36.04 674.283 36.04ZM691.329 37.2C689.529 37.2 688.389 36.36 687.989 34.8L686.909 40.92H685.249L687.749 26.68H689.329L689.009 28.5C689.729 27.28 691.009 26.48 692.709 26.48C695.289 26.48 696.629 28.24 696.629 30.72C696.629 34.32 694.729 37.2 691.329 37.2ZM691.049 35.92C693.529 35.92 694.969 33.7 694.969 30.8C694.969 28.86 694.009 27.76 692.349 27.76C689.869 27.76 688.429 29.98 688.429 32.88C688.429 34.82 689.389 35.92 691.049 35.92ZM699.035 37H697.375L699.175 26.68H700.755L700.375 28.88C701.195 27.14 702.255 26.58 703.635 26.58C703.915 26.58 704.455 26.62 704.735 26.68L704.495 28.12L703.355 28.08C701.655 28.08 700.375 29.28 699.935 31.8L699.035 37ZM708.659 35.92C711.199 35.92 712.679 33.7 712.679 30.8C712.679 28.86 711.679 27.76 709.959 27.76C707.419 27.76 705.939 29.98 705.939 32.88C705.939 34.82 706.939 35.92 708.659 35.92ZM708.559 37.2C705.879 37.2 704.279 35.58 704.279 32.96C704.279 29.16 706.439 26.48 710.039 26.48C712.739 26.48 714.339 28.1 714.339 30.72C714.339 34.52 712.179 37.2 708.559 37.2ZM719.45 37H717.45L715.23 26.68H716.89L718.63 35.5L723.47 26.68H725.27L719.45 37ZM729.145 37.2C726.405 37.2 724.865 35.54 724.865 32.96C724.865 29.4 726.825 26.48 730.505 26.48C733.505 26.48 734.685 28.68 734.685 30.72C734.685 31.3 734.605 31.8 734.525 32.1H726.545C726.485 32.44 726.485 32.74 726.485 33.02C726.485 35 727.525 36.04 729.245 36.04C730.845 36.04 732.005 35.18 732.605 33.86H734.105C733.425 35.92 731.785 37.2 729.145 37.2ZM730.425 27.64C728.645 27.64 727.185 28.74 726.725 30.98H733.045C733.065 30.84 733.065 30.72 733.065 30.58C733.065 28.78 732.085 27.64 730.425 27.64ZM743.862 37H742.202L743.362 30.44C743.402 30.16 743.422 29.92 743.422 29.68C743.422 28.46 742.722 27.82 741.442 27.82C739.842 27.82 738.462 29 738.102 31.1L737.082 37H735.422L737.222 26.68H738.802L738.502 28.34C739.302 27.16 740.542 26.48 741.922 26.48C743.922 26.48 745.142 27.44 745.142 29.3C745.142 29.56 745.122 29.88 745.062 30.18L743.862 37ZM762.288 37H760.548L759.548 28.82L755.688 37H753.888L751.988 26.68H753.668L755.128 35.14L759.088 26.68H760.608L761.608 35.14L766.028 26.68H767.788L762.288 37ZM770.131 37.2C768.171 37.2 766.811 36.18 766.811 34.4C766.811 32.4 767.991 31.42 770.391 31.2L772.891 31C774.051 30.9 774.791 30.6 774.791 29.44C774.791 28.34 773.931 27.68 772.531 27.68C770.911 27.68 769.951 28.38 769.731 29.82H768.131C768.291 27.72 769.771 26.48 772.651 26.48C774.911 26.48 776.431 27.46 776.431 29.32C776.431 29.54 776.411 29.78 776.391 29.98L775.611 34.36C775.451 35.22 775.371 35.88 775.371 36.34C775.371 36.64 775.411 36.86 775.471 37H774.011C773.851 36.76 773.791 36.44 773.791 36.12C773.791 35.88 773.811 35.6 773.871 35.28C773.091 36.52 771.911 37.2 770.131 37.2ZM770.611 36.04C772.611 36.04 773.931 34.64 774.251 32.7L774.451 31.48C774.171 31.82 773.571 31.98 772.691 32.06L770.691 32.24C769.151 32.36 768.471 33.06 768.471 34.26C768.471 35.34 769.291 36.04 770.611 36.04ZM776.229 40.92L776.449 39.72H777.309C778.389 39.72 779.309 39.06 780.149 37.56L777.789 26.68H779.429L781.149 35.62L786.029 26.68H787.829L781.749 37.36C780.169 40.12 778.989 40.92 777.149 40.92H776.229ZM796.135 37.1C794.455 37.1 793.595 36.68 793.595 35.38C793.595 35.14 793.615 34.88 793.675 34.6L794.855 27.88H793.095L793.295 26.68H795.075L795.615 23.56H797.275L796.715 26.68H799.195L798.995 27.88H796.515L795.315 34.64C795.275 34.8 795.275 34.96 795.275 35.08C795.275 35.72 795.675 35.88 796.575 35.88L797.595 35.84L797.395 37C796.975 37.04 796.515 37.1 796.135 37.1ZM803.19 35.92C805.73 35.92 807.21 33.7 807.21 30.8C807.21 28.86 806.21 27.76 804.49 27.76C801.95 27.76 800.47 29.98 800.47 32.88C800.47 34.82 801.47 35.92 803.19 35.92ZM803.09 37.2C800.41 37.2 798.81 35.58 798.81 32.96C798.81 29.16 800.97 26.48 804.57 26.48C807.27 26.48 808.87 28.1 808.87 30.72C808.87 34.52 806.71 37.2 803.09 37.2ZM819.041 36.6C816.621 36.6 815.081 35 815.081 32.66C815.081 29.06 817.061 26.48 820.321 26.48C822.181 26.48 823.301 27.36 823.721 28.98L824.121 26.68H825.701L824.001 36.32C823.421 39.7 821.621 41.12 818.601 41.12C816.281 41.12 814.641 39.98 814.641 37.94C814.641 37.82 814.641 37.68 814.661 37.54H816.121C816.121 39.08 817.101 39.98 818.741 39.98C820.761 39.98 821.901 38.96 822.301 36.68L822.641 34.74C822.001 35.8 820.741 36.6 819.041 36.6ZM819.361 35.4C821.701 35.4 823.221 33.34 823.221 30.5C823.221 28.74 822.141 27.68 820.601 27.68C818.261 27.68 816.741 29.74 816.741 32.58C816.741 34.34 817.821 35.4 819.361 35.4ZM830.827 35.92C833.367 35.92 834.847 33.7 834.847 30.8C834.847 28.86 833.847 27.76 832.127 27.76C829.587 27.76 828.107 29.98 828.107 32.88C828.107 34.82 829.107 35.92 830.827 35.92ZM830.727 37.2C828.047 37.2 826.447 35.58 826.447 32.96C826.447 29.16 828.607 26.48 832.207 26.48C834.907 26.48 836.507 28.1 836.507 30.72C836.507 34.52 834.347 37.2 830.727 37.2ZM844.798 37H843.138L844.738 27.88H842.978L843.178 26.68H844.958L845.178 25.4C845.498 23.56 846.218 22.66 848.178 22.66C848.618 22.66 849.378 22.72 849.778 22.76L849.598 23.92L848.418 23.88C847.318 23.88 846.998 24.36 846.838 25.36L846.618 26.68H849.078L848.878 27.88H846.398L844.798 37ZM850.402 37H848.742L850.542 26.68H852.122L851.742 28.88C852.562 27.14 853.622 26.58 855.002 26.58C855.282 26.58 855.822 26.62 856.102 26.68L855.862 28.12L854.722 28.08C853.022 28.08 851.742 29.28 851.302 31.8L850.402 37ZM860.026 35.92C862.566 35.92 864.046 33.7 864.046 30.8C864.046 28.86 863.046 27.76 861.326 27.76C858.786 27.76 857.306 29.98 857.306 32.88C857.306 34.82 858.306 35.92 860.026 35.92ZM859.926 37.2C857.246 37.2 855.646 35.58 855.646 32.96C855.646 29.16 857.806 26.48 861.406 26.48C864.106 26.48 865.706 28.1 865.706 30.72C865.706 34.52 863.546 37.2 859.926 37.2ZM879.877 37H878.277L879.437 30.4C879.477 30.14 879.497 29.86 879.497 29.62C879.497 28.58 879.057 27.82 877.897 27.82C876.517 27.82 875.317 28.94 874.977 31L873.917 37H872.337L873.477 30.4C873.537 30.12 873.557 29.84 873.557 29.62C873.557 28.6 873.117 27.82 871.977 27.82C870.597 27.82 869.437 28.94 869.077 31L868.037 37H866.437L868.237 26.68H869.817L869.517 28.34C870.137 27.24 871.257 26.48 872.457 26.48C874.077 26.48 874.937 27.3 875.177 28.56C875.897 27.2 877.057 26.48 878.377 26.48C880.097 26.48 881.157 27.52 881.157 29.28C881.157 29.56 881.137 29.86 881.077 30.18L879.877 37ZM888.664 37H887.004L888.804 26.68H890.464L888.664 37ZM890.044 24.62C889.464 24.62 889.124 24.28 889.124 23.84C889.124 23.24 889.524 22.78 890.284 22.78C890.884 22.78 891.224 23.12 891.224 23.56C891.224 24.18 890.804 24.62 890.044 24.62ZM895.133 37.2C892.553 37.2 891.213 35.44 891.213 32.96C891.213 29.36 893.113 26.48 896.513 26.48C898.313 26.48 899.453 27.32 899.853 28.88L900.933 22.76H902.593L900.093 37H898.513L898.833 35.18C898.113 36.4 896.833 37.2 895.133 37.2ZM895.493 35.92C897.973 35.92 899.413 33.7 899.413 30.8C899.413 28.86 898.453 27.76 896.793 27.76C894.313 27.76 892.873 29.98 892.873 32.88C892.873 34.82 893.833 35.92 895.493 35.92ZM906.919 37.2C904.179 37.2 902.639 35.54 902.639 32.96C902.639 29.4 904.599 26.48 908.279 26.48C911.279 26.48 912.459 28.68 912.459 30.72C912.459 31.3 912.379 31.8 912.299 32.1H904.319C904.259 32.44 904.259 32.74 904.259 33.02C904.259 35 905.299 36.04 907.019 36.04C908.619 36.04 909.779 35.18 910.379 33.86H911.879C911.199 35.92 909.559 37.2 906.919 37.2ZM908.199 27.64C906.419 27.64 904.959 28.74 904.499 30.98H910.819C910.839 30.84 910.839 30.72 910.839 30.58C910.839 28.78 909.859 27.64 908.199 27.64ZM916.615 37.2C914.655 37.2 913.295 36.18 913.295 34.4C913.295 32.4 914.475 31.42 916.875 31.2L919.375 31C920.535 30.9 921.275 30.6 921.275 29.44C921.275 28.34 920.415 27.68 919.015 27.68C917.395 27.68 916.435 28.38 916.215 29.82H914.615C914.775 27.72 916.255 26.48 919.135 26.48C921.395 26.48 922.915 27.46 922.915 29.32C922.915 29.54 922.895 29.78 922.875 29.98L922.095 34.36C921.935 35.22 921.855 35.88 921.855 36.34C921.855 36.64 921.895 36.86 921.955 37H920.495C920.335 36.76 920.275 36.44 920.275 36.12C920.275 35.88 920.295 35.6 920.355 35.28C919.575 36.52 918.395 37.2 916.615 37.2ZM917.095 36.04C919.095 36.04 920.415 34.64 920.735 32.7L920.935 31.48C920.655 31.82 920.055 31.98 919.175 32.06L917.175 32.24C915.635 32.36 914.955 33.06 914.955 34.26C914.955 35.34 915.775 36.04 917.095 36.04ZM932.542 37.1C930.862 37.1 930.002 36.68 930.002 35.38C930.002 35.14 930.022 34.88 930.082 34.6L931.262 27.88H929.502L929.702 26.68H931.482L932.022 23.56H933.682L933.122 26.68H935.602L935.402 27.88H932.922L931.722 34.64C931.682 34.8 931.682 34.96 931.682 35.08C931.682 35.72 932.082 35.88 932.982 35.88L934.002 35.84L933.802 37C933.382 37.04 932.922 37.1 932.542 37.1ZM939.597 35.92C942.137 35.92 943.617 33.7 943.617 30.8C943.617 28.86 942.617 27.76 940.897 27.76C938.357 27.76 936.877 29.98 936.877 32.88C936.877 34.82 937.877 35.92 939.597 35.92ZM939.497 37.2C936.817 37.2 935.217 35.58 935.217 32.96C935.217 29.16 937.377 26.48 940.977 26.48C943.677 26.48 945.277 28.1 945.277 30.72C945.277 34.52 943.117 37.2 939.497 37.2ZM952.668 37H951.008L952.808 26.68H954.468L952.668 37ZM954.048 24.62C953.468 24.62 953.128 24.28 953.128 23.84C953.128 23.24 953.528 22.78 954.288 22.78C954.888 22.78 955.228 23.12 955.228 23.56C955.228 24.18 954.808 24.62 954.048 24.62ZM968.237 37H966.637L967.797 30.4C967.837 30.14 967.857 29.86 967.857 29.62C967.857 28.58 967.417 27.82 966.257 27.82C964.877 27.82 963.677 28.94 963.337 31L962.277 37H960.697L961.837 30.4C961.897 30.12 961.917 29.84 961.917 29.62C961.917 28.6 961.477 27.82 960.337 27.82C958.957 27.82 957.797 28.94 957.437 31L956.397 37H954.797L956.597 26.68H958.177L957.877 28.34C958.497 27.24 959.617 26.48 960.817 26.48C962.437 26.48 963.297 27.3 963.537 28.56C964.257 27.2 965.417 26.48 966.737 26.48C968.457 26.48 969.517 27.52 969.517 29.28C969.517 29.56 969.497 29.86 969.437 30.18L968.237 37ZM975.743 37.2C973.943 37.2 972.803 36.36 972.403 34.8L971.323 40.92H969.663L972.163 26.68H973.743L973.423 28.5C974.143 27.28 975.423 26.48 977.123 26.48C979.703 26.48 981.043 28.24 981.043 30.72C981.043 34.32 979.143 37.2 975.743 37.2ZM975.463 35.92C977.943 35.92 979.383 33.7 979.383 30.8C979.383 28.86 978.423 27.76 976.763 27.76C974.283 27.76 972.843 29.98 972.843 32.88C972.843 34.82 973.803 35.92 975.463 35.92ZM985.209 37.2C983.249 37.2 981.889 36.18 981.889 34.4C981.889 32.4 983.069 31.42 985.469 31.2L987.969 31C989.129 30.9 989.869 30.6 989.869 29.44C989.869 28.34 989.009 27.68 987.609 27.68C985.989 27.68 985.029 28.38 984.809 29.82H983.209C983.369 27.72 984.849 26.48 987.729 26.48C989.989 26.48 991.509 27.46 991.509 29.32C991.509 29.54 991.489 29.78 991.469 29.98L990.689 34.36C990.529 35.22 990.449 35.88 990.449 36.34C990.449 36.64 990.489 36.86 990.549 37H989.089C988.929 36.76 988.869 36.44 988.869 36.12C988.869 35.88 988.889 35.6 988.949 35.28C988.169 36.52 986.989 37.2 985.209 37.2ZM985.689 36.04C987.689 36.04 989.009 34.64 989.329 32.7L989.529 31.48C989.249 31.82 988.649 31.98 987.769 32.06L985.769 32.24C984.229 32.36 983.549 33.06 983.549 34.26C983.549 35.34 984.369 36.04 985.689 36.04ZM996.935 37.2C994.375 37.2 992.775 35.58 992.775 32.96C992.775 29.16 994.855 26.48 998.415 26.48C1001.12 26.48 1002.48 28.2 1002.48 29.88C1002.48 30.02 1002.46 30.18 1002.44 30.36H1000.94C1000.94 29.08 1000.12 27.76 998.315 27.76C995.855 27.76 994.435 29.98 994.435 32.88C994.435 34.82 995.435 35.92 997.035 35.92C998.815 35.92 1000.04 34.94 1000.54 33.24H1002.04C1001.66 35.46 999.995 37.2 996.935 37.2ZM1006.58 37.1C1004.9 37.1 1004.04 36.68 1004.04 35.38C1004.04 35.14 1004.06 34.88 1004.12 34.6L1005.3 27.88H1003.54L1003.74 26.68H1005.52L1006.06 23.56H1007.72L1007.16 26.68H1009.64L1009.44 27.88H1006.96L1005.76 34.64C1005.72 34.8 1005.72 34.96 1005.72 35.08C1005.72 35.72 1006.12 35.88 1007.02 35.88L1008.04 35.84L1007.84 37C1007.42 37.04 1006.96 37.1 1006.58 37.1ZM1010.27 37.12C1009.67 37.12 1009.29 36.76 1009.29 36.3C1009.29 35.68 1009.73 35.2 1010.51 35.2C1011.13 35.2 1011.49 35.56 1011.49 36.02C1011.49 36.66 1011.05 37.12 1010.27 37.12Z" fill="white" fill-opacity="0.8"/>
</g>
<defs>
<filter id="filter0_f_888_2275" x="242.167" y="-8.6336" width="486.467" height="680.869" filterUnits="userSpaceOnUse" color-interpolation-filters="sRGB">
<feFlood flood-opacity="0" result="BackgroundImageFix"/>
<feBlend mode="normal" in="SourceGraphic" in2="BackgroundImageFix" result="shape"/>
<feGaussianBlur stdDeviation="53.8168" result="effect1_foregroundBlur_888_2275"/>
</filter>
<filter id="filter1_f_888_2275" x="-26.6336" y="-8.6336" width="486.467" height="680.869" filterUnits="userSpaceOnUse" color-interpolation-filters="sRGB">
<feFlood flood-opacity="0" result="BackgroundImageFix"/>
<feBlend mode="normal" in="SourceGraphic" in2="BackgroundImageFix" result="shape"/>
<feGaussianBlur stdDeviation="53.8168" result="effect1_foregroundBlur_888_2275"/>
</filter>
<filter id="filter2_f_888_2275" x="779.167" y="-8.6336" width="486.467" height="680.869" filterUnits="userSpaceOnUse" color-interpolation-filters="sRGB">
<feFlood flood-opacity="0" result="BackgroundImageFix"/>
<feBlend mode="normal" in="SourceGraphic" in2="BackgroundImageFix" result="shape"/>
<feGaussianBlur stdDeviation="53.8168" result="effect1_foregroundBlur_888_2275"/>
</filter>
<filter id="filter3_f_888_2275" x="510.366" y="-8.6336" width="486.467" height="680.869" filterUnits="userSpaceOnUse" color-interpolation-filters="sRGB">
<feFlood flood-opacity="0" result="BackgroundImageFix"/>
<feBlend mode="normal" in="SourceGraphic" in2="BackgroundImageFix" result="shape"/>
<feGaussianBlur stdDeviation="53.8168" result="effect1_foregroundBlur_888_2275"/>
</filter>
<linearGradient id="paint0_linear_888_2275" x1="334.307" y1="266.2" x2="325.489" y2="366.277" gradientUnits="userSpaceOnUse">
<stop offset="0.354971" stop-color="#0A6A97"/>
<stop offset="0.532442" stop-color="#34BDFE"/>
<stop offset="1" stop-color="#17E48A"/>
</linearGradient>
<linearGradient id="paint1_linear_888_2275" x1="871.307" y1="266.2" x2="862.489" y2="366.277" gradientUnits="userSpaceOnUse">
<stop offset="0.354971" stop-color="#0A6A97"/>
<stop offset="0.532442" stop-color="#34BDFE"/>
<stop offset="1" stop-color="#17E48A"/>
</linearGradient>
<linearGradient id="paint2_linear_888_2275" x1="193.829" y1="661.405" x2="186.231" y2="748.012" gradientUnits="userSpaceOnUse">
<stop offset="0.354971" stop-color="#0A6A97"/>
<stop offset="0.532442" stop-color="#34BDFE"/>
<stop offset="1" stop-color="#17E48A"/>
</linearGradient>
<linearGradient id="paint3_linear_888_2275" x1="180.433" y1="691.367" x2="177.305" y2="731.947" gradientUnits="userSpaceOnUse">
<stop offset="0.354971" stop-color="#0A6A97"/>
<stop offset="0.532442" stop-color="#34BDFE"/>
<stop offset="1" stop-color="#17E48A"/>
</linearGradient>
<linearGradient id="paint4_linear_888_2275" x1="470.829" y1="661.405" x2="463.231" y2="748.012" gradientUnits="userSpaceOnUse">
<stop offset="0.354971" stop-color="#0A6A97"/>
<stop offset="0.532442" stop-color="#34BDFE"/>
<stop offset="1" stop-color="#17E48A"/>
</linearGradient>
<linearGradient id="paint5_linear_888_2275" x1="479.21" y1="691.367" x2="474.969" y2="731.743" gradientUnits="userSpaceOnUse">
<stop offset="0.354971" stop-color="#0A6A97"/>
<stop offset="0.532442" stop-color="#34BDFE"/>
<stop offset="1" stop-color="#17E48A"/>
</linearGradient>
<linearGradient id="paint6_linear_888_2275" x1="740.829" y1="661.405" x2="733.231" y2="748.012" gradientUnits="userSpaceOnUse">
<stop offset="0.354971" stop-color="#0A6A97"/>
<stop offset="0.532442" stop-color="#34BDFE"/>
<stop offset="1" stop-color="#17E48A"/>
</linearGradient>
<linearGradient id="paint7_linear_888_2275" x1="747.584" y1="691.367" x2="744.379" y2="731.935" gradientUnits="userSpaceOnUse">
<stop offset="0.354971" stop-color="#0A6A97"/>
<stop offset="0.532442" stop-color="#34BDFE"/>
<stop offset="1" stop-color="#17E48A"/>
</linearGradient>
<linearGradient id="paint8_linear_888_2275" x1="1004.83" y1="661.405" x2="997.231" y2="748.012" gradientUnits="userSpaceOnUse">
<stop offset="0.354971" stop-color="#0A6A97"/>
<stop offset="0.532442" stop-color="#34BDFE"/>
<stop offset="1" stop-color="#17E48A"/>
</linearGradient>
<linearGradient id="paint9_linear_888_2275" x1="1016.74" y1="691.367" x2="1012.84" y2="731.812" gradientUnits="userSpaceOnUse">
<stop offset="0.354971" stop-color="#0A6A97"/>
<stop offset="0.532442" stop-color="#34BDFE"/>
<stop offset="1" stop-color="#17E48A"/>
</linearGradient>
<linearGradient id="paint10_linear_888_2275" x1="1271.83" y1="661.405" x2="1264.23" y2="748.012" gradientUnits="userSpaceOnUse">
<stop offset="0.354971" stop-color="#0A6A97"/>
<stop offset="0.532442" stop-color="#34BDFE"/>
<stop offset="1" stop-color="#17E48A"/>
</linearGradient>
<linearGradient id="paint11_linear_888_2275" x1="1280.27" y1="691.367" x2="1276.11" y2="731.762" gradientUnits="userSpaceOnUse">
<stop offset="0.354971" stop-color="#0A6A97"/>
<stop offset="0.532442" stop-color="#34BDFE"/>
<stop offset="1" stop-color="#17E48A"/>
</linearGradient>
<clipPath id="clip0_888_2275">
<rect width="1440" height="899" fill="white"/>
</clipPath>
<clipPath id="clip1_888_2275">
<rect x="81" y="331.715" width="380.021" height="380.021" rx="25" transform="rotate(-45 81 331.715)" fill="white"/>
</clipPath>
<clipPath id="clip2_888_2275">
<rect x="618" y="331.715" width="380.021" height="380.021" rx="25" transform="rotate(-45 618 331.715)" fill="white"/>
</clipPath>
</defs>
</svg>
