<svg width="975" height="148" viewBox="0 0 975 148" fill="none" xmlns="http://www.w3.org/2000/svg">
<path d="M41.127 72.8461V71.7461H53.277V72.8461C48.927 73.1461 50.777 76.7461 51.777 79.2961L57.477 94.0461L63.427 77.0461C64.527 73.9461 63.977 72.9461 61.177 72.8461V71.7461H69.577V72.8461C66.977 73.1461 65.527 75.8461 64.777 77.9461L56.527 101.096C53.627 109.246 50.277 113.246 46.227 113.246C43.627 113.246 41.127 111.596 41.127 109.146C41.127 107.396 42.427 106.146 44.227 106.146C47.277 106.146 46.577 109.596 48.627 109.596C51.177 109.596 53.727 104.296 54.927 101.096L47.027 80.8461C45.927 77.9961 44.577 73.1461 41.127 72.8461ZM80.9672 101.096C72.6672 101.096 68.8672 93.5961 68.8672 85.7961C68.8672 77.9461 72.7172 71.0961 80.9672 71.0961C89.2172 71.0961 93.0672 77.9461 93.0672 85.7961C93.0672 93.5961 89.2672 101.096 80.9672 101.096ZM80.9672 99.6461C86.4172 99.6461 87.5172 90.0461 87.5172 85.8461C87.5172 81.5461 86.4672 72.5461 80.9672 72.5461C75.4672 72.5461 74.4172 81.5461 74.4172 85.8461C74.4172 90.0461 75.5172 99.6461 80.9672 99.6461ZM108.93 74.4461L117.98 71.0961V93.0961C117.98 96.8961 118.83 97.8961 121.33 97.0961L121.73 98.2461L114.48 101.096H113.03V95.8961C110.13 99.3461 107.03 101.096 103.68 101.096C97.8801 101.096 97.1801 95.7961 97.1801 91.0961V79.5961C97.1801 76.1961 96.2301 74.6961 93.4801 75.5961L93.0801 74.4461L102.13 71.0961V91.2961C102.13 94.6961 102.53 97.7461 106.43 97.7461C108.88 97.7461 111.08 96.5961 113.03 94.2461V79.5961C113.03 76.1961 112.08 74.6961 109.33 75.5961L108.93 74.4461ZM143.5 74.8461C143.5 76.4961 142.25 77.6961 140.5 77.6961C137.55 77.6961 138.3 74.4961 135.75 74.4961C134.15 74.4961 132.15 75.7461 130.45 77.8461V93.4461C130.45 96.1461 130.15 98.4961 133.9 99.1461V100.246H122.05V99.1461C125.8 98.4961 125.5 96.1461 125.5 93.4461V79.5961C125.5 76.1961 124.55 74.6961 121.8 75.5961L121.4 74.4461L130.45 71.0961V76.0961C133.1 72.9961 136.15 71.0961 138.75 71.0961C141.2 71.0961 143.5 72.7461 143.5 74.8461ZM151.152 59.3961L160.202 56.0461V74.5461C162.602 72.2461 165.302 71.0961 168.202 71.0961C174.802 71.0961 179.352 76.8961 179.352 85.2461C179.352 94.6461 173.552 101.096 165.252 101.096C162.802 101.096 160.552 100.546 158.602 99.5461L156.802 100.246H155.252V64.5461C155.252 61.1461 154.302 59.6461 151.552 60.5461L151.152 59.3961ZM160.202 76.3961V95.6961C160.902 98.1461 163.152 99.6461 166.002 99.6461C171.052 99.6461 174.352 94.8961 174.352 87.6961C174.352 79.9461 170.502 74.2961 165.252 74.2961C163.402 74.2961 161.702 74.9961 160.202 76.3961ZM201.459 74.8461C201.459 76.4961 200.209 77.6961 198.459 77.6961C195.509 77.6961 196.259 74.4961 193.709 74.4961C192.109 74.4961 190.109 75.7461 188.409 77.8461V93.4461C188.409 96.1461 188.109 98.4961 191.859 99.1461V100.246H180.009V99.1461C183.759 98.4961 183.459 96.1461 183.459 93.4461V79.5961C183.459 76.1961 182.509 74.6961 179.759 75.5961L179.359 74.4461L188.409 71.0961V76.0961C191.059 72.9961 194.109 71.0961 196.709 71.0961C199.159 71.0961 201.459 72.7461 201.459 74.8461ZM217.29 94.5461V87.0461C212.79 87.2461 206.49 88.3961 206.49 93.2961C206.49 95.9461 208.24 97.5961 210.79 97.5961C212.84 97.5961 215.14 96.4961 217.29 94.5461ZM212.89 71.0961C218.94 71.0961 222.24 73.4961 222.24 81.7461V92.2461C222.24 95.2461 222.79 96.4961 224.24 96.4961C224.59 96.4961 225.09 96.3961 225.59 96.2461L225.99 97.3961L218.74 100.246H217.29V96.2961C213.94 99.5961 211.14 101.096 208.09 101.096C203.99 101.096 201.29 98.4461 201.29 94.6461C201.29 89.3461 206.49 85.8461 217.29 85.5461V80.5461C217.29 75.0461 215.59 72.5961 212.14 72.5961C207.29 72.5961 208.84 77.3961 207.04 79.3961C206.54 79.9461 205.74 80.2461 204.94 80.2461C203.49 80.2461 201.99 79.1961 202.49 76.6461C203.09 73.4961 206.84 71.0961 212.89 71.0961ZM250.804 93.4461C250.804 96.1461 250.504 98.4961 254.254 99.1461V100.246H242.404V99.1461C246.154 98.4961 245.854 96.1461 245.854 93.4461V80.8961C245.854 77.4961 245.204 74.4461 241.254 74.4461C238.504 74.4461 236.204 75.9461 234.454 77.9961V93.4461C234.454 96.1461 234.154 98.4961 237.904 99.1461V100.246H226.054V99.1461C229.804 98.4961 229.504 96.1461 229.504 93.4461V79.5961C229.504 76.1961 228.554 74.6961 225.804 75.5961L225.404 74.4461L234.454 71.0961V76.2961C237.354 72.8461 240.704 71.0961 244.154 71.0961C249.854 71.0961 250.804 76.3961 250.804 81.0961V93.4461ZM279.014 56.0461V92.2461C279.014 96.0461 279.864 97.0461 282.364 96.2461L282.764 97.3961L275.514 100.246H274.064V97.1961C271.514 99.7961 268.664 101.096 265.564 101.096C258.964 101.096 254.414 95.2961 254.414 86.9961C254.414 77.7961 259.964 71.0961 267.564 71.0961C269.914 71.0961 272.064 71.7461 274.064 73.0461V64.5461C274.064 61.1461 273.114 59.6461 270.364 60.5461L269.964 59.3961L279.014 56.0461ZM274.064 95.1461V78.6961C273.214 75.0461 270.614 72.5461 267.264 72.5461C262.614 72.5461 259.414 77.4961 259.414 84.5461C259.414 92.1961 263.214 97.7461 268.514 97.7461C270.614 97.7461 272.464 96.8461 274.064 95.1461ZM317.295 56.0461V92.2461C317.295 96.0461 318.145 97.0461 320.645 96.2461L321.045 97.3961L313.795 100.246H312.345V97.1961C309.795 99.7961 306.945 101.096 303.845 101.096C297.245 101.096 292.695 95.2961 292.695 86.9961C292.695 77.7961 298.245 71.0961 305.845 71.0961C308.195 71.0961 310.345 71.7461 312.345 73.0461V64.5461C312.345 61.1461 311.395 59.6461 308.645 60.5461L308.245 59.3961L317.295 56.0461ZM312.345 95.1461V78.6961C311.495 75.0461 308.895 72.5461 305.545 72.5461C300.895 72.5461 297.695 77.4961 297.695 84.5461C297.695 92.1961 301.495 97.7461 306.795 97.7461C308.895 97.7461 310.745 96.8461 312.345 95.1461ZM325.755 80.7461H338.355C338.305 75.3961 336.455 72.6961 332.905 72.6961C329.155 72.6961 326.405 75.8961 325.755 80.7461ZM343.455 90.4961L344.505 90.6961C343.255 97.0961 338.955 101.096 333.355 101.096C326.405 101.096 321.455 94.9461 321.455 86.1961C321.455 77.2961 326.605 71.0961 334.055 71.0961C340.755 71.0961 343.755 75.9461 343.755 82.1961H325.605V83.1461C325.605 89.5961 328.855 96.4461 335.405 96.4461C339.055 96.4461 342.005 94.2961 343.455 90.4961ZM363.777 74.2961V80.8961H362.427C361.627 75.6961 359.077 72.5961 354.977 72.5961C351.877 72.5961 349.727 74.3461 349.727 76.8461C349.727 83.6461 365.477 82.8461 365.477 92.5461C365.477 97.6461 361.177 101.096 354.977 101.096C350.527 101.096 345.727 99.2961 345.727 97.3961V90.3461H347.077C347.977 96.2961 352.777 99.5461 356.427 99.5461C359.077 99.5461 360.977 97.7961 360.977 95.1461C360.977 87.6461 345.527 88.2961 345.527 78.8461C345.527 74.0461 349.527 71.0961 356.077 71.0961C360.427 71.0961 363.527 72.3961 363.777 74.2961ZM371.263 80.7461H383.863C383.813 75.3961 381.963 72.6961 378.413 72.6961C374.663 72.6961 371.913 75.8961 371.263 80.7461ZM388.963 90.4961L390.013 90.6961C388.763 97.0961 384.463 101.096 378.863 101.096C371.913 101.096 366.963 94.9461 366.963 86.1961C366.963 77.2961 372.113 71.0961 379.563 71.0961C386.263 71.0961 389.263 75.9461 389.263 82.1961H371.113V83.1461C371.113 89.5961 374.363 96.4461 380.913 96.4461C384.563 96.4461 387.513 94.2961 388.963 90.4961ZM412.153 74.8461C412.153 76.4961 410.903 77.6961 409.153 77.6961C406.203 77.6961 406.953 74.4961 404.403 74.4961C402.803 74.4961 400.803 75.7461 399.103 77.8461V93.4461C399.103 96.1461 398.803 98.4961 402.553 99.1461V100.246H390.703V99.1461C394.453 98.4961 394.153 96.1461 394.153 93.4461V79.5961C394.153 76.1961 393.203 74.6961 390.453 75.5961L390.053 74.4461L399.103 71.0961V76.0961C401.753 72.9961 404.803 71.0961 407.403 71.0961C409.853 71.0961 412.153 72.7461 412.153 74.8461ZM412.416 71.7461H424.566V72.8461C420.216 73.1461 422.066 76.7461 423.066 79.2961L428.466 93.4961L434.216 77.0461C435.316 73.9461 434.766 72.9461 431.966 72.8461V71.7461H440.366V72.8461C437.766 73.1461 436.316 75.8461 435.566 77.9461L427.316 101.096H426.216L418.316 80.8461C417.216 77.9961 415.866 73.1461 412.416 72.8461V71.7461ZM443.919 80.7461H456.519C456.469 75.3961 454.619 72.6961 451.069 72.6961C447.319 72.6961 444.569 75.8961 443.919 80.7461ZM461.619 90.4961L462.669 90.6961C461.419 97.0961 457.119 101.096 451.519 101.096C444.569 101.096 439.619 94.9461 439.619 86.1961C439.619 77.2961 444.769 71.0961 452.219 71.0961C458.919 71.0961 461.919 75.9461 461.919 82.1961H443.769V83.1461C443.769 89.5961 447.019 96.4461 453.569 96.4461C457.219 96.4461 460.169 94.2961 461.619 90.4961ZM481.941 74.2961V80.8961H480.591C479.791 75.6961 477.241 72.5961 473.141 72.5961C470.041 72.5961 467.891 74.3461 467.891 76.8461C467.891 83.6461 483.641 82.8461 483.641 92.5461C483.641 97.6461 479.341 101.096 473.141 101.096C468.691 101.096 463.891 99.2961 463.891 97.3961V90.3461H465.241C466.141 96.2961 470.941 99.5461 474.591 99.5461C477.241 99.5461 479.141 97.7961 479.141 95.1461C479.141 87.6461 463.691 88.2961 463.691 78.8461C463.691 74.0461 467.691 71.0961 474.241 71.0961C478.591 71.0961 481.691 72.3961 481.941 74.2961ZM517.972 93.4461C517.972 96.1461 517.672 98.4961 521.422 99.1461V100.246H509.572V99.1461C513.322 98.4961 513.022 96.1461 513.022 93.4461V80.7461C513.022 76.3461 511.622 74.2961 508.572 74.2961C506.422 74.2961 504.472 75.4961 502.472 77.8961V93.4461C502.472 96.1461 502.172 98.4961 505.922 99.1461V100.246H494.072V99.1461C497.822 98.4961 497.522 96.1461 497.522 93.4461V79.5961C497.522 76.1961 496.572 74.6961 493.822 75.5961L493.422 74.4461L502.472 71.0961V76.2961C505.522 72.7461 508.272 71.0961 511.322 71.0961C514.472 71.0961 516.522 72.8461 517.422 76.2961C520.422 72.8461 523.622 71.0961 526.822 71.0961C531.222 71.0961 533.472 74.4961 533.472 81.0961V93.4461C533.472 96.1461 533.172 98.4961 536.922 99.1461V100.246H525.072V99.1461C528.822 98.4961 528.522 96.1461 528.522 93.4461V80.7461C528.522 76.2961 527.122 74.2961 524.072 74.2961C521.872 74.2961 519.672 75.4461 517.722 77.5961C517.872 78.6461 517.972 79.7961 517.972 81.0961V93.4461ZM549.18 101.096C540.88 101.096 537.08 93.5961 537.08 85.7961C537.08 77.9461 540.93 71.0961 549.18 71.0961C557.43 71.0961 561.28 77.9461 561.28 85.7961C561.28 93.5961 557.48 101.096 549.18 101.096ZM549.18 99.6461C554.63 99.6461 555.73 90.0461 555.73 85.8461C555.73 81.5461 554.68 72.5461 549.18 72.5461C543.68 72.5461 542.63 81.5461 542.63 85.8461C542.63 90.0461 543.73 99.6461 549.18 99.6461ZM583.393 74.8461C583.393 76.4961 582.143 77.6961 580.393 77.6961C577.443 77.6961 578.193 74.4961 575.643 74.4961C574.043 74.4961 572.043 75.7461 570.343 77.8461V93.4461C570.343 96.1461 570.043 98.4961 573.793 99.1461V100.246H561.943V99.1461C565.693 98.4961 565.393 96.1461 565.393 93.4461V79.5961C565.393 76.1961 564.443 74.6961 561.693 75.5961L561.293 74.4461L570.343 71.0961V76.0961C572.993 72.9961 576.043 71.0961 578.643 71.0961C581.093 71.0961 583.393 72.7461 583.393 74.8461ZM586.937 80.7461H599.537C599.487 75.3961 597.637 72.6961 594.087 72.6961C590.337 72.6961 587.587 75.8961 586.937 80.7461ZM604.637 90.4961L605.687 90.6961C604.437 97.0961 600.137 101.096 594.537 101.096C587.587 101.096 582.637 94.9461 582.637 86.1961C582.637 77.2961 587.787 71.0961 595.237 71.0961C601.937 71.0961 604.937 75.9461 604.937 82.1961H586.787V83.1461C586.787 89.5961 590.037 96.4461 596.587 96.4461C600.237 96.4461 603.187 94.2961 604.637 90.4961ZM624.942 63.8461V71.7461H631.292V73.1461H624.942V92.8461C624.942 96.0461 625.942 97.5461 628.192 97.5461C629.742 97.5461 630.842 96.7961 631.492 95.2461L632.542 95.5461C631.792 98.8961 629.192 101.096 625.992 101.096C622.292 101.096 619.992 98.1961 619.992 93.4461V73.1461H615.742V71.7961C619.692 71.4961 622.192 68.7461 623.592 63.8461H624.942ZM657.884 81.0961V93.4461C657.884 96.1461 657.584 98.4961 661.334 99.1461V100.246H649.484V99.1461C653.234 98.4961 652.934 96.1461 652.934 93.4461V80.8961C652.934 77.4961 652.284 74.4461 648.334 74.4461C645.584 74.4461 643.284 75.9461 641.534 77.9961V93.4461C641.534 96.1461 641.234 98.4961 644.984 99.1461V100.246H633.134V99.1461C636.884 98.4961 636.584 96.1461 636.584 93.4461V64.5461C636.584 61.1461 635.634 59.6461 632.884 60.5461L632.484 59.3961L641.534 56.0461V76.2961C644.434 72.8461 647.784 71.0961 651.234 71.0961C656.934 71.0961 657.884 76.3961 657.884 81.0961ZM677.886 94.5461V87.0461C673.386 87.2461 667.086 88.3961 667.086 93.2961C667.086 95.9461 668.836 97.5961 671.386 97.5961C673.436 97.5961 675.736 96.4961 677.886 94.5461ZM673.486 71.0961C679.536 71.0961 682.836 73.4961 682.836 81.7461V92.2461C682.836 95.2461 683.386 96.4961 684.836 96.4961C685.186 96.4961 685.686 96.3961 686.186 96.2461L686.586 97.3961L679.336 100.246H677.886V96.2961C674.536 99.5961 671.736 101.096 668.686 101.096C664.586 101.096 661.886 98.4461 661.886 94.6461C661.886 89.3461 667.086 85.8461 677.886 85.5461V80.5461C677.886 75.0461 676.186 72.5961 672.736 72.5961C667.886 72.5961 669.436 77.3961 667.636 79.3961C667.136 79.9461 666.336 80.2461 665.536 80.2461C664.086 80.2461 662.586 79.1961 663.086 76.6461C663.686 73.4961 667.436 71.0961 673.486 71.0961ZM711.4 93.4461C711.4 96.1461 711.1 98.4961 714.85 99.1461V100.246H703V99.1461C706.75 98.4961 706.45 96.1461 706.45 93.4461V80.8961C706.45 77.4961 705.8 74.4461 701.85 74.4461C699.1 74.4461 696.8 75.9461 695.05 77.9961V93.4461C695.05 96.1461 694.75 98.4961 698.5 99.1461V100.246H686.65V99.1461C690.4 98.4961 690.1 96.1461 690.1 93.4461V79.5961C690.1 76.1961 689.15 74.6961 686.4 75.5961L686 74.4461L695.05 71.0961V76.2961C697.95 72.8461 701.3 71.0961 704.75 71.0961C710.45 71.0961 711.4 76.3961 711.4 81.0961V93.4461ZM740.825 94.5461V87.0461C736.325 87.2461 730.025 88.3961 730.025 93.2961C730.025 95.9461 731.775 97.5961 734.325 97.5961C736.375 97.5961 738.675 96.4961 740.825 94.5461ZM736.425 71.0961C742.475 71.0961 745.775 73.4961 745.775 81.7461V92.2461C745.775 95.2461 746.325 96.4961 747.775 96.4961C748.125 96.4961 748.625 96.3961 749.125 96.2461L749.525 97.3961L742.275 100.246H740.825V96.2961C737.475 99.5961 734.675 101.096 731.625 101.096C727.525 101.096 724.825 98.4461 724.825 94.6461C724.825 89.3461 730.025 85.8461 740.825 85.5461V80.5461C740.825 75.0461 739.125 72.5961 735.675 72.5961C730.825 72.5961 732.375 77.3961 730.575 79.3961C730.075 79.9461 729.275 80.2461 728.475 80.2461C727.025 80.2461 725.525 79.1961 726.025 76.6461C726.625 73.4961 730.375 71.0961 736.425 71.0961ZM768.155 63.8461V71.7461H774.505V73.1461H768.155V92.8461C768.155 96.0461 769.155 97.5461 771.405 97.5461C772.955 97.5461 774.055 96.7961 774.705 95.2461L775.755 95.5461C775.005 98.8961 772.405 101.096 769.205 101.096C765.505 101.096 763.205 98.1961 763.205 93.4461V73.1461H758.955V71.7961C762.905 71.4961 765.405 68.7461 766.805 63.8461H768.155ZM779.759 80.7461H792.359C792.309 75.3961 790.459 72.6961 786.909 72.6961C783.159 72.6961 780.409 75.8961 779.759 80.7461ZM797.459 90.4961L798.509 90.6961C797.259 97.0961 792.959 101.096 787.359 101.096C780.409 101.096 775.459 94.9461 775.459 86.1961C775.459 77.2961 780.609 71.0961 788.059 71.0961C794.759 71.0961 797.759 75.9461 797.759 82.1961H779.609V83.1461C779.609 89.5961 782.859 96.4461 789.409 96.4461C793.059 96.4461 796.009 94.2961 797.459 90.4961ZM823.099 93.4461C823.099 96.1461 822.799 98.4961 826.549 99.1461V100.246H814.699V99.1461C818.449 98.4961 818.149 96.1461 818.149 93.4461V80.7461C818.149 76.3461 816.749 74.2961 813.699 74.2961C811.549 74.2961 809.599 75.4961 807.599 77.8961V93.4461C807.599 96.1461 807.299 98.4961 811.049 99.1461V100.246H799.199V99.1461C802.949 98.4961 802.649 96.1461 802.649 93.4461V79.5961C802.649 76.1961 801.699 74.6961 798.949 75.5961L798.549 74.4461L807.599 71.0961V76.2961C810.649 72.7461 813.399 71.0961 816.449 71.0961C819.599 71.0961 821.649 72.8461 822.549 76.2961C825.549 72.8461 828.749 71.0961 831.949 71.0961C836.349 71.0961 838.599 74.4961 838.599 81.0961V93.4461C838.599 96.1461 838.299 98.4961 842.049 99.1461V100.246H830.199V99.1461C833.949 98.4961 833.649 96.1461 833.649 93.4461V80.7461C833.649 76.2961 832.249 74.2961 829.199 74.2961C826.999 74.2961 824.799 75.4461 822.849 77.5961C822.999 78.6461 823.099 79.7961 823.099 81.0961V93.4461ZM851.413 76.2961V95.9961C852.213 98.2461 854.363 99.6461 857.113 99.6461C862.163 99.6461 865.463 94.8461 865.463 87.6961C865.463 79.9461 861.613 74.2961 856.363 74.2961C854.513 74.2961 852.863 74.9961 851.413 76.2961ZM846.463 106.446V79.5961C846.463 76.8461 845.413 75.3461 843.563 75.3461C843.113 75.3461 842.663 75.4461 842.113 75.5961L841.713 74.4461L851.413 71.0961V74.4461C853.813 72.2461 856.413 71.0961 859.313 71.0961C865.913 71.0961 870.463 76.8961 870.463 85.2461C870.463 94.6461 864.663 101.096 856.363 101.096C854.613 101.096 852.963 100.796 851.413 100.246V106.446C851.413 109.146 851.113 111.496 854.863 112.146V113.246H842.363V112.146C846.463 111.596 846.463 109.696 846.463 106.446ZM870.39 100.246V99.1461C874.14 98.4961 873.84 96.1461 873.84 93.4461V64.5461C873.84 61.1461 872.89 59.6461 870.14 60.5461L869.74 59.3961L878.79 56.0461V93.4461C878.79 96.1461 878.49 98.4961 882.24 99.1461V100.246H870.39ZM898.687 94.5461V87.0461C894.187 87.2461 887.887 88.3961 887.887 93.2961C887.887 95.9461 889.637 97.5961 892.187 97.5961C894.237 97.5961 896.537 96.4961 898.687 94.5461ZM894.287 71.0961C900.337 71.0961 903.637 73.4961 903.637 81.7461V92.2461C903.637 95.2461 904.187 96.4961 905.637 96.4961C905.987 96.4961 906.487 96.3961 906.987 96.2461L907.387 97.3961L900.137 100.246H898.687V96.2961C895.337 99.5961 892.537 101.096 889.487 101.096C885.387 101.096 882.687 98.4461 882.687 94.6461C882.687 89.3461 887.887 85.8461 898.687 85.5461V80.5461C898.687 75.0461 896.987 72.5961 893.537 72.5961C888.687 72.5961 890.237 77.3961 888.437 79.3961C887.937 79.9461 887.137 80.2461 886.337 80.2461C884.887 80.2461 883.387 79.1961 883.887 76.6461C884.487 73.4961 888.237 71.0961 894.287 71.0961ZM914.981 63.8461V71.7461H921.331V73.1461H914.981V92.8461C914.981 96.0461 915.981 97.5461 918.231 97.5461C919.781 97.5461 920.881 96.7961 921.531 95.2461L922.581 95.5461C921.831 98.8961 919.231 101.096 916.031 101.096C912.331 101.096 910.031 98.1961 910.031 93.4461V73.1461H905.781V71.7961C909.731 71.4961 912.231 68.7461 913.631 63.8461H914.981ZM926.585 80.7461H939.185C939.135 75.3961 937.285 72.6961 933.735 72.6961C929.985 72.6961 927.235 75.8961 926.585 80.7461ZM944.285 90.4961L945.335 90.6961C944.085 97.0961 939.785 101.096 934.185 101.096C927.235 101.096 922.285 94.9461 922.285 86.1961C922.285 77.2961 927.435 71.0961 934.885 71.0961C941.585 71.0961 944.585 75.9461 944.585 82.1961H926.435V83.1461C926.435 89.5961 929.685 96.4461 936.235 96.4461C939.885 96.4461 942.835 94.2961 944.285 90.4961Z" fill="white"/>
<path d="M1 53.4375C1 54.0667 5.09125 56.5933 11.8015 60.4021C15.4433 62.9525 17.52 64.2396 19.4106 65.1882C20.2784 65.8222 20.9603 66.7661 21.6629 67.7385" stroke="white" stroke-width="2" stroke-linecap="round"/>
<path d="M24.7617 36.2773C26.1358 37.2212 28.1918 41.6545 29.9223 45.7971C30.6093 47.6991 31.9834 50.8739 33.874 54.8401C34.7419 56.6039 35.4238 57.8624 36.1263 59.159" stroke="white" stroke-width="2" stroke-linecap="round"/>
<path d="M59.8887 1V54.3905" stroke="white" stroke-width="2" stroke-linecap="round"/>
<path d="M936 109.891C936 110.589 936.568 114.442 938.469 123.664C939.802 129.392 941.884 137.251 943.051 141.562C944.218 145.872 944.407 146.396 944.602 146.936" stroke="white" stroke-width="2" stroke-linecap="round"/>
<path d="M952 109.891C952.378 111.473 955.796 117.776 957.921 122.933C958.303 123.645 958.87 124.169 959.257 124.701C959.645 125.233 959.834 125.757 960.029 126.826" stroke="white" stroke-width="2" stroke-linecap="round"/>
<path d="M959.893 102.777C961.407 104.873 963.133 107.175 965.323 109.726C968.082 112.451 970.02 114.415 971.067 115.645C971.735 116.352 972.681 117.225 973.656 118.125" stroke="white" stroke-width="2" stroke-linecap="round"/>
</svg>
