<svg width="120" height="32" viewBox="0 0 120 32" fill="none" xmlns="http://www.w3.org/2000/svg">
<path d="M1 7.59811C21.8169 6.41533 42.6337 5.23256 57.0242 4.091C71.4146 2.94944 78.7478 1.88494 83.0578 1.33656C87.3678 0.788186 88.4323 0.788185 84.013 2.26666C79.5937 3.74513 69.6584 6.70207 61.3467 8.81673C53.035 10.9314 46.648 12.1142 47.734 12.4869C48.82 12.8597 57.5726 12.3866 62.7911 12.202C69.4252 11.9673 71.9558 12.4941 74.2784 12.8525C76.9272 13.2613 79.246 13.2109 82.3929 13.8059C88.4459 14.9503 93.106 15.1249 95.8963 15.4797C101.464 16.1877 106.833 18.2216 110.47 20.3649C113.751 22.9814 116.163 25.6265 117.477 27.8326C117.962 28.8558 118.081 29.6838 118.202 30.5368" stroke="url(#paint0_linear_903_2310)" stroke-width="2" stroke-linecap="round"/>
<defs>
<linearGradient id="paint0_linear_903_2310" x1="52.7385" y1="-7.36876" x2="50.2386" y2="27.9173" gradientUnits="userSpaceOnUse">
<stop offset="0.354971" stop-color="#0A6A97"/>
<stop offset="0.532442" stop-color="#34BDFE"/>
<stop offset="1" stop-color="#17E48A"/>
</linearGradient>
</defs>
</svg>
