<svg width="1440" height="1180" viewBox="0 0 1440 1180" fill="none" xmlns="http://www.w3.org/2000/svg">
<g clip-path="url(#clip0_874_2439)">
<rect width="1440" height="1180" fill="#00080A"/>
<path d="M52.25 665.075C52.25 670.025 49.4 673.2 45 673.2C38.5 673.2 33.95 669.125 33.95 662.525C33.95 658.7 35.85 654.8 40.25 654.8C40.5 654.8 40.775 654.825 41.05 654.85V659.45C39.225 659.45 37.9 660.8 37.9 662.875C37.9 666.325 40.975 668.35 44.6 668.35C46.925 668.35 48.3 666.8 48.3 664.725C48.3 662.5 47 660.8 45 660.2V655.55C49.85 656.15 52.25 660 52.25 665.075ZM52 642.68V647.28L44.425 645.955C44.225 645.93 44.025 645.905 43.85 645.905C43.025 645.905 42.55 646.28 42.55 647.03C42.55 648.28 43.45 649.105 45.075 649.38L52 650.58V655.18L34.2 652.055V647.455L40.35 648.53C39.5 647.805 38.85 646.705 38.85 645.13C38.85 642.58 40.175 641.08 42.45 641.08C42.775 641.08 43.125 641.13 43.475 641.18L52 642.68ZM52.25 636.228C52.25 639.028 50.85 640.553 48.675 640.553C45.875 640.553 44.625 638.578 44.35 635.353L44.1 632.378C44.05 631.703 43.75 631.228 43.2 631.228C42.45 631.228 42.05 631.853 42.05 632.678C42.05 633.753 42.55 634.153 43.35 634.353V638.953C40.45 638.678 38.85 636.653 38.85 632.278C38.85 628.928 40.1 626.653 42.775 626.653C43.125 626.653 43.5 626.678 43.9 626.753L48.7 627.603C49.775 627.803 50.6 627.903 51.175 627.903C51.55 627.903 51.825 627.853 52 627.778V631.978C51.675 632.228 51.3 632.328 50.95 632.328C50.875 632.328 50.775 632.328 50.625 632.303C51.75 633.303 52.25 634.303 52.25 636.228ZM49.2 634.578C49.2 633.178 48.2 632.103 46.975 631.903L46.525 631.828C46.65 631.928 46.7 632.353 46.75 632.853L46.85 634.103C46.95 635.328 47.375 635.953 48.125 635.953C48.75 635.953 49.2 635.503 49.2 634.578ZM52 621.576V626.176L34.2 623.051V618.451L52 621.576ZM52 614.984V619.584L34.2 616.459V611.859L52 614.984ZM52.25 606.292C52.25 610.242 50.175 612.467 46.95 612.467C41.725 612.467 38.85 609.042 38.85 604.592C38.85 600.942 40.85 598.567 44.15 598.567C44.975 598.567 45.8 598.717 46.625 598.967V607.967C46.825 607.992 47 607.992 47.175 607.992C48.475 607.992 49.2 607.317 49.2 605.992C49.2 604.942 48.75 604.117 47.75 603.642V599.367C50.45 600.117 52.25 602.342 52.25 606.292ZM41.9 604.892C41.9 606.142 42.525 606.992 43.725 607.467V602.967C42.525 603.042 41.9 603.642 41.9 604.892ZM52 585.795L52 590.395L44.425 589.07C44.225 589.045 44.025 589.02 43.85 589.02C43.025 589.02 42.55 589.395 42.55 590.145C42.55 591.395 43.45 592.22 45.075 592.495L52 593.695V598.295L39.1 596.045V591.695L40.725 591.97C39.5 591.07 38.85 589.82 38.85 588.245C38.85 585.695 40.175 584.195 42.45 584.195C42.775 584.195 43.125 584.245 43.475 584.295L52 585.795ZM51.5 578.218C51.5 581.393 49.25 583.168 46.575 583.168C42.05 583.168 38.85 580.743 38.85 576.493C38.85 574.743 39.55 573.568 40.95 572.968L39.1 572.643V568.293L50.75 570.343C55.5 571.168 57.15 573.893 57.15 578.093C57.15 581.118 56.125 583.693 52.975 583.693C52.775 583.693 52.575 583.693 52.35 583.668V579.468C53.5 579.468 54.2 578.918 54.2 577.568C54.2 576.243 53.5 575.393 52.1 575.168L50.175 574.843C50.875 575.493 51.5 576.643 51.5 578.218ZM48.3 576.818C48.3 575.068 46.1 573.918 44.075 573.918C42.875 573.918 42.05 574.518 42.05 575.668C42.05 577.418 44.25 578.568 46.275 578.568C47.475 578.568 48.3 577.968 48.3 576.818ZM52.25 561.834C52.25 565.784 50.175 568.009 46.95 568.009C41.725 568.009 38.85 564.584 38.85 560.134C38.85 556.484 40.85 554.109 44.15 554.109C44.975 554.109 45.8 554.259 46.625 554.509V563.509C46.825 563.534 47 563.534 47.175 563.534C48.475 563.534 49.2 562.859 49.2 561.534C49.2 560.484 48.75 559.659 47.75 559.184V554.909C50.45 555.659 52.25 557.884 52.25 561.834ZM41.9 560.434C41.9 561.684 42.525 562.534 43.725 563.009V558.509C42.525 558.584 41.9 559.184 41.9 560.434Z" fill="white"/>
<g clip-path="url(#clip1_874_2439)">
<rect x="81" y="612.715" width="380.021" height="380.021" rx="25" transform="rotate(-45 81 612.715)" fill="black" fill-opacity="0.5"/>
<g filter="url(#filter0_f_874_2439)">
<path d="M621 666.582C621 795.154 524.588 845.6 462.401 845.6C400.213 845.6 349.8 741.372 349.8 612.8C349.8 484.228 400.213 380 462.401 380C524.588 380 621 538.01 621 666.582Z" fill="#009252" fill-opacity="0.3"/>
</g>
<g filter="url(#filter1_f_874_2439)">
<path d="M81.0001 666.582C81.0001 795.154 177.412 845.6 239.599 845.6C301.787 845.6 352.2 741.372 352.2 612.8C352.2 484.228 301.787 380 239.599 380C177.412 380 81.0001 538.01 81.0001 666.582Z" fill="#00829B" fill-opacity="0.3"/>
</g>
<path d="M260.478 588.88C260.478 598.19 255.543 604 245.603 604H234.613L238.988 579.08H249.033C256.243 579.08 260.478 582.51 260.478 588.88ZM253.688 589.44C253.688 586.185 251.693 584.4 248.928 584.4H244.833L242.313 598.68H246.408C251.098 598.68 253.688 594.515 253.688 589.44ZM269.62 604.35C264.09 604.35 260.975 601.445 260.975 596.93C260.975 589.615 265.77 585.59 272 585.59C277.11 585.59 280.435 588.39 280.435 593.01C280.435 594.165 280.225 595.32 279.875 596.475H267.275C267.24 596.755 267.24 597 267.24 597.245C267.24 599.065 268.185 600.08 270.04 600.08C271.51 600.08 272.665 599.45 273.33 598.05H279.315C278.265 601.83 275.15 604.35 269.62 604.35ZM271.58 589.86C269.83 589.86 268.64 590.735 267.975 592.415H274.275C274.17 590.735 273.33 589.86 271.58 589.86ZM289.461 604.35C284.316 604.35 281.061 602.25 281.061 598.96C281.061 598.645 281.061 598.365 281.131 598.05H287.221C287.221 599.59 288.446 600.22 290.126 600.22C291.911 600.22 292.821 599.45 292.821 598.61C292.821 598.05 292.401 597.7 290.896 597.49L288.411 597.14C284.631 596.615 282.776 595.11 282.776 591.855C282.776 587.795 286.836 585.59 292.086 585.59C295.656 585.59 299.961 586.85 299.961 590.77C299.961 591.05 299.926 591.33 299.891 591.61H293.801C293.801 590.245 292.961 589.72 291.421 589.72C290.161 589.72 289.216 590.28 289.216 591.19C289.216 591.75 289.321 591.995 290.476 592.17L292.961 592.52C297.126 593.115 299.261 594.585 299.261 598.12C299.261 602.11 295.131 604.35 289.461 604.35ZM306.773 604H300.333L303.483 585.94H309.923L306.773 604ZM307.158 584.26C305.128 584.26 303.938 583.07 303.938 581.565C303.938 579.43 305.373 577.89 307.998 577.89C310.028 577.89 311.218 579.08 311.218 580.585C311.218 582.72 309.783 584.26 307.158 584.26ZM317.366 603.3C312.921 603.3 310.436 600.15 310.436 596.405C310.436 590.07 313.831 585.59 319.781 585.59C322.231 585.59 323.876 586.57 324.716 588.53L325.171 585.94H331.261L328.391 602.25C327.236 608.9 323.421 611.21 317.541 611.21C313.306 611.21 309.701 609.775 309.701 605.365C309.701 605.085 309.701 604.805 309.736 604.49H315.616C315.616 606.1 316.386 607.08 318.276 607.08C320.131 607.08 321.321 606.1 321.636 604.14L322.091 601.445C321.181 602.425 319.571 603.3 317.366 603.3ZM319.326 598.82C321.776 598.82 323.386 595.74 323.386 592.905C323.386 591.225 322.546 590.07 320.936 590.07C318.486 590.07 316.876 593.15 316.876 595.985C316.876 597.665 317.716 598.82 319.326 598.82ZM348.424 604H341.984L343.839 593.395C343.874 593.115 343.909 592.835 343.909 592.59C343.909 591.435 343.384 590.77 342.334 590.77C340.584 590.77 339.429 592.03 339.044 594.305L337.364 604H330.924L334.074 585.94H340.164L339.779 588.215C341.039 586.5 342.789 585.59 344.994 585.59C348.564 585.59 350.664 587.445 350.664 590.63C350.664 591.085 350.594 591.575 350.524 592.065L348.424 604ZM357.666 604H351.226L354.376 585.94H360.816L357.666 604ZM358.051 584.26C356.021 584.26 354.831 583.07 354.831 581.565C354.831 579.43 356.266 577.89 358.891 577.89C360.921 577.89 362.111 579.08 362.111 580.585C362.111 582.72 360.676 584.26 358.051 584.26ZM377.955 604H371.515L373.37 593.395C373.405 593.115 373.44 592.835 373.44 592.59C373.44 591.435 372.915 590.77 371.865 590.77C370.115 590.77 368.96 592.03 368.575 594.305L366.895 604H360.455L363.605 585.94H369.695L369.31 588.215C370.57 586.5 372.32 585.59 374.525 585.59C378.095 585.59 380.195 587.445 380.195 590.63C380.195 591.085 380.125 591.575 380.055 592.065L377.955 604ZM388.563 603.3C384.118 603.3 381.633 600.15 381.633 596.405C381.633 590.07 385.028 585.59 390.978 585.59C393.428 585.59 395.073 586.57 395.913 588.53L396.368 585.94H402.458L399.588 602.25C398.433 608.9 394.618 611.21 388.738 611.21C384.503 611.21 380.898 609.775 380.898 605.365C380.898 605.085 380.898 604.805 380.933 604.49H386.813C386.813 606.1 387.583 607.08 389.473 607.08C391.328 607.08 392.518 606.1 392.833 604.14L393.288 601.445C392.378 602.425 390.768 603.3 388.563 603.3ZM390.523 598.82C392.973 598.82 394.583 595.74 394.583 592.905C394.583 591.225 393.743 590.07 392.133 590.07C389.683 590.07 388.073 593.15 388.073 595.985C388.073 597.665 388.913 598.82 390.523 598.82ZM418.955 604.21C414.965 604.21 413.215 603.125 413.215 600.08C413.215 599.45 413.285 598.75 413.425 597.945L414.755 590.42H412.2L412.97 585.94H415.525L416.505 580.48H422.945L421.965 585.94H425.36L424.59 590.42H421.195L419.83 598.19C419.795 598.365 419.795 598.505 419.795 598.645C419.795 599.38 420.215 599.73 421.09 599.73H422.945L422.21 604C421.335 604.07 419.9 604.21 418.955 604.21ZM442.008 604H435.568L437.423 593.395C437.458 593.115 437.493 592.835 437.493 592.59C437.493 591.435 436.968 590.77 435.918 590.77C434.168 590.77 433.013 592.03 432.628 594.305L430.948 604H424.508L428.883 579.08H435.323L433.818 587.69C434.833 586.5 436.373 585.59 438.578 585.59C442.148 585.59 444.248 587.445 444.248 590.63C444.248 591.085 444.178 591.575 444.108 592.065L442.008 604ZM454.19 604.35C448.66 604.35 445.545 601.445 445.545 596.93C445.545 589.615 450.34 585.59 456.57 585.59C461.68 585.59 465.005 588.39 465.005 593.01C465.005 594.165 464.795 595.32 464.445 596.475H451.845C451.81 596.755 451.81 597 451.81 597.245C451.81 599.065 452.755 600.08 454.61 600.08C456.08 600.08 457.235 599.45 457.9 598.05H463.885C462.835 601.83 459.72 604.35 454.19 604.35ZM456.15 589.86C454.4 589.86 453.21 590.735 452.545 592.415H458.845C458.74 590.735 457.9 589.86 456.15 589.86ZM260.34 646H253.9L257.05 627.94H263.14L262.51 631.475C263.665 628.71 265.275 627.66 267.55 627.66C268.04 627.66 269.265 627.8 269.51 627.94L268.53 633.54H266.22C263.77 633.54 262.23 635.15 261.74 637.95L260.34 646ZM274.9 646H268.46L271.61 627.94H278.05L274.9 646ZM275.285 626.26C273.255 626.26 272.065 625.07 272.065 623.565C272.065 621.43 273.5 619.89 276.125 619.89C278.155 619.89 279.345 621.08 279.345 622.585C279.345 624.72 277.91 626.26 275.285 626.26ZM285.494 645.3C281.049 645.3 278.564 642.15 278.564 638.405C278.564 632.07 281.959 627.59 287.909 627.59C290.359 627.59 292.004 628.57 292.844 630.53L293.299 627.94H299.389L296.519 644.25C295.364 650.9 291.549 653.21 285.669 653.21C281.434 653.21 277.829 651.775 277.829 647.365C277.829 647.085 277.829 646.805 277.864 646.49H283.744C283.744 648.1 284.514 649.08 286.404 649.08C288.259 649.08 289.449 648.1 289.764 646.14L290.219 643.445C289.309 644.425 287.699 645.3 285.494 645.3ZM287.454 640.82C289.904 640.82 291.514 637.74 291.514 634.905C291.514 633.225 290.674 632.07 289.064 632.07C286.614 632.07 285.004 635.15 285.004 637.985C285.004 639.665 285.844 640.82 287.454 640.82ZM316.551 646H310.111L311.966 635.395C312.001 635.115 312.036 634.835 312.036 634.59C312.036 633.435 311.511 632.77 310.461 632.77C308.711 632.77 307.556 634.03 307.171 636.305L305.491 646H299.051L303.426 621.08H309.866L308.361 629.69C309.376 628.5 310.916 627.59 313.121 627.59C316.691 627.59 318.791 629.445 318.791 632.63C318.791 633.085 318.721 633.575 318.651 634.065L316.551 646ZM327.097 646.21C323.107 646.21 321.357 645.125 321.357 642.08C321.357 641.45 321.427 640.75 321.567 639.945L322.897 632.42H320.342L321.112 627.94H323.667L324.647 622.48H331.087L330.107 627.94H333.502L332.732 632.42H329.337L327.972 640.19C327.937 640.365 327.937 640.505 327.937 640.645C327.937 641.38 328.357 641.73 329.232 641.73H331.087L330.352 646C329.477 646.07 328.042 646.21 327.097 646.21ZM349.485 646.21C345.495 646.21 343.745 645.125 343.745 642.08C343.745 641.45 343.815 640.75 343.955 639.945L345.285 632.42H342.73L343.5 627.94H346.055L347.035 622.48H353.475L352.495 627.94H355.89L355.12 632.42H351.725L350.36 640.19C350.325 640.365 350.325 640.505 350.325 640.645C350.325 641.38 350.745 641.73 351.62 641.73H353.475L352.74 646C351.865 646.07 350.43 646.21 349.485 646.21ZM372.537 646H366.097L367.952 635.395C367.987 635.115 368.022 634.835 368.022 634.59C368.022 633.435 367.497 632.77 366.447 632.77C364.697 632.77 363.542 634.03 363.157 636.305L361.477 646H355.037L359.412 621.08H365.852L364.347 629.69C365.362 628.5 366.902 627.59 369.107 627.59C372.677 627.59 374.777 629.445 374.777 632.63C374.777 633.085 374.707 633.575 374.637 634.065L372.537 646ZM381.78 646H375.34L378.49 627.94H384.93L381.78 646ZM382.165 626.26C380.135 626.26 378.945 625.07 378.945 623.565C378.945 621.43 380.38 619.89 383.005 619.89C385.035 619.89 386.225 621.08 386.225 622.585C386.225 624.72 384.79 626.26 382.165 626.26ZM402.069 646H395.629L397.484 635.395C397.519 635.115 397.554 634.835 397.554 634.59C397.554 633.435 397.029 632.77 395.979 632.77C394.229 632.77 393.074 634.03 392.689 636.305L391.009 646H384.569L387.719 627.94H393.809L393.424 630.215C394.684 628.5 396.434 627.59 398.639 627.59C402.209 627.59 404.309 629.445 404.309 632.63C404.309 633.085 404.239 633.575 404.169 634.065L402.069 646ZM412.676 645.3C408.231 645.3 405.746 642.15 405.746 638.405C405.746 632.07 409.141 627.59 415.091 627.59C417.541 627.59 419.186 628.57 420.026 630.53L420.481 627.94H426.571L423.701 644.25C422.546 650.9 418.731 653.21 412.851 653.21C408.616 653.21 405.011 651.775 405.011 647.365C405.011 647.085 405.011 646.805 405.046 646.49H410.926C410.926 648.1 411.696 649.08 413.586 649.08C415.441 649.08 416.631 648.1 416.946 646.14L417.401 643.445C416.491 644.425 414.881 645.3 412.676 645.3ZM414.636 640.82C417.086 640.82 418.696 637.74 418.696 634.905C418.696 633.225 417.856 632.07 416.246 632.07C413.796 632.07 412.186 635.15 412.186 637.985C412.186 639.665 413.026 640.82 414.636 640.82ZM434.879 646.35C429.734 646.35 426.479 644.25 426.479 640.96C426.479 640.645 426.479 640.365 426.549 640.05H432.639C432.639 641.59 433.864 642.22 435.544 642.22C437.329 642.22 438.239 641.45 438.239 640.61C438.239 640.05 437.819 639.7 436.314 639.49L433.829 639.14C430.049 638.615 428.194 637.11 428.194 633.855C428.194 629.795 432.254 627.59 437.504 627.59C441.074 627.59 445.379 628.85 445.379 632.77C445.379 633.05 445.344 633.33 445.309 633.61H439.219C439.219 632.245 438.379 631.72 436.839 631.72C435.579 631.72 434.634 632.28 434.634 633.19C434.634 633.75 434.739 633.995 435.894 634.17L438.379 634.52C442.544 635.115 444.679 636.585 444.679 640.12C444.679 644.11 440.549 646.35 434.879 646.35Z" fill="url(#paint0_linear_874_2439)"/>
</g>
<rect x="81.2141" y="612.715" width="379.718" height="379.718" rx="24.8486" transform="rotate(-45 81.2141 612.715)" stroke="white" stroke-width="0.302821"/>
<g clip-path="url(#clip2_874_2439)">
<rect x="618" y="612.715" width="380.021" height="380.021" rx="25" transform="rotate(-45 618 612.715)" fill="black" fill-opacity="0.5"/>
<g filter="url(#filter2_f_874_2439)">
<path d="M1158 666.582C1158 795.154 1061.59 845.6 999.401 845.6C937.213 845.6 886.8 741.372 886.8 612.8C886.8 484.228 937.213 380 999.401 380C1061.59 380 1158 538.01 1158 666.582Z" fill="#009252" fill-opacity="0.3"/>
</g>
<g filter="url(#filter3_f_874_2439)">
<path d="M618 666.582C618 795.154 714.412 845.6 776.599 845.6C838.787 845.6 889.2 741.372 889.2 612.8C889.2 484.228 838.787 380 776.599 380C714.412 380 618 538.01 618 666.582Z" fill="#00829B" fill-opacity="0.3"/>
</g>
<path d="M796.043 588.88C796.043 598.19 791.108 604 781.168 604H770.178L774.553 579.08H784.598C791.808 579.08 796.043 582.51 796.043 588.88ZM789.253 589.44C789.253 586.185 787.258 584.4 784.493 584.4H780.398L777.878 598.68H781.973C786.663 598.68 789.253 594.515 789.253 589.44ZM805.184 604.35C799.654 604.35 796.539 601.445 796.539 596.93C796.539 589.615 801.334 585.59 807.564 585.59C812.674 585.59 815.999 588.39 815.999 593.01C815.999 594.165 815.789 595.32 815.439 596.475H802.839C802.804 596.755 802.804 597 802.804 597.245C802.804 599.065 803.749 600.08 805.604 600.08C807.074 600.08 808.229 599.45 808.894 598.05H814.879C813.829 601.83 810.714 604.35 805.184 604.35ZM807.144 589.86C805.394 589.86 804.204 590.735 803.539 592.415H809.839C809.734 590.735 808.894 589.86 807.144 589.86ZM822.821 604H816.381L820.756 579.08H827.196L822.821 604ZM832.049 604H825.609L828.759 585.94H835.199L832.049 604ZM832.434 584.26C830.404 584.26 829.214 583.07 829.214 581.565C829.214 579.43 830.649 577.89 833.274 577.89C835.304 577.89 836.494 579.08 836.494 580.585C836.494 582.72 835.059 584.26 832.434 584.26ZM847.508 604H839.668L836.588 585.94H843.028L844.253 598.47L849.888 585.94H856.888L847.508 604ZM863.905 604.35C858.375 604.35 855.26 601.445 855.26 596.93C855.26 589.615 860.055 585.59 866.285 585.59C871.395 585.59 874.72 588.39 874.72 593.01C874.72 594.165 874.51 595.32 874.16 596.475H861.56C861.525 596.755 861.525 597 861.525 597.245C861.525 599.065 862.47 600.08 864.325 600.08C865.795 600.08 866.95 599.45 867.615 598.05H873.6C872.55 601.83 869.435 604.35 863.905 604.35ZM865.865 589.86C864.115 589.86 862.925 590.735 862.26 592.415H868.56C868.455 590.735 867.615 589.86 865.865 589.86ZM881.541 604H875.101L878.251 585.94H884.341L883.711 589.475C884.866 586.71 886.476 585.66 888.751 585.66C889.241 585.66 890.466 585.8 890.711 585.94L889.731 591.54H887.421C884.971 591.54 883.431 593.15 882.941 595.95L881.541 604ZM896.102 604H889.662L892.812 585.94H899.252L896.102 604ZM896.487 584.26C894.457 584.26 893.267 583.07 893.267 581.565C893.267 579.43 894.702 577.89 897.327 577.89C899.357 577.89 900.547 579.08 900.547 580.585C900.547 582.72 899.112 584.26 896.487 584.26ZM916.39 604H909.95L911.805 593.395C911.84 593.115 911.875 592.835 911.875 592.59C911.875 591.435 911.35 590.77 910.3 590.77C908.55 590.77 907.395 592.03 907.01 594.305L905.33 604H898.89L902.04 585.94H908.13L907.745 588.215C909.005 586.5 910.755 585.59 912.96 585.59C916.53 585.59 918.63 587.445 918.63 590.63C918.63 591.085 918.56 591.575 918.49 592.065L916.39 604ZM926.998 603.3C922.553 603.3 920.068 600.15 920.068 596.405C920.068 590.07 923.463 585.59 929.413 585.59C931.863 585.59 933.508 586.57 934.348 588.53L934.803 585.94H940.893L938.023 602.25C936.868 608.9 933.053 611.21 927.173 611.21C922.938 611.21 919.333 609.775 919.333 605.365C919.333 605.085 919.333 604.805 919.368 604.49H925.248C925.248 606.1 926.018 607.08 927.908 607.08C929.763 607.08 930.953 606.1 931.268 604.14L931.723 601.445C930.813 602.425 929.203 603.3 926.998 603.3ZM928.958 598.82C931.408 598.82 933.018 595.74 933.018 592.905C933.018 591.225 932.178 590.07 930.568 590.07C928.118 590.07 926.508 593.15 926.508 595.985C926.508 597.665 927.348 598.82 928.958 598.82ZM957.39 604.21C953.4 604.21 951.65 603.125 951.65 600.08C951.65 599.45 951.72 598.75 951.86 597.945L953.19 590.42H950.635L951.405 585.94H953.96L954.94 580.48H961.38L960.4 585.94H963.795L963.025 590.42H959.63L958.265 598.19C958.23 598.365 958.23 598.505 958.23 598.645C958.23 599.38 958.65 599.73 959.525 599.73H961.38L960.645 604C959.77 604.07 958.335 604.21 957.39 604.21ZM980.443 604H974.003L975.858 593.395C975.893 593.115 975.928 592.835 975.928 592.59C975.928 591.435 975.403 590.77 974.353 590.77C972.603 590.77 971.448 592.03 971.063 594.305L969.383 604H962.943L967.318 579.08H973.758L972.253 587.69C973.268 586.5 974.808 585.59 977.013 585.59C980.583 585.59 982.683 587.445 982.683 590.63C982.683 591.085 982.613 591.575 982.543 592.065L980.443 604ZM992.626 604.35C987.096 604.35 983.981 601.445 983.981 596.93C983.981 589.615 988.776 585.59 995.006 585.59C1000.12 585.59 1003.44 588.39 1003.44 593.01C1003.44 594.165 1003.23 595.32 1002.88 596.475H990.281C990.246 596.755 990.246 597 990.246 597.245C990.246 599.065 991.191 600.08 993.046 600.08C994.516 600.08 995.671 599.45 996.336 598.05H1002.32C1001.27 601.83 998.156 604.35 992.626 604.35ZM994.586 589.86C992.836 589.86 991.646 590.735 990.981 592.415H997.281C997.176 590.735 996.336 589.86 994.586 589.86ZM798.985 646.21C794.995 646.21 793.245 645.125 793.245 642.08C793.245 641.45 793.315 640.75 793.455 639.945L794.785 632.42H792.23L793 627.94H795.555L796.535 622.48H802.975L801.995 627.94H805.39L804.62 632.42H801.225L799.86 640.19C799.825 640.365 799.825 640.505 799.825 640.645C799.825 641.38 800.245 641.73 801.12 641.73H802.975L802.24 646C801.365 646.07 799.93 646.21 798.985 646.21ZM822.037 646H815.597L817.452 635.395C817.487 635.115 817.522 634.835 817.522 634.59C817.522 633.435 816.997 632.77 815.947 632.77C814.197 632.77 813.042 634.03 812.657 636.305L810.977 646H804.537L808.912 621.08H815.352L813.847 629.69C814.862 628.5 816.402 627.59 818.607 627.59C822.177 627.59 824.277 629.445 824.277 632.63C824.277 633.085 824.207 633.575 824.137 634.065L822.037 646ZM831.28 646H824.84L827.99 627.94H834.43L831.28 646ZM831.665 626.26C829.635 626.26 828.445 625.07 828.445 623.565C828.445 621.43 829.88 619.89 832.505 619.89C834.535 619.89 835.725 621.08 835.725 622.585C835.725 624.72 834.29 626.26 831.665 626.26ZM851.569 646H845.129L846.984 635.395C847.019 635.115 847.054 634.835 847.054 634.59C847.054 633.435 846.529 632.77 845.479 632.77C843.729 632.77 842.574 634.03 842.189 636.305L840.509 646H834.069L837.219 627.94H843.309L842.924 630.215C844.184 628.5 845.934 627.59 848.139 627.59C851.709 627.59 853.809 629.445 853.809 632.63C853.809 633.085 853.739 633.575 853.669 634.065L851.569 646ZM862.176 645.3C857.731 645.3 855.246 642.15 855.246 638.405C855.246 632.07 858.641 627.59 864.591 627.59C867.041 627.59 868.686 628.57 869.526 630.53L869.981 627.94H876.071L873.201 644.25C872.046 650.9 868.231 653.21 862.351 653.21C858.116 653.21 854.511 651.775 854.511 647.365C854.511 647.085 854.511 646.805 854.546 646.49H860.426C860.426 648.1 861.196 649.08 863.086 649.08C864.941 649.08 866.131 648.1 866.446 646.14L866.901 643.445C865.991 644.425 864.381 645.3 862.176 645.3ZM864.136 640.82C866.586 640.82 868.196 637.74 868.196 634.905C868.196 633.225 867.356 632.07 865.746 632.07C863.296 632.07 861.686 635.15 861.686 637.985C861.686 639.665 862.526 640.82 864.136 640.82ZM884.379 646.35C879.234 646.35 875.979 644.25 875.979 640.96C875.979 640.645 875.979 640.365 876.049 640.05H882.139C882.139 641.59 883.364 642.22 885.044 642.22C886.829 642.22 887.739 641.45 887.739 640.61C887.739 640.05 887.319 639.7 885.814 639.49L883.329 639.14C879.549 638.615 877.694 637.11 877.694 633.855C877.694 629.795 881.754 627.59 887.004 627.59C890.574 627.59 894.879 628.85 894.879 632.77C894.879 633.05 894.844 633.33 894.809 633.61H888.719C888.719 632.245 887.879 631.72 886.339 631.72C885.079 631.72 884.134 632.28 884.134 633.19C884.134 633.75 884.239 633.995 885.394 634.17L887.879 634.52C892.044 635.115 894.179 636.585 894.179 640.12C894.179 644.11 890.049 646.35 884.379 646.35ZM910.44 646H904L907.15 627.94H913.24L912.61 631.475C913.765 628.71 915.375 627.66 917.65 627.66C918.14 627.66 919.365 627.8 919.61 627.94L918.63 633.54H916.32C913.87 633.54 912.33 635.15 911.84 637.95L910.44 646ZM925.001 646H918.561L921.711 627.94H928.151L925.001 646ZM925.386 626.26C923.356 626.26 922.166 625.07 922.166 623.565C922.166 621.43 923.601 619.89 926.226 619.89C928.256 619.89 929.446 621.08 929.446 622.585C929.446 624.72 928.011 626.26 925.386 626.26ZM935.594 645.3C931.149 645.3 928.664 642.15 928.664 638.405C928.664 632.07 932.059 627.59 938.009 627.59C940.459 627.59 942.104 628.57 942.944 630.53L943.399 627.94H949.489L946.619 644.25C945.464 650.9 941.649 653.21 935.769 653.21C931.534 653.21 927.929 651.775 927.929 647.365C927.929 647.085 927.929 646.805 927.964 646.49H933.844C933.844 648.1 934.614 649.08 936.504 649.08C938.359 649.08 939.549 648.1 939.864 646.14L940.319 643.445C939.409 644.425 937.799 645.3 935.594 645.3ZM937.554 640.82C940.004 640.82 941.614 637.74 941.614 634.905C941.614 633.225 940.774 632.07 939.164 632.07C936.714 632.07 935.104 635.15 935.104 637.985C935.104 639.665 935.944 640.82 937.554 640.82ZM966.652 646H960.212L962.067 635.395C962.102 635.115 962.137 634.835 962.137 634.59C962.137 633.435 961.612 632.77 960.562 632.77C958.812 632.77 957.657 634.03 957.272 636.305L955.592 646H949.152L953.527 621.08H959.967L958.462 629.69C959.477 628.5 961.017 627.59 963.222 627.59C966.792 627.59 968.892 629.445 968.892 632.63C968.892 633.085 968.822 633.575 968.752 634.065L966.652 646ZM977.198 646.21C973.208 646.21 971.458 645.125 971.458 642.08C971.458 641.45 971.528 640.75 971.668 639.945L972.998 632.42H970.443L971.213 627.94H973.768L974.748 622.48H981.188L980.208 627.94H983.603L982.833 632.42H979.438L978.073 640.19C978.038 640.365 978.038 640.505 978.038 640.645C978.038 641.38 978.458 641.73 979.333 641.73H981.188L980.453 646C979.578 646.07 978.143 646.21 977.198 646.21Z" fill="url(#paint1_linear_874_2439)"/>
</g>
<rect x="618.214" y="612.715" width="379.718" height="379.718" rx="24.8486" transform="rotate(-45 618.214 612.715)" stroke="white" stroke-width="0.302821"/>
<line x1="80.5" y1="846.309" x2="80.5" y2="379.999" stroke="white" stroke-dasharray="2 6"/>
<line x1="617.5" y1="1061" x2="617.5" y2="380" stroke="white" stroke-dasharray="2 6"/>
<line x1="349.5" y1="1060" x2="349.5" y2="849" stroke="white" stroke-dasharray="2 6"/>
<line x1="886.5" y1="1061" x2="886.5" y2="850" stroke="white" stroke-dasharray="2 6"/>
<line x1="1148.5" y1="1064.03" x2="1148.5" y2="388.999" stroke="white" stroke-dasharray="2 6"/>
<path d="M1147.32 613.279C1344.43 608.499 1473.2 369.281 1438.64 406.288" stroke="#34BDFE" stroke-width="5.2178"/>
<path d="M1148.85 614.278C1291.51 750.376 1551.77 672.456 1501.17 674.153" stroke="#34BDFE" stroke-width="5.2178"/>
<path d="M1161.08 620.373C1324.35 730.923 1568.08 610.915 1518.46 620.983" stroke="#34BDFE" stroke-width="5.2178"/>
<path d="M1167.86 617.568C1349.72 693.755 1565 528.044 1518.34 547.699" stroke="#34BDFE" stroke-width="5.2178"/>
<path d="M1148.85 617.304C1291.51 481.206 1551.77 559.126 1501.17 557.429" stroke="#34BDFE" stroke-width="5.2178"/>
<path d="M1161.08 611.209C1324.35 500.659 1568.08 620.667 1518.46 610.599" stroke="#34BDFE" stroke-width="5.2178"/>
<path d="M1167.86 614.01C1349.72 537.823 1565 703.534 1518.34 683.88" stroke="#34BDFE" stroke-width="5.2178"/>
<path d="M1149.13 615.547C1345.71 630.765 1498.06 405.826 1459.93 439.14" stroke="#34BDFE" stroke-width="5.2178"/>
<path d="M1154.25 610.184C1348.28 645.233 1522.62 436.879 1481.32 466.161" stroke="#34BDFE" stroke-width="5.2178"/>
<path d="M1141.36 615.303C1338.47 620.083 1467.24 859.301 1432.68 822.294" stroke="#34BDFE" stroke-width="5.2178"/>
<path d="M1183.97 610.081C1360.84 600.481 1459.46 818.277 1431.05 785.634" stroke="#34BDFE" stroke-width="5.2178"/>
<path d="M1169.18 615.303C1346.06 605.704 1444.68 823.499 1416.26 790.856" stroke="#34BDFE" stroke-width="5.2178"/>
<path d="M290.261 963.5L323.257 1000.16L290.269 1035.19H91.5V963.5H290.261Z" fill="#0A1613" stroke="url(#paint2_linear_874_2439)"/>
<path d="M147.202 996.511C147.202 1004.2 143.126 1009 134.915 1009H125.837L129.451 988.416H137.749C143.704 988.416 147.202 991.249 147.202 996.511ZM141.594 996.973C141.594 994.284 139.946 992.81 137.662 992.81H134.279L132.198 1004.61H135.58C139.454 1004.61 141.594 1001.17 141.594 996.973ZM152.325 1009H147.005L149.607 994.082H154.927L152.325 1009ZM152.643 992.694C150.966 992.694 149.983 991.711 149.983 990.468C149.983 988.705 151.169 987.433 153.337 987.433C155.014 987.433 155.997 988.416 155.997 989.659C155.997 991.422 154.811 992.694 152.643 992.694ZM161.769 1009.29C157.519 1009.29 154.831 1007.55 154.831 1004.84C154.831 1004.58 154.831 1004.35 154.889 1004.09H159.919C159.919 1005.36 160.931 1005.88 162.319 1005.88C163.793 1005.88 164.545 1005.24 164.545 1004.55C164.545 1004.09 164.198 1003.8 162.955 1003.62L160.902 1003.33C157.78 1002.9 156.247 1001.66 156.247 998.968C156.247 995.614 159.601 993.793 163.938 993.793C166.887 993.793 170.443 994.834 170.443 998.072C170.443 998.303 170.414 998.534 170.385 998.766H165.354C165.354 997.638 164.66 997.204 163.388 997.204C162.348 997.204 161.567 997.667 161.567 998.419C161.567 998.881 161.654 999.084 162.608 999.228L164.66 999.517C168.101 1000.01 169.864 1001.22 169.864 1004.14C169.864 1007.44 166.453 1009.29 161.769 1009.29ZM178.498 1009.29C174.161 1009.29 171.357 1006.98 171.357 1003.16C171.357 997.118 175.028 993.793 180.637 993.793C185.234 993.793 187.547 996.25 187.547 999.113C187.547 999.459 187.489 999.806 187.431 1000.15H182.429C182.429 998.968 181.851 997.783 180.232 997.783C177.919 997.783 176.676 1000.18 176.676 1002.81C176.676 1004.49 177.572 1005.3 178.902 1005.3C180.001 1005.3 181.389 1004.72 181.967 1002.81H186.968C186.303 1006.63 183.759 1009.29 178.498 1009.29ZM195.503 1005.3C197.527 1005.3 199.059 1002.9 199.059 1000.27C199.059 998.592 198.163 997.783 196.833 997.783C194.809 997.783 193.277 1000.18 193.277 1002.81C193.277 1004.49 194.173 1005.3 195.503 1005.3ZM195.099 1009.29C190.762 1009.29 187.958 1006.98 187.958 1003.16C187.958 997.118 191.918 993.793 197.238 993.793C201.575 993.793 204.379 996.106 204.379 999.922C204.379 1005.96 200.418 1009.29 195.099 1009.29ZM213.937 1009H207.461L204.917 994.082H210.237L211.249 1004.43L215.903 994.082H221.685L213.937 1009ZM227.482 1009.29C222.914 1009.29 220.341 1006.89 220.341 1003.16C220.341 997.118 224.302 993.793 229.448 993.793C233.669 993.793 236.415 996.106 236.415 999.922C236.415 1000.88 236.242 1001.83 235.953 1002.78H225.545C225.516 1003.02 225.516 1003.22 225.516 1003.42C225.516 1004.92 226.297 1005.76 227.829 1005.76C229.043 1005.76 229.997 1005.24 230.546 1004.09H235.49C234.623 1007.21 232.05 1009.29 227.482 1009.29ZM229.101 997.32C227.655 997.32 226.672 998.043 226.123 999.431H231.327C231.24 998.043 230.546 997.32 229.101 997.32ZM242.05 1009H236.73L239.332 994.082H244.363L243.842 997.002C244.796 994.718 246.126 993.851 248.005 993.851C248.41 993.851 249.422 993.966 249.624 994.082L248.815 998.708H246.907C244.883 998.708 243.611 1000.04 243.206 1002.35L242.05 1009Z" fill="url(#paint3_linear_874_2439)"/>
<path d="M567.261 963.5L600.257 1000.16L567.269 1035.19H369.369L410.449 1000.55L410.893 1000.18L410.458 999.796L369.322 963.5H567.261Z" fill="#0A1613" stroke="url(#paint4_linear_874_2439)"/>
<path d="M460.547 996.511C460.547 1004.2 456.471 1009 448.26 1009H439.182L442.796 988.416H451.093C457.049 988.416 460.547 991.249 460.547 996.511ZM454.939 996.973C454.939 994.284 453.291 992.81 451.007 992.81H447.624L445.543 1004.61H448.925C452.799 1004.61 454.939 1001.17 454.939 996.973ZM468.098 1009.29C463.53 1009.29 460.957 1006.89 460.957 1003.16C460.957 997.118 464.918 993.793 470.064 993.793C474.285 993.793 477.032 996.106 477.032 999.922C477.032 1000.88 476.858 1001.83 476.569 1002.78H466.161C466.132 1003.02 466.132 1003.22 466.132 1003.42C466.132 1004.92 466.913 1005.76 468.445 1005.76C469.66 1005.76 470.614 1005.24 471.163 1004.09H476.107C475.239 1007.21 472.666 1009.29 468.098 1009.29ZM469.717 997.32C468.272 997.32 467.289 998.043 466.74 999.431H471.943C471.857 998.043 471.163 997.32 469.717 997.32ZM483.627 1009H478.307L480.273 997.783H478.163L478.799 994.082H480.938L481.054 993.417C481.69 989.803 483.193 988.242 486.865 988.242C487.935 988.242 489.351 988.358 490.045 988.416L489.438 991.943H487.906C487.038 991.943 486.547 992.376 486.402 993.244L486.258 994.082H489.033L488.397 997.783H485.593L483.627 1009ZM493.479 1009H488.16L490.762 994.082H496.081L493.479 1009ZM493.797 992.694C492.121 992.694 491.138 991.711 491.138 990.468C491.138 988.705 492.323 987.433 494.491 987.433C496.168 987.433 497.151 988.416 497.151 989.659C497.151 991.422 495.966 992.694 493.797 992.694ZM510.238 1009H504.919L506.451 1000.24C506.48 1000.01 506.509 999.777 506.509 999.575C506.509 998.621 506.075 998.072 505.208 998.072C503.762 998.072 502.808 999.113 502.49 1000.99L501.102 1009H495.783L498.385 994.082H503.415L503.097 995.961C504.138 994.545 505.584 993.793 507.405 993.793C510.354 993.793 512.088 995.325 512.088 997.956C512.088 998.332 512.031 998.737 511.973 999.141L510.238 1009ZM520.301 1009.29C515.733 1009.29 513.16 1006.89 513.16 1003.16C513.16 997.118 517.121 993.793 522.267 993.793C526.488 993.793 529.235 996.106 529.235 999.922C529.235 1000.88 529.061 1001.83 528.772 1002.78H518.364C518.335 1003.02 518.335 1003.22 518.335 1003.42C518.335 1004.92 519.116 1005.76 520.648 1005.76C521.862 1005.76 522.817 1005.24 523.366 1004.09H528.31C527.442 1007.21 524.869 1009.29 520.301 1009.29ZM521.92 997.32C520.475 997.32 519.492 998.043 518.943 999.431H524.146C524.06 998.043 523.366 997.32 521.92 997.32Z" fill="url(#paint5_linear_874_2439)"/>
<path d="M837.261 963.5L870.257 1000.16L837.269 1035.19H639.369L680.449 1000.55L680.893 1000.18L680.458 999.796L639.322 963.5H837.261Z" fill="#0A1613" stroke="url(#paint6_linear_874_2439)"/>
<path d="M722.906 996.511C722.906 1004.2 718.83 1009 710.619 1009H701.541L705.155 988.416H713.453C719.408 988.416 722.906 991.249 722.906 996.511ZM717.298 996.973C717.298 994.284 715.65 992.81 713.366 992.81H709.983L707.902 1004.61H711.284C715.158 1004.61 717.298 1001.17 717.298 996.973ZM730.458 1009.29C725.89 1009.29 723.317 1006.89 723.317 1003.16C723.317 997.118 727.277 993.793 732.423 993.793C736.644 993.793 739.391 996.106 739.391 999.922C739.391 1000.88 739.217 1001.83 738.928 1002.78H728.521C728.492 1003.02 728.492 1003.22 728.492 1003.42C728.492 1004.92 729.272 1005.76 730.804 1005.76C732.019 1005.76 732.973 1005.24 733.522 1004.09H738.466C737.598 1007.21 735.025 1009.29 730.458 1009.29ZM732.077 997.32C730.631 997.32 729.648 998.043 729.099 999.431H734.303C734.216 998.043 733.522 997.32 732.077 997.32ZM748.957 1009H742.481L739.937 994.082H745.257L746.269 1004.43L750.923 994.082H756.706L748.957 1009ZM762.502 1009.29C757.934 1009.29 755.361 1006.89 755.361 1003.16C755.361 997.118 759.322 993.793 764.468 993.793C768.689 993.793 771.435 996.106 771.435 999.922C771.435 1000.88 771.262 1001.83 770.973 1002.78H760.565C760.536 1003.02 760.536 1003.22 760.536 1003.42C760.536 1004.92 761.317 1005.76 762.849 1005.76C764.063 1005.76 765.017 1005.24 765.567 1004.09H770.51C769.643 1007.21 767.07 1009.29 762.502 1009.29ZM764.121 997.32C762.676 997.32 761.693 998.043 761.143 999.431H766.347C766.26 998.043 765.567 997.32 764.121 997.32ZM777.07 1009H771.75L775.364 988.416H780.684L777.07 1009ZM787.526 1005.3C789.55 1005.3 791.082 1002.9 791.082 1000.27C791.082 998.592 790.186 997.783 788.856 997.783C786.832 997.783 785.3 1000.18 785.3 1002.81C785.3 1004.49 786.196 1005.3 787.526 1005.3ZM787.121 1009.29C782.785 1009.29 779.98 1006.98 779.98 1003.16C779.98 997.118 783.941 993.793 789.261 993.793C793.597 993.793 796.402 996.106 796.402 999.922C796.402 1005.96 792.441 1009.29 787.121 1009.29ZM806.191 1009.29C804.37 1009.29 802.982 1008.6 802.317 1007.27L801.016 1014.67H795.697L799.31 994.082H804.341L804.023 995.961C805.064 994.545 806.509 993.793 808.33 993.793C812.118 993.793 814.026 996.626 814.026 999.922C814.026 1005.15 811.106 1009.29 806.191 1009.29ZM805.295 1005.3C807.319 1005.3 808.706 1002.9 808.706 1000.27C808.706 998.592 807.955 997.783 806.625 997.783C804.601 997.783 803.213 1000.18 803.213 1002.81C803.213 1004.49 803.965 1005.3 805.295 1005.3Z" fill="url(#paint7_linear_874_2439)"/>
<path d="M1101.26 963.5L1134.26 1000.16L1101.27 1035.19H903.369L944.449 1000.55L944.893 1000.18L944.458 999.796L903.322 963.5H1101.26Z" fill="#0A1613" stroke="url(#paint8_linear_874_2439)"/>
<path d="M994.547 996.511C994.547 1004.2 990.471 1009 982.26 1009H973.182L976.796 988.416H985.093C991.049 988.416 994.547 991.249 994.547 996.511ZM988.939 996.973C988.939 994.284 987.291 992.81 985.007 992.81H981.624L979.543 1004.61H982.925C986.799 1004.61 988.939 1001.17 988.939 996.973ZM1002.1 1009.29C997.53 1009.29 994.957 1006.89 994.957 1003.16C994.957 997.118 998.918 993.793 1004.06 993.793C1008.29 993.793 1011.03 996.106 1011.03 999.922C1011.03 1000.88 1010.86 1001.83 1010.57 1002.78H1000.16C1000.13 1003.02 1000.13 1003.22 1000.13 1003.42C1000.13 1004.92 1000.91 1005.76 1002.45 1005.76C1003.66 1005.76 1004.61 1005.24 1005.16 1004.09H1010.11C1009.24 1007.21 1006.67 1009.29 1002.1 1009.29ZM1003.72 997.32C1002.27 997.32 1001.29 998.043 1000.74 999.431H1005.94C1005.86 998.043 1005.16 997.32 1003.72 997.32ZM1016.67 1009H1011.35L1014.96 988.416H1020.28L1016.67 1009ZM1024.29 1009H1018.97L1021.57 994.082H1026.89L1024.29 1009ZM1024.61 992.694C1022.93 992.694 1021.95 991.711 1021.95 990.468C1021.95 988.705 1023.13 987.433 1025.3 987.433C1026.98 987.433 1027.96 988.416 1027.96 989.659C1027.96 991.422 1026.78 992.694 1024.61 992.694ZM1037.06 1009H1030.58L1028.04 994.082H1033.36L1034.37 1004.43L1039.02 994.082H1044.81L1037.06 1009ZM1050.6 1009.29C1046.03 1009.29 1043.46 1006.89 1043.46 1003.16C1043.46 997.118 1047.42 993.793 1052.57 993.793C1056.79 993.793 1059.54 996.106 1059.54 999.922C1059.54 1000.88 1059.36 1001.83 1059.07 1002.78H1048.67C1048.64 1003.02 1048.64 1003.22 1048.64 1003.42C1048.64 1004.92 1049.42 1005.76 1050.95 1005.76C1052.16 1005.76 1053.12 1005.24 1053.67 1004.09H1058.61C1057.74 1007.21 1055.17 1009.29 1050.6 1009.29ZM1052.22 997.32C1050.78 997.32 1049.79 998.043 1049.24 999.431H1054.45C1054.36 998.043 1053.67 997.32 1052.22 997.32ZM1065.17 1009H1059.85L1062.45 994.082H1067.48L1066.96 997.002C1067.92 994.718 1069.25 993.851 1071.13 993.851C1071.53 993.851 1072.54 993.966 1072.75 994.082L1071.94 998.708H1070.03C1068 998.708 1066.73 1000.04 1066.33 1002.35L1065.17 1009Z" fill="url(#paint9_linear_874_2439)"/>
<path d="M1368.26 963.5L1401.26 1000.16L1368.27 1035.19H1170.37L1211.45 1000.55L1211.89 1000.18L1211.46 999.796L1170.32 963.5H1368.26Z" fill="#0A1613" stroke="url(#paint10_linear_874_2439)"/>
<path d="M1255.37 1009H1239.36L1242.97 988.416H1258.99L1258.18 992.983H1247.77L1247.19 996.366H1256.67L1255.89 1000.64H1246.41L1245.75 1004.43H1256.15L1255.37 1009ZM1267.69 1009H1261.21L1258.67 994.082H1263.99L1265 1004.43L1269.65 994.082H1275.43L1267.69 1009ZM1281.64 1005.3C1283.66 1005.3 1285.19 1002.9 1285.19 1000.27C1285.19 998.592 1284.3 997.783 1282.97 997.783C1280.94 997.783 1279.41 1000.18 1279.41 1002.81C1279.41 1004.49 1280.31 1005.3 1281.64 1005.3ZM1281.23 1009.29C1276.89 1009.29 1274.09 1006.98 1274.09 1003.16C1274.09 997.118 1278.05 993.793 1283.37 993.793C1287.71 993.793 1290.51 996.106 1290.51 999.922C1290.51 1005.96 1286.55 1009.29 1281.23 1009.29ZM1296.14 1009H1290.82L1294.43 988.416H1299.75L1296.14 1009ZM1308.91 1009H1302.43L1299.89 994.082H1305.21L1306.22 1004.43L1310.87 994.082H1316.65L1308.91 1009ZM1322.45 1009.29C1317.88 1009.29 1315.31 1006.89 1315.31 1003.16C1315.31 997.118 1319.27 993.793 1324.42 993.793C1328.64 993.793 1331.38 996.106 1331.38 999.922C1331.38 1000.88 1331.21 1001.83 1330.92 1002.78H1320.51C1320.49 1003.02 1320.49 1003.22 1320.49 1003.42C1320.49 1004.92 1321.27 1005.76 1322.8 1005.76C1324.01 1005.76 1324.97 1005.24 1325.52 1004.09H1330.46C1329.59 1007.21 1327.02 1009.29 1322.45 1009.29ZM1324.07 997.32C1322.63 997.32 1321.64 998.043 1321.09 999.431H1326.3C1326.21 998.043 1325.52 997.32 1324.07 997.32Z" fill="url(#paint11_linear_874_2439)"/>
</g>
<defs>
<filter id="filter0_f_874_2439" x="242.166" y="272.366" width="486.467" height="680.869" filterUnits="userSpaceOnUse" color-interpolation-filters="sRGB">
<feFlood flood-opacity="0" result="BackgroundImageFix"/>
<feBlend mode="normal" in="SourceGraphic" in2="BackgroundImageFix" result="shape"/>
<feGaussianBlur stdDeviation="53.8168" result="effect1_foregroundBlur_874_2439"/>
</filter>
<filter id="filter1_f_874_2439" x="-26.6335" y="272.366" width="486.467" height="680.869" filterUnits="userSpaceOnUse" color-interpolation-filters="sRGB">
<feFlood flood-opacity="0" result="BackgroundImageFix"/>
<feBlend mode="normal" in="SourceGraphic" in2="BackgroundImageFix" result="shape"/>
<feGaussianBlur stdDeviation="53.8168" result="effect1_foregroundBlur_874_2439"/>
</filter>
<filter id="filter2_f_874_2439" x="779.166" y="272.366" width="486.467" height="680.869" filterUnits="userSpaceOnUse" color-interpolation-filters="sRGB">
<feFlood flood-opacity="0" result="BackgroundImageFix"/>
<feBlend mode="normal" in="SourceGraphic" in2="BackgroundImageFix" result="shape"/>
<feGaussianBlur stdDeviation="53.8168" result="effect1_foregroundBlur_874_2439"/>
</filter>
<filter id="filter3_f_874_2439" x="510.367" y="272.366" width="486.467" height="680.869" filterUnits="userSpaceOnUse" color-interpolation-filters="sRGB">
<feFlood flood-opacity="0" result="BackgroundImageFix"/>
<feBlend mode="normal" in="SourceGraphic" in2="BackgroundImageFix" result="shape"/>
<feGaussianBlur stdDeviation="53.8168" result="effect1_foregroundBlur_874_2439"/>
</filter>
<linearGradient id="paint0_linear_874_2439" x1="334.307" y1="547.2" x2="325.489" y2="647.277" gradientUnits="userSpaceOnUse">
<stop offset="0.354971" stop-color="#0A6A97"/>
<stop offset="0.532442" stop-color="#34BDFE"/>
<stop offset="1" stop-color="#17E48A"/>
</linearGradient>
<linearGradient id="paint1_linear_874_2439" x1="871.307" y1="547.2" x2="862.489" y2="647.277" gradientUnits="userSpaceOnUse">
<stop offset="0.354971" stop-color="#0A6A97"/>
<stop offset="0.532442" stop-color="#34BDFE"/>
<stop offset="1" stop-color="#17E48A"/>
</linearGradient>
<linearGradient id="paint2_linear_874_2439" x1="193.829" y1="942.405" x2="186.231" y2="1029.01" gradientUnits="userSpaceOnUse">
<stop offset="0.354971" stop-color="#0A6A97"/>
<stop offset="0.532442" stop-color="#34BDFE"/>
<stop offset="1" stop-color="#17E48A"/>
</linearGradient>
<linearGradient id="paint3_linear_874_2439" x1="180.432" y1="972.367" x2="177.304" y2="1012.95" gradientUnits="userSpaceOnUse">
<stop offset="0.354971" stop-color="#0A6A97"/>
<stop offset="0.532442" stop-color="#34BDFE"/>
<stop offset="1" stop-color="#17E48A"/>
</linearGradient>
<linearGradient id="paint4_linear_874_2439" x1="470.829" y1="942.405" x2="463.231" y2="1029.01" gradientUnits="userSpaceOnUse">
<stop offset="0.354971" stop-color="#0A6A97"/>
<stop offset="0.532442" stop-color="#34BDFE"/>
<stop offset="1" stop-color="#17E48A"/>
</linearGradient>
<linearGradient id="paint5_linear_874_2439" x1="479.209" y1="972.367" x2="474.968" y2="1012.74" gradientUnits="userSpaceOnUse">
<stop offset="0.354971" stop-color="#0A6A97"/>
<stop offset="0.532442" stop-color="#34BDFE"/>
<stop offset="1" stop-color="#17E48A"/>
</linearGradient>
<linearGradient id="paint6_linear_874_2439" x1="740.829" y1="942.405" x2="733.231" y2="1029.01" gradientUnits="userSpaceOnUse">
<stop offset="0.354971" stop-color="#0A6A97"/>
<stop offset="0.532442" stop-color="#34BDFE"/>
<stop offset="1" stop-color="#17E48A"/>
</linearGradient>
<linearGradient id="paint7_linear_874_2439" x1="747.584" y1="972.367" x2="744.38" y2="1012.94" gradientUnits="userSpaceOnUse">
<stop offset="0.354971" stop-color="#0A6A97"/>
<stop offset="0.532442" stop-color="#34BDFE"/>
<stop offset="1" stop-color="#17E48A"/>
</linearGradient>
<linearGradient id="paint8_linear_874_2439" x1="1004.83" y1="942.405" x2="997.231" y2="1029.01" gradientUnits="userSpaceOnUse">
<stop offset="0.354971" stop-color="#0A6A97"/>
<stop offset="0.532442" stop-color="#34BDFE"/>
<stop offset="1" stop-color="#17E48A"/>
</linearGradient>
<linearGradient id="paint9_linear_874_2439" x1="1016.74" y1="972.367" x2="1012.84" y2="1012.81" gradientUnits="userSpaceOnUse">
<stop offset="0.354971" stop-color="#0A6A97"/>
<stop offset="0.532442" stop-color="#34BDFE"/>
<stop offset="1" stop-color="#17E48A"/>
</linearGradient>
<linearGradient id="paint10_linear_874_2439" x1="1271.83" y1="942.405" x2="1264.23" y2="1029.01" gradientUnits="userSpaceOnUse">
<stop offset="0.354971" stop-color="#0A6A97"/>
<stop offset="0.532442" stop-color="#34BDFE"/>
<stop offset="1" stop-color="#17E48A"/>
</linearGradient>
<linearGradient id="paint11_linear_874_2439" x1="1280.27" y1="972.367" x2="1276.11" y2="1012.76" gradientUnits="userSpaceOnUse">
<stop offset="0.354971" stop-color="#0A6A97"/>
<stop offset="0.532442" stop-color="#34BDFE"/>
<stop offset="1" stop-color="#17E48A"/>
</linearGradient>
<clipPath id="clip0_874_2439">
<rect width="1440" height="1180" fill="white"/>
</clipPath>
<clipPath id="clip1_874_2439">
<rect x="81" y="612.715" width="380.021" height="380.021" rx="25" transform="rotate(-45 81 612.715)" fill="white"/>
</clipPath>
<clipPath id="clip2_874_2439">
<rect x="618" y="612.715" width="380.021" height="380.021" rx="25" transform="rotate(-45 618 612.715)" fill="white"/>
</clipPath>
</defs>
</svg>
