<svg width="40" height="40" viewBox="0 0 40 40" fill="none" xmlns="http://www.w3.org/2000/svg">
<rect width="40" height="40" rx="20" fill="#17E48A"/>
<path d="M20 30C25.5228 30 30 25.5228 30 20C30 14.4771 25.5228 10 20 10C14.4771 10 10 14.4771 10 20C10 25.5228 14.4771 30 20 30Z" stroke="black" stroke-width="1.5" stroke-linecap="round" stroke-linejoin="round"/>
<path d="M23 16.5C22.315 15.815 21.1087 15.3386 20 15.3087M20 15.3087C18.6809 15.2732 17.5 15.87 17.5 17.5C17.5 20.5 23 19 23 22C23 23.711 21.5362 24.4462 20 24.391M20 15.3087V13.5M17 23C17.6445 23.8593 18.8428 24.3494 20 24.391M20 24.391V26.5" stroke="black" stroke-width="1.5" stroke-linecap="round" stroke-linejoin="round"/>
</svg>
