<svg width="40" height="40" viewBox="0 0 40 40" fill="none" xmlns="http://www.w3.org/2000/svg">
<rect width="40" height="40" rx="20" fill="#17E48A"/>
<path d="M24 14.2797C24 14.8812 23.7625 15.4588 23.3383 15.8861C22.3619 16.8701 21.415 17.8961 20.4021 18.8443C20.17 19.0585 19.8017 19.0507 19.5795 18.8268L16.6615 15.8861C15.7795 14.9972 15.7795 13.5622 16.6615 12.6734C17.5522 11.7758 19.0032 11.7758 19.8938 12.6734L19.9999 12.7803L20.1059 12.6734C20.533 12.2429 21.1146 12 21.7221 12C22.3297 12 22.9113 12.2428 23.3383 12.6734C23.7625 13.1007 24 13.6783 24 14.2797Z" stroke="black" stroke-width="1.5" stroke-linejoin="round"/>
<path d="M26 28L29.8243 24.1757C29.9368 24.0632 30 23.9106 30 23.7515V18.5C30 17.6716 29.3284 17 28.5 17C27.6716 17 27 17.6716 27 18.5V23" stroke="black" stroke-width="1.5" stroke-linecap="round" stroke-linejoin="round"/>
<path d="M26 23.9962L26.8581 23.1381C26.949 23.0472 27 22.924 27 22.7956C27 22.6121 26.8963 22.4444 26.7322 22.3623L26.2893 22.1409C25.5194 21.7559 24.5894 21.9068 23.9807 22.5155L23.0858 23.4104C22.7107 23.7855 22.5 24.2942 22.5 24.8246V27.9962" stroke="black" stroke-width="1.5" stroke-linecap="round" stroke-linejoin="round"/>
<path d="M14 28L10.1757 24.1757C10.0632 24.0632 10 23.9106 10 23.7515V18.5C10 17.6716 10.6716 17 11.5 17C12.3284 17 13 17.6716 13 18.5V23" stroke="black" stroke-width="1.5" stroke-linecap="round" stroke-linejoin="round"/>
<path d="M14 23.9962L13.1419 23.1381C13.051 23.0472 13 22.924 13 22.7956C13 22.6121 13.1037 22.4444 13.2678 22.3623L13.7107 22.1409C14.4806 21.7559 15.4106 21.9068 16.0193 22.5155L16.9142 23.4104C17.2893 23.7855 17.5 24.2942 17.5 24.8246V27.9962" stroke="black" stroke-width="1.5" stroke-linecap="round" stroke-linejoin="round"/>
</svg>
