<svg width="412" height="698" viewBox="0 0 412 698" fill="none" xmlns="http://www.w3.org/2000/svg">
<g clip-path="url(#clip0_1328_2184)">
<rect width="698" height="571.972" transform="matrix(0 1 -1 0 556.972 0)" fill="#00080A"/>
<path d="M234.604 24.6837C232.205 24.6837 230.666 23.3022 230.666 21.1694C230.666 18.0187 232.641 15.8133 235.84 15.8133C237.694 15.8133 239.585 16.7342 239.585 18.867C239.585 18.9882 239.573 19.1215 239.56 19.2548H237.331C237.331 18.3702 236.676 17.7279 235.671 17.7279C233.998 17.7279 233.017 19.2184 233.017 20.9756C233.017 22.1025 233.768 22.769 234.774 22.769C235.852 22.769 236.676 22.1389 236.967 21.1694H239.221C238.93 23.5203 237.064 24.6837 234.604 24.6837ZM245.46 24.5625H243.23L243.872 20.8907C243.884 20.7938 243.896 20.6968 243.896 20.612C243.896 20.2121 243.715 19.9819 243.351 19.9819C242.745 19.9819 242.345 20.4181 242.212 21.2058L241.63 24.5625H239.401L240.915 15.9344H243.145L242.624 18.9155C242.975 18.5035 243.509 18.1884 244.272 18.1884C245.508 18.1884 246.235 18.8307 246.235 19.9334C246.235 20.0909 246.211 20.2606 246.187 20.4302L245.46 24.5625ZM248.587 24.6837C247.23 24.6837 246.491 24.0051 246.491 22.9508C246.491 21.5936 247.448 20.9877 249.011 20.8544L250.453 20.7332C250.78 20.709 251.011 20.5635 251.011 20.2969C251.011 19.9334 250.708 19.7395 250.308 19.7395C249.787 19.7395 249.593 19.9819 249.496 20.3697H247.266C247.4 18.964 248.381 18.1884 250.502 18.1884C252.126 18.1884 253.228 18.7943 253.228 20.0909C253.228 20.2606 253.216 20.4424 253.18 20.6362L252.768 22.9629C252.671 23.484 252.622 23.8839 252.622 24.1626C252.622 24.3444 252.647 24.4777 252.683 24.5625H250.647C250.526 24.405 250.477 24.2232 250.477 24.0535C250.477 24.0172 250.477 23.9687 250.49 23.896C250.005 24.4413 249.52 24.6837 248.587 24.6837ZM249.387 23.2053C250.065 23.2053 250.587 22.7206 250.683 22.1268L250.72 21.9086C250.671 21.9692 250.465 21.9935 250.223 22.0177L249.617 22.0662C249.023 22.1147 248.72 22.3207 248.72 22.6842C248.72 22.9872 248.938 23.2053 249.387 23.2053ZM255.689 24.5625H253.459L254.974 15.9344H257.204L255.689 24.5625ZM258.884 24.5625H256.655L258.169 15.9344H260.399L258.884 24.5625ZM263.098 24.6837C261.183 24.6837 260.104 23.6779 260.104 22.1147C260.104 19.582 261.765 18.1884 263.922 18.1884C265.691 18.1884 266.842 19.1578 266.842 20.7574C266.842 21.1573 266.769 21.5572 266.648 21.9571H262.286C262.273 22.0541 262.273 22.1389 262.273 22.2237C262.273 22.8539 262.601 23.2053 263.243 23.2053C263.752 23.2053 264.152 22.9872 264.382 22.5024H266.454C266.091 23.8112 265.012 24.6837 263.098 24.6837ZM263.776 19.6668C263.17 19.6668 262.758 19.9698 262.528 20.5514H264.709C264.673 19.9698 264.382 19.6668 263.776 19.6668ZM273.033 24.5625H270.803L271.446 20.8907C271.458 20.7938 271.47 20.6968 271.47 20.612C271.47 20.2121 271.288 19.9819 270.924 19.9819C270.319 19.9819 269.919 20.4181 269.785 21.2058L269.204 24.5625H266.974L268.065 18.3096H270.173L270.04 19.0973C270.476 18.5035 271.082 18.1884 271.845 18.1884C273.081 18.1884 273.809 18.8307 273.809 19.9334C273.809 20.0909 273.784 20.2606 273.76 20.4302L273.033 24.5625ZM276.706 24.3201C275.167 24.3201 274.306 23.2295 274.306 21.9329C274.306 19.7395 275.482 18.1884 277.542 18.1884C278.39 18.1884 278.96 18.5277 279.25 19.2063L279.408 18.3096H281.517L280.523 23.9566C280.123 26.259 278.802 27.0588 276.766 27.0588C275.3 27.0588 274.052 26.562 274.052 25.0351C274.052 24.9382 274.052 24.8412 274.064 24.7322H276.1C276.1 25.2896 276.366 25.6289 277.021 25.6289C277.663 25.6289 278.075 25.2896 278.184 24.611L278.342 23.6779C278.027 24.0172 277.469 24.3201 276.706 24.3201ZM277.384 22.769C278.233 22.769 278.79 21.7026 278.79 20.7211C278.79 20.1394 278.499 19.7395 277.942 19.7395C277.093 19.7395 276.536 20.8059 276.536 21.7875C276.536 22.3691 276.827 22.769 277.384 22.769ZM284.647 24.6837C282.733 24.6837 281.654 23.6779 281.654 22.1147C281.654 19.582 283.314 18.1884 285.471 18.1884C287.241 18.1884 288.392 19.1578 288.392 20.7574C288.392 21.1573 288.319 21.5572 288.198 21.9571H283.835C283.823 22.0541 283.823 22.1389 283.823 22.2237C283.823 22.8539 284.15 23.2053 284.793 23.2053C285.302 23.2053 285.702 22.9872 285.932 22.5024H288.004C287.64 23.8112 286.562 24.6837 284.647 24.6837ZM285.326 19.6668C284.72 19.6668 284.308 19.9698 284.078 20.5514H286.259C286.223 19.9698 285.932 19.6668 285.326 19.6668Z" fill="white"/>
<g clip-path="url(#clip1_1328_2184)">
<rect x="259.995" y="39.25" width="184.204" height="184.204" rx="12.1181" transform="rotate(45 259.995 39.25)" fill="black" fill-opacity="0.5"/>
<g filter="url(#filter0_f_1328_2184)">
<path d="M233.851 301.011C171.53 301.011 147.077 254.278 147.077 224.135C147.077 193.991 197.599 169.555 259.921 169.555C322.242 169.555 372.764 193.991 372.764 224.135C372.764 254.278 296.173 301.011 233.851 301.011Z" fill="#009252" fill-opacity="0.3"/>
</g>
<g filter="url(#filter1_f_1328_2184)">
<path d="M233.851 39.2543C171.53 39.2543 147.077 85.9872 147.077 116.131C147.077 146.275 197.599 170.711 259.921 170.711C322.242 170.711 372.764 146.275 372.764 116.131C372.764 85.9872 296.173 39.2543 233.851 39.2543Z" fill="#00829B" fill-opacity="0.3"/>
</g>
<path d="M216.706 158.297C216.706 162.819 214.309 165.641 209.481 165.641H204.143L206.268 153.537H211.147C214.649 153.537 216.706 155.203 216.706 158.297ZM213.408 158.569C213.408 156.988 212.439 156.121 211.096 156.121H209.107L207.883 163.057H209.872C212.15 163.057 213.408 161.034 213.408 158.569ZM221.146 165.811C218.46 165.811 216.947 164.4 216.947 162.207C216.947 158.654 219.276 156.699 222.302 156.699C224.784 156.699 226.399 158.059 226.399 160.303C226.399 160.864 226.297 161.425 226.127 161.986H220.007C219.99 162.122 219.99 162.241 219.99 162.36C219.99 163.244 220.449 163.737 221.35 163.737C222.064 163.737 222.625 163.431 222.948 162.751H225.855C225.345 164.587 223.832 165.811 221.146 165.811ZM222.098 158.773C221.248 158.773 220.67 159.198 220.347 160.014H223.407C223.356 159.198 222.948 158.773 222.098 158.773ZM230.783 165.811C228.284 165.811 226.703 164.791 226.703 163.193C226.703 163.04 226.703 162.904 226.737 162.751H229.695C229.695 163.499 230.29 163.805 231.106 163.805C231.973 163.805 232.415 163.431 232.415 163.023C232.415 162.751 232.211 162.581 231.48 162.479L230.273 162.309C228.437 162.054 227.536 161.323 227.536 159.742C227.536 157.77 229.508 156.699 232.058 156.699C233.792 156.699 235.883 157.311 235.883 159.215C235.883 159.351 235.866 159.487 235.849 159.623H232.891C232.891 158.96 232.483 158.705 231.735 158.705C231.123 158.705 230.664 158.977 230.664 159.419C230.664 159.691 230.715 159.81 231.276 159.895L232.483 160.065C234.506 160.354 235.543 161.068 235.543 162.785C235.543 164.723 233.537 165.811 230.783 165.811ZM239.191 165.641H236.063L237.593 156.869H240.721L239.191 165.641ZM239.378 156.053C238.392 156.053 237.814 155.475 237.814 154.744C237.814 153.707 238.511 152.959 239.786 152.959C240.772 152.959 241.35 153.537 241.35 154.268C241.35 155.305 240.653 156.053 239.378 156.053ZM244.337 165.301C242.178 165.301 240.971 163.771 240.971 161.952C240.971 158.875 242.62 156.699 245.51 156.699C246.7 156.699 247.499 157.175 247.907 158.127L248.128 156.869H251.086L249.692 164.791C249.131 168.021 247.278 169.143 244.422 169.143C242.365 169.143 240.614 168.446 240.614 166.304C240.614 166.168 240.614 166.032 240.631 165.879H243.487C243.487 166.661 243.861 167.137 244.779 167.137C245.68 167.137 246.258 166.661 246.411 165.709L246.632 164.4C246.19 164.876 245.408 165.301 244.337 165.301ZM245.289 163.125C246.479 163.125 247.261 161.629 247.261 160.252C247.261 159.436 246.853 158.875 246.071 158.875C244.881 158.875 244.099 160.371 244.099 161.748C244.099 162.564 244.507 163.125 245.289 163.125ZM259.422 165.641H256.294L257.195 160.49C257.212 160.354 257.229 160.218 257.229 160.099C257.229 159.538 256.974 159.215 256.464 159.215C255.614 159.215 255.053 159.827 254.866 160.932L254.05 165.641H250.922L252.452 156.869H255.41L255.223 157.974C255.835 157.141 256.685 156.699 257.756 156.699C259.49 156.699 260.51 157.6 260.51 159.147C260.51 159.368 260.476 159.606 260.442 159.844L259.422 165.641ZM263.911 165.641H260.783L262.313 156.869H265.441L263.911 165.641ZM264.098 156.053C263.112 156.053 262.534 155.475 262.534 154.744C262.534 153.707 263.231 152.959 264.506 152.959C265.492 152.959 266.07 153.537 266.07 154.268C266.07 155.305 265.373 156.053 264.098 156.053ZM273.766 165.641H270.638L271.539 160.49C271.556 160.354 271.573 160.218 271.573 160.099C271.573 159.538 271.318 159.215 270.808 159.215C269.958 159.215 269.397 159.827 269.21 160.932L268.394 165.641H265.266L266.796 156.869H269.754L269.567 157.974C270.179 157.141 271.029 156.699 272.1 156.699C273.834 156.699 274.854 157.6 274.854 159.147C274.854 159.368 274.82 159.606 274.786 159.844L273.766 165.641ZM278.918 165.301C276.759 165.301 275.552 163.771 275.552 161.952C275.552 158.875 277.201 156.699 280.091 156.699C281.281 156.699 282.08 157.175 282.488 158.127L282.709 156.869H285.667L284.273 164.791C283.712 168.021 281.859 169.143 279.003 169.143C276.946 169.143 275.195 168.446 275.195 166.304C275.195 166.168 275.195 166.032 275.212 165.879H278.068C278.068 166.661 278.442 167.137 279.36 167.137C280.261 167.137 280.839 166.661 280.992 165.709L281.213 164.4C280.771 164.876 279.989 165.301 278.918 165.301ZM279.87 163.125C281.06 163.125 281.842 161.629 281.842 160.252C281.842 159.436 281.434 158.875 280.652 158.875C279.462 158.875 278.68 160.371 278.68 161.748C278.68 162.564 279.088 163.125 279.87 163.125ZM293.68 165.743C291.742 165.743 290.892 165.216 290.892 163.737C290.892 163.431 290.926 163.091 290.994 162.7L291.64 159.045H290.399L290.773 156.869H292.014L292.49 154.217H295.618L295.142 156.869H296.791L296.417 159.045H294.768L294.105 162.819C294.088 162.904 294.088 162.972 294.088 163.04C294.088 163.397 294.292 163.567 294.717 163.567H295.618L295.261 165.641C294.836 165.675 294.139 165.743 293.68 165.743ZM304.877 165.641H301.749L302.65 160.49C302.667 160.354 302.684 160.218 302.684 160.099C302.684 159.538 302.429 159.215 301.919 159.215C301.069 159.215 300.508 159.827 300.321 160.932L299.505 165.641H296.377L298.502 153.537H301.63L300.899 157.719C301.392 157.141 302.14 156.699 303.211 156.699C304.945 156.699 305.965 157.6 305.965 159.147C305.965 159.368 305.931 159.606 305.897 159.844L304.877 165.641ZM310.794 165.811C308.108 165.811 306.595 164.4 306.595 162.207C306.595 158.654 308.924 156.699 311.95 156.699C314.432 156.699 316.047 158.059 316.047 160.303C316.047 160.864 315.945 161.425 315.775 161.986H309.655C309.638 162.122 309.638 162.241 309.638 162.36C309.638 163.244 310.097 163.737 310.998 163.737C311.712 163.737 312.273 163.431 312.596 162.751H315.503C314.993 164.587 313.48 165.811 310.794 165.811ZM311.746 158.773C310.896 158.773 310.318 159.198 309.995 160.014H313.055C313.004 159.198 312.596 158.773 311.746 158.773ZM216.638 185.641H213.51L215.04 176.869H217.998L217.692 178.586C218.253 177.243 219.035 176.733 220.14 176.733C220.378 176.733 220.973 176.801 221.092 176.869L220.616 179.589H219.494C218.304 179.589 217.556 180.371 217.318 181.731L216.638 185.641ZM223.71 185.641H220.582L222.112 176.869H225.24L223.71 185.641ZM223.897 176.053C222.911 176.053 222.333 175.475 222.333 174.744C222.333 173.707 223.03 172.959 224.305 172.959C225.291 172.959 225.869 173.537 225.869 174.268C225.869 175.305 225.172 176.053 223.897 176.053ZM228.856 185.301C226.697 185.301 225.49 183.771 225.49 181.952C225.49 178.875 227.139 176.699 230.029 176.699C231.219 176.699 232.018 177.175 232.426 178.127L232.647 176.869H235.605L234.211 184.791C233.65 188.021 231.797 189.143 228.941 189.143C226.884 189.143 225.133 188.446 225.133 186.304C225.133 186.168 225.133 186.032 225.15 185.879H228.006C228.006 186.661 228.38 187.137 229.298 187.137C230.199 187.137 230.777 186.661 230.93 185.709L231.151 184.4C230.709 184.876 229.927 185.301 228.856 185.301ZM229.808 183.125C230.998 183.125 231.78 181.629 231.78 180.252C231.78 179.436 231.372 178.875 230.59 178.875C229.4 178.875 228.618 180.371 228.618 181.748C228.618 182.564 229.026 183.125 229.808 183.125ZM243.941 185.641H240.813L241.714 180.49C241.731 180.354 241.748 180.218 241.748 180.099C241.748 179.538 241.493 179.215 240.983 179.215C240.133 179.215 239.572 179.827 239.385 180.932L238.569 185.641H235.441L237.566 173.537H240.694L239.963 177.719C240.456 177.141 241.204 176.699 242.275 176.699C244.009 176.699 245.029 177.6 245.029 179.147C245.029 179.368 244.995 179.606 244.961 179.844L243.941 185.641ZM249.063 185.743C247.125 185.743 246.275 185.216 246.275 183.737C246.275 183.431 246.309 183.091 246.377 182.7L247.023 179.045H245.782L246.156 176.869H247.397L247.873 174.217H251.001L250.525 176.869H252.174L251.8 179.045H250.151L249.488 182.819C249.471 182.904 249.471 182.972 249.471 183.04C249.471 183.397 249.675 183.567 250.1 183.567H251.001L250.644 185.641C250.219 185.675 249.522 185.743 249.063 185.743ZM259.937 185.743C257.999 185.743 257.149 185.216 257.149 183.737C257.149 183.431 257.183 183.091 257.251 182.7L257.897 179.045H256.656L257.03 176.869H258.271L258.747 174.217H261.875L261.399 176.869H263.048L262.674 179.045H261.025L260.362 182.819C260.345 182.904 260.345 182.972 260.345 183.04C260.345 183.397 260.549 183.567 260.974 183.567H261.875L261.518 185.641C261.093 185.675 260.396 185.743 259.937 185.743ZM271.134 185.641H268.006L268.907 180.49C268.924 180.354 268.941 180.218 268.941 180.099C268.941 179.538 268.686 179.215 268.176 179.215C267.326 179.215 266.765 179.827 266.578 180.932L265.762 185.641H262.634L264.759 173.537H267.887L267.156 177.719C267.649 177.141 268.397 176.699 269.468 176.699C271.202 176.699 272.222 177.6 272.222 179.147C272.222 179.368 272.188 179.606 272.154 179.844L271.134 185.641ZM275.624 185.641H272.496L274.026 176.869H277.154L275.624 185.641ZM275.811 176.053C274.825 176.053 274.247 175.475 274.247 174.744C274.247 173.707 274.944 172.959 276.219 172.959C277.205 172.959 277.783 173.537 277.783 174.268C277.783 175.305 277.086 176.053 275.811 176.053ZM285.478 185.641H282.35L283.251 180.49C283.268 180.354 283.285 180.218 283.285 180.099C283.285 179.538 283.03 179.215 282.52 179.215C281.67 179.215 281.109 179.827 280.922 180.932L280.106 185.641H276.978L278.508 176.869H281.466L281.279 177.974C281.891 177.141 282.741 176.699 283.812 176.699C285.546 176.699 286.566 177.6 286.566 179.147C286.566 179.368 286.532 179.606 286.498 179.844L285.478 185.641ZM290.63 185.301C288.471 185.301 287.264 183.771 287.264 181.952C287.264 178.875 288.913 176.699 291.803 176.699C292.993 176.699 293.792 177.175 294.2 178.127L294.421 176.869H297.379L295.985 184.791C295.424 188.021 293.571 189.143 290.715 189.143C288.658 189.143 286.907 188.446 286.907 186.304C286.907 186.168 286.907 186.032 286.924 185.879H289.78C289.78 186.661 290.154 187.137 291.072 187.137C291.973 187.137 292.551 186.661 292.704 185.709L292.925 184.4C292.483 184.876 291.701 185.301 290.63 185.301ZM291.582 183.125C292.772 183.125 293.554 181.629 293.554 180.252C293.554 179.436 293.146 178.875 292.364 178.875C291.174 178.875 290.392 180.371 290.392 181.748C290.392 182.564 290.8 183.125 291.582 183.125ZM301.414 185.811C298.915 185.811 297.334 184.791 297.334 183.193C297.334 183.04 297.334 182.904 297.368 182.751H300.326C300.326 183.499 300.921 183.805 301.737 183.805C302.604 183.805 303.046 183.431 303.046 183.023C303.046 182.751 302.842 182.581 302.111 182.479L300.904 182.309C299.068 182.054 298.167 181.323 298.167 179.742C298.167 177.77 300.139 176.699 302.689 176.699C304.423 176.699 306.514 177.311 306.514 179.215C306.514 179.351 306.497 179.487 306.48 179.623H303.522C303.522 178.96 303.114 178.705 302.366 178.705C301.754 178.705 301.295 178.977 301.295 179.419C301.295 179.691 301.346 179.81 301.907 179.895L303.114 180.065C305.137 180.354 306.174 181.068 306.174 182.785C306.174 184.723 304.168 185.811 301.414 185.811Z" fill="url(#paint0_linear_1328_2184)"/>
</g>
<rect x="259.995" y="39.3538" width="184.058" height="184.058" rx="12.0447" transform="rotate(45 259.995 39.3538)" stroke="white" stroke-width="0.146784"/>
<g clip-path="url(#clip2_1328_2184)">
<rect x="259.995" y="299.562" width="184.204" height="184.204" rx="12.1181" transform="rotate(45 259.995 299.562)" fill="black" fill-opacity="0.5"/>
<g filter="url(#filter2_f_1328_2184)">
<path d="M233.851 561.316C171.53 561.316 147.077 514.583 147.077 484.439C147.077 454.296 197.599 429.859 259.921 429.859C322.242 429.859 372.764 454.296 372.764 484.439C372.764 514.583 296.173 561.316 233.851 561.316Z" fill="#009252" fill-opacity="0.3"/>
</g>
<g filter="url(#filter3_f_1328_2184)">
<path d="M233.851 299.551C171.53 299.551 147.077 346.284 147.077 376.428C147.077 406.571 197.599 431.008 259.921 431.008C322.242 431.008 372.764 406.571 372.764 376.428C372.764 346.284 296.173 299.551 233.851 299.551Z" fill="#00829B" fill-opacity="0.3"/>
</g>
<path d="M216.008 418.609C216.008 423.131 213.611 425.953 208.783 425.953H203.445L205.57 413.849H210.449C213.951 413.849 216.008 415.515 216.008 418.609ZM212.71 418.881C212.71 417.3 211.741 416.433 210.398 416.433H208.409L207.185 423.369H209.174C211.452 423.369 212.71 421.346 212.71 418.881ZM220.448 426.123C217.762 426.123 216.249 424.712 216.249 422.519C216.249 418.966 218.578 417.011 221.604 417.011C224.086 417.011 225.701 418.371 225.701 420.615C225.701 421.176 225.599 421.737 225.429 422.298H219.309C219.292 422.434 219.292 422.553 219.292 422.672C219.292 423.556 219.751 424.049 220.652 424.049C221.366 424.049 221.927 423.743 222.25 423.063H225.157C224.647 424.899 223.134 426.123 220.448 426.123ZM221.4 419.085C220.55 419.085 219.972 419.51 219.649 420.326H222.709C222.658 419.51 222.25 419.085 221.4 419.085ZM229.015 425.953H225.887L228.012 413.849H231.14L229.015 425.953ZM233.497 425.953H230.369L231.899 417.181H235.027L233.497 425.953ZM233.684 416.365C232.698 416.365 232.12 415.787 232.12 415.056C232.12 414.019 232.817 413.271 234.092 413.271C235.078 413.271 235.656 413.849 235.656 414.58C235.656 415.617 234.959 416.365 233.684 416.365ZM241.005 425.953H237.197L235.701 417.181H238.829L239.424 423.267L242.161 417.181H245.561L241.005 425.953ZM248.97 426.123C246.284 426.123 244.771 424.712 244.771 422.519C244.771 418.966 247.1 417.011 250.126 417.011C252.608 417.011 254.223 418.371 254.223 420.615C254.223 421.176 254.121 421.737 253.951 422.298H247.831C247.814 422.434 247.814 422.553 247.814 422.672C247.814 423.556 248.273 424.049 249.174 424.049C249.888 424.049 250.449 423.743 250.772 423.063H253.679C253.169 424.899 251.656 426.123 248.97 426.123ZM249.922 419.085C249.072 419.085 248.494 419.51 248.171 420.326H251.231C251.18 419.51 250.772 419.085 249.922 419.085ZM257.536 425.953H254.408L255.938 417.181H258.896L258.59 418.898C259.151 417.555 259.933 417.045 261.038 417.045C261.276 417.045 261.871 417.113 261.99 417.181L261.514 419.901H260.392C259.202 419.901 258.454 420.683 258.216 422.043L257.536 425.953ZM264.608 425.953H261.48L263.01 417.181H266.138L264.608 425.953ZM264.795 416.365C263.809 416.365 263.231 415.787 263.231 415.056C263.231 414.019 263.928 413.271 265.203 413.271C266.189 413.271 266.767 413.849 266.767 414.58C266.767 415.617 266.07 416.365 264.795 416.365ZM274.463 425.953H271.335L272.236 420.802C272.253 420.666 272.27 420.53 272.27 420.411C272.27 419.85 272.015 419.527 271.505 419.527C270.655 419.527 270.094 420.139 269.907 421.244L269.091 425.953H265.963L267.493 417.181H270.451L270.264 418.286C270.876 417.453 271.726 417.011 272.797 417.011C274.531 417.011 275.551 417.912 275.551 419.459C275.551 419.68 275.517 419.918 275.483 420.156L274.463 425.953ZM279.615 425.613C277.456 425.613 276.249 424.083 276.249 422.264C276.249 419.187 277.898 417.011 280.788 417.011C281.978 417.011 282.777 417.487 283.185 418.439L283.406 417.181H286.364L284.97 425.103C284.409 428.333 282.556 429.455 279.7 429.455C277.643 429.455 275.892 428.758 275.892 426.616C275.892 426.48 275.892 426.344 275.909 426.191H278.765C278.765 426.973 279.139 427.449 280.057 427.449C280.958 427.449 281.536 426.973 281.689 426.021L281.91 424.712C281.468 425.188 280.686 425.613 279.615 425.613ZM280.567 423.437C281.757 423.437 282.539 421.941 282.539 420.564C282.539 419.748 282.131 419.187 281.349 419.187C280.159 419.187 279.377 420.683 279.377 422.06C279.377 422.876 279.785 423.437 280.567 423.437ZM294.377 426.055C292.439 426.055 291.589 425.528 291.589 424.049C291.589 423.743 291.623 423.403 291.691 423.012L292.337 419.357H291.096L291.47 417.181H292.711L293.187 414.529H296.315L295.839 417.181H297.488L297.114 419.357H295.465L294.802 423.131C294.785 423.216 294.785 423.284 294.785 423.352C294.785 423.709 294.989 423.879 295.414 423.879H296.315L295.958 425.953C295.533 425.987 294.836 426.055 294.377 426.055ZM305.574 425.953H302.446L303.347 420.802C303.364 420.666 303.381 420.53 303.381 420.411C303.381 419.85 303.126 419.527 302.616 419.527C301.766 419.527 301.205 420.139 301.018 421.244L300.202 425.953H297.074L299.199 413.849H302.327L301.596 418.031C302.089 417.453 302.837 417.011 303.908 417.011C305.642 417.011 306.662 417.912 306.662 419.459C306.662 419.68 306.628 419.918 306.594 420.156L305.574 425.953ZM311.491 426.123C308.805 426.123 307.292 424.712 307.292 422.519C307.292 418.966 309.621 417.011 312.647 417.011C315.129 417.011 316.744 418.371 316.744 420.615C316.744 421.176 316.642 421.737 316.472 422.298H310.352C310.335 422.434 310.335 422.553 310.335 422.672C310.335 423.556 310.794 424.049 311.695 424.049C312.409 424.049 312.97 423.743 313.293 423.063H316.2C315.69 424.899 314.177 426.123 311.491 426.123ZM312.443 419.085C311.593 419.085 311.015 419.51 310.692 420.326H313.752C313.701 419.51 313.293 419.085 312.443 419.085ZM217.437 446.055C215.499 446.055 214.649 445.528 214.649 444.049C214.649 443.743 214.683 443.403 214.751 443.012L215.397 439.357H214.156L214.53 437.181H215.771L216.247 434.529H219.375L218.899 437.181H220.548L220.174 439.357H218.525L217.862 443.131C217.845 443.216 217.845 443.284 217.845 443.352C217.845 443.709 218.049 443.879 218.474 443.879H219.375L219.018 445.953C218.593 445.987 217.896 446.055 217.437 446.055ZM228.634 445.953H225.506L226.407 440.802C226.424 440.666 226.441 440.53 226.441 440.411C226.441 439.85 226.186 439.527 225.676 439.527C224.826 439.527 224.265 440.139 224.078 441.244L223.262 445.953H220.134L222.259 433.849H225.387L224.656 438.031C225.149 437.453 225.897 437.011 226.968 437.011C228.702 437.011 229.722 437.912 229.722 439.459C229.722 439.68 229.688 439.918 229.654 440.156L228.634 445.953ZM233.124 445.953H229.996L231.526 437.181H234.654L233.124 445.953ZM233.311 436.365C232.325 436.365 231.747 435.787 231.747 435.056C231.747 434.019 232.444 433.271 233.719 433.271C234.705 433.271 235.283 433.849 235.283 434.58C235.283 435.617 234.586 436.365 233.311 436.365ZM242.978 445.953H239.85L240.751 440.802C240.768 440.666 240.785 440.53 240.785 440.411C240.785 439.85 240.53 439.527 240.02 439.527C239.17 439.527 238.609 440.139 238.422 441.244L237.606 445.953H234.478L236.008 437.181H238.966L238.779 438.286C239.391 437.453 240.241 437.011 241.312 437.011C243.046 437.011 244.066 437.912 244.066 439.459C244.066 439.68 244.032 439.918 243.998 440.156L242.978 445.953ZM248.13 445.613C245.971 445.613 244.764 444.083 244.764 442.264C244.764 439.187 246.413 437.011 249.303 437.011C250.493 437.011 251.292 437.487 251.7 438.439L251.921 437.181H254.879L253.485 445.103C252.924 448.333 251.071 449.455 248.215 449.455C246.158 449.455 244.407 448.758 244.407 446.616C244.407 446.48 244.407 446.344 244.424 446.191H247.28C247.28 446.973 247.654 447.449 248.572 447.449C249.473 447.449 250.051 446.973 250.204 446.021L250.425 444.712C249.983 445.188 249.201 445.613 248.13 445.613ZM249.082 443.437C250.272 443.437 251.054 441.941 251.054 440.564C251.054 439.748 250.646 439.187 249.864 439.187C248.674 439.187 247.892 440.683 247.892 442.06C247.892 442.876 248.3 443.437 249.082 443.437ZM258.914 446.123C256.415 446.123 254.834 445.103 254.834 443.505C254.834 443.352 254.834 443.216 254.868 443.063H257.826C257.826 443.811 258.421 444.117 259.237 444.117C260.104 444.117 260.546 443.743 260.546 443.335C260.546 443.063 260.342 442.893 259.611 442.791L258.404 442.621C256.568 442.366 255.667 441.635 255.667 440.054C255.667 438.082 257.639 437.011 260.189 437.011C261.923 437.011 264.014 437.623 264.014 439.527C264.014 439.663 263.997 439.799 263.98 439.935H261.022C261.022 439.272 260.614 439.017 259.866 439.017C259.254 439.017 258.795 439.289 258.795 439.731C258.795 440.003 258.846 440.122 259.407 440.207L260.614 440.377C262.637 440.666 263.674 441.38 263.674 443.097C263.674 445.035 261.668 446.123 258.914 446.123ZM271.573 445.953H268.445L269.975 437.181H272.933L272.627 438.898C273.188 437.555 273.97 437.045 275.075 437.045C275.313 437.045 275.908 437.113 276.027 437.181L275.551 439.901H274.429C273.239 439.901 272.491 440.683 272.253 442.043L271.573 445.953ZM278.645 445.953H275.517L277.047 437.181H280.175L278.645 445.953ZM278.832 436.365C277.846 436.365 277.268 435.787 277.268 435.056C277.268 434.019 277.965 433.271 279.24 433.271C280.226 433.271 280.804 433.849 280.804 434.58C280.804 435.617 280.107 436.365 278.832 436.365ZM283.79 445.613C281.631 445.613 280.424 444.083 280.424 442.264C280.424 439.187 282.073 437.011 284.963 437.011C286.153 437.011 286.952 437.487 287.36 438.439L287.581 437.181H290.539L289.145 445.103C288.584 448.333 286.731 449.455 283.875 449.455C281.818 449.455 280.067 448.758 280.067 446.616C280.067 446.48 280.067 446.344 280.084 446.191H282.94C282.94 446.973 283.314 447.449 284.232 447.449C285.133 447.449 285.711 446.973 285.864 446.021L286.085 444.712C285.643 445.188 284.861 445.613 283.79 445.613ZM284.742 443.437C285.932 443.437 286.714 441.941 286.714 440.564C286.714 439.748 286.306 439.187 285.524 439.187C284.334 439.187 283.552 440.683 283.552 442.06C283.552 442.876 283.96 443.437 284.742 443.437ZM298.875 445.953H295.747L296.648 440.802C296.665 440.666 296.682 440.53 296.682 440.411C296.682 439.85 296.427 439.527 295.917 439.527C295.067 439.527 294.506 440.139 294.319 441.244L293.503 445.953H290.375L292.5 433.849H295.628L294.897 438.031C295.39 437.453 296.138 437.011 297.209 437.011C298.943 437.011 299.963 437.912 299.963 439.459C299.963 439.68 299.929 439.918 299.895 440.156L298.875 445.953ZM303.998 446.055C302.06 446.055 301.21 445.528 301.21 444.049C301.21 443.743 301.244 443.403 301.312 443.012L301.958 439.357H300.717L301.091 437.181H302.332L302.808 434.529H305.936L305.46 437.181H307.109L306.735 439.357H305.086L304.423 443.131C304.406 443.216 304.406 443.284 304.406 443.352C304.406 443.709 304.61 443.879 305.035 443.879H305.936L305.579 445.953C305.154 445.987 304.457 446.055 303.998 446.055Z" fill="url(#paint1_linear_1328_2184)"/>
</g>
<rect x="259.995" y="299.666" width="184.058" height="184.058" rx="12.0447" transform="rotate(45 259.995 299.666)" stroke="white" stroke-width="0.146784"/>
<line x1="146.734" y1="39.0076" x2="372.765" y2="39.0076" stroke="white" stroke-width="0.484722" stroke-dasharray="0.97 2.91"/>
<line x1="42.6878" y1="299.32" x2="372.784" y2="299.32" stroke="white" stroke-width="0.484722" stroke-dasharray="0.97 2.91"/>
<line x1="43.1807" y1="169.414" x2="145.457" y2="169.414" stroke="white" stroke-width="0.484722" stroke-dasharray="0.97 2.91"/>
<line x1="42.6878" y1="429.711" x2="144.964" y2="429.711" stroke="white" stroke-width="0.484722" stroke-dasharray="0.97 2.91"/>
<line x1="41.2081" y1="556.711" x2="368.409" y2="556.711" stroke="white" stroke-width="0.484722" stroke-dasharray="0.97 2.91"/>
<path d="M259.71 556.11C262.027 651.655 377.981 714.074 360.043 697.323" stroke="#34BDFE" stroke-width="2.52918"/>
<path d="M259.236 556.856C193.267 626.01 231.037 752.164 230.214 727.635" stroke="#34BDFE" stroke-width="2.52918"/>
<path d="M256.273 562.789C202.687 641.926 260.858 760.069 255.978 736.016" stroke="#34BDFE" stroke-width="2.52918"/>
<path d="M257.646 566.074C220.716 654.224 301.04 758.577 291.513 735.959" stroke="#34BDFE" stroke-width="2.52918"/>
<path d="M257.767 556.856C323.736 626.01 285.967 752.164 286.79 727.635" stroke="#34BDFE" stroke-width="2.52918"/>
<path d="M260.702 562.789C314.288 641.926 256.118 760.069 260.998 736.016" stroke="#34BDFE" stroke-width="2.52918"/>
<path d="M259.372 566.074C296.302 654.224 215.978 758.577 225.505 735.959" stroke="#34BDFE" stroke-width="2.52918"/>
<path d="M258.609 556.991C251.232 652.279 360.265 726.125 344.117 707.643" stroke="#34BDFE" stroke-width="2.52918"/>
<path d="M261.216 559.472C244.227 653.523 345.221 738.032 331.027 718.009" stroke="#34BDFE" stroke-width="2.52918"/>
<path d="M258.731 553.235C256.414 648.78 140.46 711.199 158.398 694.448" stroke="#34BDFE" stroke-width="2.52918"/>
<path d="M261.267 573.876C265.92 659.611 160.35 707.414 176.173 693.641" stroke="#34BDFE" stroke-width="2.52918"/>
<path d="M258.731 566.712C263.384 652.447 157.814 700.25 173.636 686.477" stroke="#34BDFE" stroke-width="2.52918"/>
<path d="M112.705 83.1719L128.699 100.943L112.708 117.922H16.3614V83.1719H112.705Z" fill="#0A1613" stroke="url(#paint2_linear_1328_2184)" stroke-width="0.484722"/>
<path d="M43.3542 99.0945C43.3542 102.822 41.3783 105.148 37.3984 105.148H32.9981L34.7498 95.1707H38.7717C41.6585 95.1707 43.3542 96.5441 43.3542 99.0945ZM40.6355 99.3188C40.6355 98.0155 39.8368 97.3008 38.7297 97.3008H37.0901L36.0811 103.018H37.7207C39.5985 103.018 40.6355 101.351 40.6355 99.3188ZM45.8372 105.148H43.2587L44.52 97.9174H47.0985L45.8372 105.148ZM45.9914 97.2447C45.1786 97.2447 44.7021 96.7683 44.7021 96.1657C44.7021 95.3109 45.2767 94.6943 46.3277 94.6943C47.1405 94.6943 47.617 95.1707 47.617 95.7733C47.617 96.6281 47.0424 97.2447 45.9914 97.2447ZM50.4151 105.289C48.3551 105.289 47.0518 104.448 47.0518 103.13C47.0518 103.004 47.0518 102.892 47.0798 102.766H49.5182C49.5182 103.383 50.0087 103.635 50.6814 103.635C51.3961 103.635 51.7604 103.327 51.7604 102.99C51.7604 102.766 51.5922 102.626 50.9897 102.542L49.9947 102.402C48.4812 102.192 47.7385 101.589 47.7385 100.286C47.7385 98.6601 49.3641 97.7773 51.4661 97.7773C52.8955 97.7773 54.6192 98.2818 54.6192 99.8513C54.6192 99.9634 54.6052 100.075 54.5912 100.188H52.1528C52.1528 99.6411 51.8165 99.4309 51.1999 99.4309C50.6954 99.4309 50.317 99.6551 50.317 100.019C50.317 100.244 50.359 100.342 50.8215 100.412L51.8165 100.552C53.4841 100.79 54.3389 101.379 54.3389 102.794C54.3389 104.392 52.6853 105.289 50.4151 105.289ZM58.5236 105.289C56.4216 105.289 55.0623 104.167 55.0623 102.318C55.0623 99.3888 56.842 97.7773 59.5606 97.7773C61.7888 97.7773 62.9099 98.9684 62.9099 100.356C62.9099 100.524 62.8819 100.692 62.8538 100.86H60.4295C60.4295 100.286 60.1492 99.7111 59.3645 99.7111C58.2434 99.7111 57.6408 100.874 57.6408 102.15C57.6408 102.962 58.0752 103.355 58.7198 103.355C59.2523 103.355 59.925 103.074 60.2053 102.15H62.6296C62.3073 103.999 61.0741 105.289 58.5236 105.289ZM66.7667 103.355C67.7477 103.355 68.4904 102.192 68.4904 100.916C68.4904 100.104 68.056 99.7111 67.4113 99.7111C66.4304 99.7111 65.6877 100.874 65.6877 102.15C65.6877 102.962 66.1221 103.355 66.7667 103.355ZM66.5705 105.289C64.4685 105.289 63.1092 104.167 63.1092 102.318C63.1092 99.3888 65.029 97.7773 67.6075 97.7773C69.7096 97.7773 71.0689 98.8984 71.0689 100.748C71.0689 103.677 69.149 105.289 66.5705 105.289ZM75.7021 105.148H72.563L71.3298 97.9174H73.9083L74.3988 102.934L76.655 97.9174H79.4577L75.7021 105.148ZM82.2675 105.289C80.0533 105.289 78.8061 104.125 78.8061 102.318C78.8061 99.3888 80.726 97.7773 83.2204 97.7773C85.2664 97.7773 86.5977 98.8984 86.5977 100.748C86.5977 101.211 86.5136 101.673 86.3735 102.136H81.3285C81.3145 102.248 81.3145 102.346 81.3145 102.444C81.3145 103.173 81.6929 103.579 82.4356 103.579C83.0242 103.579 83.4866 103.327 83.7529 102.766H86.1492C85.7288 104.28 84.4816 105.289 82.2675 105.289ZM83.0522 99.4869C82.3515 99.4869 81.8751 99.8373 81.6088 100.51H84.1313C84.0892 99.8373 83.7529 99.4869 83.0522 99.4869ZM89.3288 105.148H86.7503L88.0115 97.9174H90.4499L90.1976 99.3328C90.6601 98.2257 91.3047 97.8053 92.2156 97.8053C92.4118 97.8053 92.9023 97.8613 93.0004 97.9174L92.608 100.16H91.6831C90.7021 100.16 90.0855 100.804 89.8893 101.925L89.3288 105.148Z" fill="url(#paint3_linear_1328_2184)"/>
<path d="M112.703 217.461L128.697 235.232L112.706 252.211H16.7803L36.6934 235.422L36.9082 235.24L36.6973 235.055L16.7578 217.461H112.703Z" fill="#0A1613" stroke="url(#paint4_linear_1328_2184)" stroke-width="0.484722"/>
<path d="M60.9604 233.384C60.9604 237.111 58.9845 239.437 55.0046 239.437H50.6043L52.356 229.46H56.3779C59.2647 229.46 60.9604 230.833 60.9604 233.384ZM58.2417 233.608C58.2417 232.305 57.443 231.59 56.3359 231.59H54.6963L53.6873 237.307H55.3269C57.2047 237.307 58.2417 235.64 58.2417 233.608ZM64.6206 239.578C62.4064 239.578 61.1592 238.415 61.1592 236.607C61.1592 233.678 63.0791 232.066 65.5735 232.066C67.6195 232.066 68.9508 233.187 68.9508 235.037C68.9508 235.5 68.8667 235.962 68.7266 236.425H63.6817C63.6677 236.537 63.6677 236.635 63.6677 236.733C63.6677 237.462 64.046 237.868 64.7887 237.868C65.3773 237.868 65.8398 237.616 66.106 237.055H68.5024C68.082 238.569 66.8347 239.578 64.6206 239.578ZM65.4053 233.776C64.7047 233.776 64.2282 234.126 63.9619 234.799H66.4844C66.4424 234.126 66.106 233.776 65.4053 233.776ZM72.1477 239.437H69.5691L70.5221 234H69.4991L69.8074 232.206H70.8444L70.9004 231.884C71.2087 230.132 71.9375 229.376 73.7172 229.376C74.2357 229.376 74.9224 229.432 75.2587 229.46L74.9644 231.169H74.2217C73.8013 231.169 73.563 231.38 73.493 231.8L73.4229 232.206H74.7682L74.4599 234H73.1006L72.1477 239.437ZM76.9234 239.437H74.3448L75.6061 232.206H78.1846L76.9234 239.437ZM77.0775 231.534C76.2647 231.534 75.7883 231.057 75.7883 230.455C75.7883 229.6 76.3628 228.983 77.4138 228.983C78.2266 228.983 78.7031 229.46 78.7031 230.062C78.7031 230.917 78.1285 231.534 77.0775 231.534ZM85.0467 239.437H82.4682L83.2109 235.191C83.2249 235.079 83.2389 234.967 83.2389 234.869C83.2389 234.407 83.0287 234.14 82.6083 234.14C81.9076 234.14 81.4452 234.645 81.291 235.556L80.6184 239.437H78.0399L79.3011 232.206H81.7395L81.5853 233.117C82.0898 232.431 82.7905 232.066 83.6733 232.066C85.1027 232.066 85.9435 232.809 85.9435 234.084C85.9435 234.266 85.9155 234.463 85.8875 234.659L85.0467 239.437ZM89.9245 239.578C87.7104 239.578 86.4631 238.415 86.4631 236.607C86.4631 233.678 88.383 232.066 90.8774 232.066C92.9234 232.066 94.2547 233.187 94.2547 235.037C94.2547 235.5 94.1707 235.962 94.0305 236.425H88.9856C88.9716 236.537 88.9716 236.635 88.9716 236.733C88.9716 237.462 89.35 237.868 90.0927 237.868C90.6813 237.868 91.1437 237.616 91.41 237.055H93.8063C93.3859 238.569 92.1387 239.578 89.9245 239.578ZM90.7093 233.776C90.0086 233.776 89.5321 234.126 89.2659 234.799H91.7883C91.7463 234.126 91.41 233.776 90.7093 233.776Z" fill="url(#paint5_linear_1328_2184)"/>
<path d="M112.703 348.336L128.697 366.107L112.706 383.086H16.7803L36.6934 366.297L36.9082 366.115L36.6973 365.93L16.7578 348.336H112.703Z" fill="#0A1613" stroke="url(#paint6_linear_1328_2184)" stroke-width="0.484722"/>
<path d="M57.2668 364.259C57.2668 367.986 55.2909 370.312 51.311 370.312H46.9107L48.6624 360.335H52.6843C55.5711 360.335 57.2668 361.708 57.2668 364.259ZM54.5481 364.483C54.5481 363.18 53.7494 362.465 52.6423 362.465H51.0027L49.9937 368.182H51.6333C53.5111 368.182 54.5481 366.515 54.5481 364.483ZM60.927 370.453C58.7128 370.453 57.4656 369.29 57.4656 367.482C57.4656 364.553 59.3855 362.941 61.8799 362.941C63.9259 362.941 65.2572 364.062 65.2572 365.912C65.2572 366.375 65.1731 366.837 65.033 367.3H59.9881C59.974 367.412 59.974 367.51 59.974 367.608C59.974 368.337 60.3524 368.743 61.0951 368.743C61.6837 368.743 62.1462 368.491 62.4124 367.93H64.8088C64.3883 369.444 63.1411 370.453 60.927 370.453ZM61.7117 364.651C61.0111 364.651 60.5346 365.001 60.2683 365.674H62.7908C62.7487 365.001 62.4124 364.651 61.7117 364.651ZM69.8943 370.312H66.7552L65.522 363.081H68.1005L68.591 368.098L70.8472 363.081H73.6499L69.8943 370.312ZM76.4597 370.453C74.2455 370.453 72.9983 369.29 72.9983 367.482C72.9983 364.553 74.9182 362.941 77.4126 362.941C79.4586 362.941 80.7899 364.062 80.7899 365.912C80.7899 366.375 80.7058 366.837 80.5657 367.3H75.5208C75.5067 367.412 75.5067 367.51 75.5067 367.608C75.5067 368.337 75.8851 368.743 76.6278 368.743C77.2164 368.743 77.6789 368.491 77.9451 367.93H80.3415C79.921 369.444 78.6738 370.453 76.4597 370.453ZM77.2444 364.651C76.5438 364.651 76.0673 365.001 75.801 365.674H78.3235C78.2814 365.001 77.9451 364.651 77.2444 364.651ZM83.521 370.312H80.9425L82.6942 360.335H85.2727L83.521 370.312ZM88.5894 368.519C89.5703 368.519 90.313 367.356 90.313 366.08C90.313 365.268 89.8786 364.875 89.234 364.875C88.253 364.875 87.5103 366.038 87.5103 367.314C87.5103 368.126 87.9447 368.519 88.5894 368.519ZM88.3932 370.453C86.2911 370.453 84.9318 369.332 84.9318 367.482C84.9318 364.553 86.8517 362.941 89.4302 362.941C91.5322 362.941 92.8915 364.062 92.8915 365.912C92.8915 368.841 90.9717 370.453 88.3932 370.453ZM97.6367 370.453C96.7538 370.453 96.0812 370.116 95.7589 369.472L95.1283 373.059H92.5497L94.3014 363.081H96.7398L96.5857 363.992C97.0902 363.306 97.7908 362.941 98.6737 362.941C100.509 362.941 101.434 364.315 101.434 365.912C101.434 368.449 100.019 370.453 97.6367 370.453ZM97.2023 368.519C98.1832 368.519 98.8559 367.356 98.8559 366.08C98.8559 365.268 98.4915 364.875 97.8469 364.875C96.8659 364.875 96.1933 366.038 96.1933 367.314C96.1933 368.126 96.5576 368.519 97.2023 368.519Z" fill="url(#paint7_linear_1328_2184)"/>
<path d="M112.7 476.305L128.694 494.076L112.703 511.055H16.7769L36.69 494.266L36.9049 494.084L36.6939 493.898L16.7545 476.305H112.7Z" fill="#0A1613" stroke="url(#paint8_linear_1328_2184)" stroke-width="0.484722"/>
<path d="M60.9724 492.227C60.9724 495.955 58.9964 498.281 55.0166 498.281H50.6163L52.368 488.304H56.3899C59.2767 488.304 60.9724 489.677 60.9724 492.227ZM58.2537 492.452C58.2537 491.148 57.4549 490.434 56.3479 490.434H54.7083L53.6993 496.151H55.3389C57.2167 496.151 58.2537 494.484 58.2537 492.452ZM64.6325 498.421C62.4184 498.421 61.1712 497.258 61.1712 495.45C61.1712 492.522 63.091 490.91 65.5855 490.91C67.6315 490.91 68.9628 492.031 68.9628 493.881C68.9628 494.343 68.8787 494.806 68.7385 495.268H63.6936C63.6796 495.38 63.6796 495.479 63.6796 495.577C63.6796 496.305 64.058 496.712 64.8007 496.712C65.3893 496.712 65.8517 496.459 66.118 495.899H68.5143C68.0939 497.412 66.8467 498.421 64.6325 498.421ZM65.4173 492.62C64.7166 492.62 64.2402 492.97 63.9739 493.643H66.4964C66.4543 492.97 66.118 492.62 65.4173 492.62ZM71.6939 498.281H69.1154L70.8671 488.304H73.4456L71.6939 498.281ZM75.3889 498.281H72.8104L74.0716 491.05H76.6501L75.3889 498.281ZM75.543 490.378C74.7303 490.378 74.2538 489.901 74.2538 489.299C74.2538 488.444 74.8283 487.827 75.8794 487.827C76.6922 487.827 77.1686 488.304 77.1686 488.906C77.1686 489.761 76.5941 490.378 75.543 490.378ZM81.5783 498.281H78.4393L77.2061 491.05H79.7846L80.2751 496.067L82.5313 491.05H85.334L81.5783 498.281ZM88.1437 498.421C85.9296 498.421 84.6823 497.258 84.6823 495.45C84.6823 492.522 86.6022 490.91 89.0966 490.91C91.1426 490.91 92.4739 492.031 92.4739 493.881C92.4739 494.343 92.3899 494.806 92.2497 495.268H87.2048C87.1908 495.38 87.1908 495.479 87.1908 495.577C87.1908 496.305 87.5692 496.712 88.3119 496.712C88.9005 496.712 89.3629 496.459 89.6292 495.899H92.0255C91.6051 497.412 90.3579 498.421 88.1437 498.421ZM88.9285 492.62C88.2278 492.62 87.7513 492.97 87.4851 493.643H90.0075C89.9655 492.97 89.6292 492.62 88.9285 492.62ZM95.2051 498.281H92.6266L93.8878 491.05H96.3262L96.0739 492.466C96.5364 491.359 97.181 490.938 98.0919 490.938C98.2881 490.938 98.7785 490.994 98.8766 491.05L98.4843 493.292H97.5594C96.5784 493.292 95.9618 493.937 95.7656 495.058L95.2051 498.281Z" fill="url(#paint9_linear_1328_2184)"/>
<path d="M112.698 605.734L128.692 623.506L112.701 640.484H16.7754L36.6885 623.695L36.9034 623.514L36.6924 623.328L16.753 605.734H112.698Z" fill="#0A1613" stroke="url(#paint10_linear_1328_2184)" stroke-width="0.484722"/>
<path d="M57.9594 627.711H50.1959L51.9476 617.733H59.7111L59.3187 619.947H54.2738L53.9936 621.587H58.59L58.2117 623.661H53.6152L53.2929 625.497H58.3378L57.9594 627.711ZM63.9282 627.711H60.7892L59.556 620.48H62.1345L62.625 625.497L64.8812 620.48H67.6839L63.9282 627.711ZM70.6898 625.917C71.6708 625.917 72.4135 624.754 72.4135 623.479C72.4135 622.666 71.9791 622.274 71.3345 622.274C70.3535 622.274 69.6108 623.437 69.6108 624.712C69.6108 625.525 70.0452 625.917 70.6898 625.917ZM70.4936 627.851C68.3916 627.851 67.0323 626.73 67.0323 624.88C67.0323 621.951 68.9521 620.34 71.5306 620.34C73.6327 620.34 74.992 621.461 74.992 623.311C74.992 626.24 73.0722 627.851 70.4936 627.851ZM77.7192 627.711H75.1407L76.8924 617.733H79.4709L77.7192 627.711ZM83.9086 627.711H80.7696L79.5364 620.48H82.1149L82.6054 625.497L84.8616 620.48H87.6643L83.9086 627.711ZM90.474 627.851C88.2599 627.851 87.0127 626.688 87.0127 624.88C87.0127 621.951 88.9325 620.34 91.427 620.34C93.473 620.34 94.8042 621.461 94.8042 623.311C94.8042 623.773 94.7202 624.236 94.58 624.698H89.5351C89.5211 624.81 89.5211 624.908 89.5211 625.006C89.5211 625.735 89.8995 626.141 90.6422 626.141C91.2308 626.141 91.6932 625.889 91.9595 625.329H94.3558C93.9354 626.842 92.6882 627.851 90.474 627.851ZM91.2588 622.049C90.5581 622.049 90.0816 622.4 89.8154 623.072H92.3378C92.2958 622.4 91.9595 622.049 91.2588 622.049Z" fill="url(#paint11_linear_1328_2184)"/>
</g>
<defs>
<filter id="filter0_f_1328_2184" x="94.9049" y="117.382" width="330.031" height="235.798" filterUnits="userSpaceOnUse" color-interpolation-filters="sRGB">
<feFlood flood-opacity="0" result="BackgroundImageFix"/>
<feBlend mode="normal" in="SourceGraphic" in2="BackgroundImageFix" result="shape"/>
<feGaussianBlur stdDeviation="26.0862" result="effect1_foregroundBlur_1328_2184"/>
</filter>
<filter id="filter1_f_1328_2184" x="94.9049" y="-12.9146" width="330.031" height="235.798" filterUnits="userSpaceOnUse" color-interpolation-filters="sRGB">
<feFlood flood-opacity="0" result="BackgroundImageFix"/>
<feBlend mode="normal" in="SourceGraphic" in2="BackgroundImageFix" result="shape"/>
<feGaussianBlur stdDeviation="26.0862" result="effect1_foregroundBlur_1328_2184"/>
</filter>
<filter id="filter2_f_1328_2184" x="94.9049" y="377.687" width="330.031" height="235.798" filterUnits="userSpaceOnUse" color-interpolation-filters="sRGB">
<feFlood flood-opacity="0" result="BackgroundImageFix"/>
<feBlend mode="normal" in="SourceGraphic" in2="BackgroundImageFix" result="shape"/>
<feGaussianBlur stdDeviation="26.0862" result="effect1_foregroundBlur_1328_2184"/>
</filter>
<filter id="filter3_f_1328_2184" x="94.9049" y="247.382" width="330.031" height="235.798" filterUnits="userSpaceOnUse" color-interpolation-filters="sRGB">
<feFlood flood-opacity="0" result="BackgroundImageFix"/>
<feBlend mode="normal" in="SourceGraphic" in2="BackgroundImageFix" result="shape"/>
<feGaussianBlur stdDeviation="26.0862" result="effect1_foregroundBlur_1328_2184"/>
</filter>
<linearGradient id="paint0_linear_1328_2184" x1="252.581" y1="138.307" x2="248.455" y2="185.976" gradientUnits="userSpaceOnUse">
<stop offset="0.354971" stop-color="#0A6A97"/>
<stop offset="0.532442" stop-color="#34BDFE"/>
<stop offset="1" stop-color="#17E48A"/>
</linearGradient>
<linearGradient id="paint1_linear_1328_2184" x1="252.581" y1="398.62" x2="248.455" y2="446.288" gradientUnits="userSpaceOnUse">
<stop offset="0.354971" stop-color="#0A6A97"/>
<stop offset="0.532442" stop-color="#34BDFE"/>
<stop offset="1" stop-color="#17E48A"/>
</linearGradient>
<linearGradient id="paint2_linear_1328_2184" x1="65.9628" y1="72.9466" x2="62.28" y2="114.927" gradientUnits="userSpaceOnUse">
<stop offset="0.354971" stop-color="#0A6A97"/>
<stop offset="0.532442" stop-color="#34BDFE"/>
<stop offset="1" stop-color="#17E48A"/>
</linearGradient>
<linearGradient id="paint3_linear_1328_2184" x1="59.4148" y1="87.3318" x2="57.7993" y2="107.614" gradientUnits="userSpaceOnUse">
<stop offset="0.354971" stop-color="#0A6A97"/>
<stop offset="0.532442" stop-color="#34BDFE"/>
<stop offset="1" stop-color="#17E48A"/>
</linearGradient>
<linearGradient id="paint4_linear_1328_2184" x1="65.9608" y1="207.236" x2="62.278" y2="249.216" gradientUnits="userSpaceOnUse">
<stop offset="0.354971" stop-color="#0A6A97"/>
<stop offset="0.532442" stop-color="#34BDFE"/>
<stop offset="1" stop-color="#17E48A"/>
</linearGradient>
<linearGradient id="paint5_linear_1328_2184" x1="69.9578" y1="221.621" x2="67.7668" y2="241.794" gradientUnits="userSpaceOnUse">
<stop offset="0.354971" stop-color="#0A6A97"/>
<stop offset="0.532442" stop-color="#34BDFE"/>
<stop offset="1" stop-color="#17E48A"/>
</linearGradient>
<linearGradient id="paint6_linear_1328_2184" x1="65.9608" y1="338.111" x2="62.278" y2="380.091" gradientUnits="userSpaceOnUse">
<stop offset="0.354971" stop-color="#0A6A97"/>
<stop offset="0.532442" stop-color="#34BDFE"/>
<stop offset="1" stop-color="#17E48A"/>
</linearGradient>
<linearGradient id="paint7_linear_1328_2184" x1="69.3825" y1="352.496" x2="67.74" y2="372.774" gradientUnits="userSpaceOnUse">
<stop offset="0.354971" stop-color="#0A6A97"/>
<stop offset="0.532442" stop-color="#34BDFE"/>
<stop offset="1" stop-color="#17E48A"/>
</linearGradient>
<linearGradient id="paint8_linear_1328_2184" x1="65.9574" y1="466.079" x2="62.2746" y2="508.06" gradientUnits="userSpaceOnUse">
<stop offset="0.354971" stop-color="#0A6A97"/>
<stop offset="0.532442" stop-color="#34BDFE"/>
<stop offset="1" stop-color="#17E48A"/>
</linearGradient>
<linearGradient id="paint9_linear_1328_2184" x1="71.7356" y1="480.465" x2="69.7234" y2="500.675" gradientUnits="userSpaceOnUse">
<stop offset="0.354971" stop-color="#0A6A97"/>
<stop offset="0.532442" stop-color="#34BDFE"/>
<stop offset="1" stop-color="#17E48A"/>
</linearGradient>
<linearGradient id="paint10_linear_1328_2184" x1="65.9559" y1="595.509" x2="62.2731" y2="637.49" gradientUnits="userSpaceOnUse">
<stop offset="0.354971" stop-color="#0A6A97"/>
<stop offset="0.532442" stop-color="#34BDFE"/>
<stop offset="1" stop-color="#17E48A"/>
</linearGradient>
<linearGradient id="paint11_linear_1328_2184" x1="69.9908" y1="609.894" x2="67.8474" y2="630.078" gradientUnits="userSpaceOnUse">
<stop offset="0.354971" stop-color="#0A6A97"/>
<stop offset="0.532442" stop-color="#34BDFE"/>
<stop offset="1" stop-color="#17E48A"/>
</linearGradient>
<clipPath id="clip0_1328_2184">
<rect width="698" height="571.972" fill="white" transform="matrix(0 1 -1 0 556.972 0)"/>
</clipPath>
<clipPath id="clip1_1328_2184">
<rect x="259.995" y="39.25" width="184.204" height="184.204" rx="12.1181" transform="rotate(45 259.995 39.25)" fill="white"/>
</clipPath>
<clipPath id="clip2_1328_2184">
<rect x="259.995" y="299.562" width="184.204" height="184.204" rx="12.1181" transform="rotate(45 259.995 299.562)" fill="white"/>
</clipPath>
</defs>
</svg>
