<svg width="387" height="318" viewBox="0 0 387 318" fill="none" xmlns="http://www.w3.org/2000/svg">
<g clip-path="url(#clip0_1145_3056)">
<rect width="387" height="317.125" fill="#00080A"/>
<path d="M26.8573 43.4844H23.7291L25.7447 32.0034H34.6779L34.2264 34.5511H28.4214L28.0989 36.4377H33.3879L32.9526 38.8242H27.6636L26.8573 43.4844ZM44.7763 34.7607C44.7763 36.8409 43.9056 37.6149 42.1963 38.1309C43.2445 38.3405 43.7282 39.0177 43.7282 39.9691C43.7282 40.1626 43.7121 40.3561 43.6798 40.5657L43.3735 42.3234C43.3251 42.5975 43.309 42.8716 43.309 43.0812C43.309 43.2425 43.309 43.3715 43.3412 43.4844H40.3097C40.2452 43.2909 40.1968 43.0651 40.1968 42.791C40.1968 42.6459 40.213 42.5007 40.2452 42.3234L40.5355 40.6947C40.5677 40.4851 40.6 40.3077 40.6 40.1465C40.6 39.437 40.1968 39.1951 39.3422 39.1951H37.504L36.7622 43.4844H33.634L35.6496 32.0034H41.0515C43.5186 32.0034 44.7763 33.2934 44.7763 34.7607ZM41.6158 35.2767C41.6158 34.5834 41.0998 34.3254 39.9227 34.3254H38.3747L37.9232 36.8731H39.9227C41.1482 36.8731 41.6158 36.3249 41.6158 35.2767ZM50.3014 43.6456C47.1087 43.6456 45.0608 41.8074 45.0608 38.9694C45.0608 34.7769 47.6892 31.8421 51.9462 31.8421C55.1067 31.8421 57.1868 33.6804 57.1868 36.5184C57.1868 40.7109 54.7197 43.6456 50.3014 43.6456ZM50.5272 41.0979C52.7524 41.0979 54.0586 39.1145 54.0586 36.7764C54.0586 35.2767 53.0588 34.3899 51.7204 34.3899C49.4952 34.3899 48.189 36.3732 48.189 38.7114C48.189 40.211 49.1888 41.0979 50.5272 41.0979ZM70.4936 43.4844H67.5266L69.0585 34.7769L65.1723 43.4844H62.5601L61.7377 34.7769L60.2058 43.4844H57.2388L59.2545 32.0034H64.0758L64.5918 38.6791L67.4621 32.0034H72.5092L70.4936 43.4844ZM79.2636 43.4844H76.1353L78.1509 32.0034H81.2792L79.2636 43.4844ZM92.7916 36.5184C92.7916 40.8076 90.5179 43.4844 85.9384 43.4844H80.8752L82.8908 32.0034H87.5187C90.8404 32.0034 92.7916 33.5836 92.7916 36.5184ZM89.6633 36.7764C89.6633 35.2767 88.7442 34.4544 87.4703 34.4544H85.5837L84.4227 41.0334H86.3093C88.4701 41.0334 89.6633 39.1145 89.6633 36.7764ZM101.776 43.4844H92.843L94.8586 32.0034H103.792L103.34 34.5511H97.5353L97.2128 36.4377H102.502L102.066 38.8242H96.7775L96.4066 40.9366H102.212L101.776 43.4844ZM114.095 43.4844H111.063L110.805 41.6945H106.403L105.516 43.4844H102.162L108.209 32.0034H112.079L114.095 43.4844ZM110.466 39.308L109.821 34.7769L107.58 39.308H110.466ZM119.52 43.6456C116.473 43.6456 114.892 42.4201 114.892 40.211C114.892 40.0336 114.908 39.8562 114.925 39.6789H117.956C117.956 40.856 118.73 41.3236 119.891 41.3236C121.149 41.3236 121.923 40.7431 121.923 40.0497C121.923 39.4531 121.471 39.1467 120.117 38.9532L118.972 38.792C116.989 38.5179 115.957 37.5665 115.957 35.8572C115.957 33.3256 117.94 31.8421 121.165 31.8421C123.938 31.8421 125.519 33.2127 125.519 35.2284C125.519 35.3574 125.519 35.5025 125.503 35.6476H122.568C122.568 34.7769 121.939 34.1641 120.794 34.1641C119.762 34.1641 119.085 34.6479 119.085 35.3735C119.085 35.9379 119.359 36.1797 120.568 36.341L121.713 36.5022C123.729 36.7925 125.051 37.8406 125.051 39.6305C125.051 42.1137 123.213 43.6456 119.52 43.6456ZM135.37 43.4844H132.241L133.806 34.5511H130.5L130.951 32.0034H140.691L140.239 34.5511H136.934L135.37 43.4844ZM145.036 43.6456C141.843 43.6456 139.795 41.8074 139.795 38.9694C139.795 34.7769 142.424 31.8421 146.681 31.8421C149.841 31.8421 151.921 33.6804 151.921 36.5184C151.921 40.7109 149.454 43.6456 145.036 43.6456ZM145.262 41.0979C147.487 41.0979 148.793 39.1145 148.793 36.7764C148.793 35.2767 147.793 34.3899 146.455 34.3899C144.23 34.3899 142.923 36.3732 142.923 38.7114C142.923 40.211 143.923 41.0979 145.262 41.0979ZM160.777 43.6456C157.73 43.6456 156.15 42.4201 156.15 40.211C156.15 40.0336 156.166 39.8562 156.182 39.6789H159.213C159.213 40.856 159.987 41.3236 161.148 41.3236C162.406 41.3236 163.18 40.7431 163.18 40.0497C163.18 39.4531 162.729 39.1467 161.374 38.9532L160.229 38.792C158.246 38.5179 157.214 37.5665 157.214 35.8572C157.214 33.3256 159.197 31.8421 162.422 31.8421C165.196 31.8421 166.776 33.2127 166.776 35.2284C166.776 35.3574 166.776 35.5025 166.76 35.6476H163.825C163.825 34.7769 163.196 34.1641 162.051 34.1641C161.019 34.1641 160.342 34.6479 160.342 35.3735C160.342 35.9379 160.616 36.1797 161.826 36.341L162.97 36.5022C164.986 36.7925 166.308 37.8406 166.308 39.6305C166.308 42.1137 164.47 43.6456 160.777 43.6456ZM172.483 43.6456C169.29 43.6456 167.242 41.8074 167.242 38.9694C167.242 34.7769 169.871 31.8421 174.128 31.8421C177.288 31.8421 179.368 33.6804 179.368 36.5184C179.368 40.7109 176.901 43.6456 172.483 43.6456ZM172.709 41.0979C174.934 41.0979 176.24 39.1145 176.24 36.7764C176.24 35.2767 175.24 34.3899 173.902 34.3899C171.677 34.3899 170.371 36.3732 170.371 38.7114C170.371 40.211 171.37 41.0979 172.709 41.0979ZM187.676 43.4844H179.42L181.436 32.0034H184.564L182.984 40.9366H188.112L187.676 43.4844ZM193.825 43.6456C190.842 43.6456 189.117 42.4362 189.117 40.0981C189.117 39.7917 189.149 39.4692 189.213 39.1306L190.471 32.0034H193.599L192.406 38.8081C192.358 39.05 192.342 39.2757 192.342 39.4854C192.342 40.5819 192.954 41.0979 194.051 41.0979C195.325 41.0979 196.228 40.5496 196.534 38.8081L197.727 32.0034H200.856L199.598 39.1306C198.985 42.5814 197.163 43.6456 193.825 43.6456ZM206.074 43.4844H202.946L204.51 34.5511H201.204L201.656 32.0034H211.395L210.944 34.5511H207.638L206.074 43.4844ZM213.476 43.4844H210.348L212.363 32.0034H215.491L213.476 43.4844ZM220.763 43.6456C217.571 43.6456 215.523 41.8074 215.523 38.9694C215.523 34.7769 218.151 31.8421 222.408 31.8421C225.569 31.8421 227.649 33.6804 227.649 36.5184C227.649 40.7109 225.182 43.6456 220.763 43.6456ZM220.989 41.0979C223.214 41.0979 224.521 39.1145 224.521 36.7764C224.521 35.2767 223.521 34.3899 222.182 34.3899C219.957 34.3899 218.651 36.3732 218.651 38.7114C218.651 40.211 219.651 41.0979 220.989 41.0979ZM238.085 43.4844H234.796L231.926 36.3249L230.668 43.4844H227.701L229.716 32.0034H233.006L235.876 39.1629L237.134 32.0034H240.101L238.085 43.4844ZM244.473 43.6456C241.426 43.6456 239.845 42.4201 239.845 40.211C239.845 40.0336 239.861 39.8562 239.878 39.6789H242.909C242.909 40.856 243.683 41.3236 244.844 41.3236C246.102 41.3236 246.876 40.7431 246.876 40.0497C246.876 39.4531 246.424 39.1467 245.07 38.9532L243.925 38.792C241.942 38.5179 240.91 37.5665 240.91 35.8572C240.91 33.3256 242.893 31.8421 246.118 31.8421C248.891 31.8421 250.472 33.2127 250.472 35.2284C250.472 35.3574 250.472 35.5025 250.456 35.6476H247.521C247.521 34.7769 246.892 34.1641 245.747 34.1641C244.715 34.1641 244.038 34.6479 244.038 35.3735C244.038 35.9379 244.312 36.1797 245.521 36.341L246.666 36.5022C248.682 36.7925 250.004 37.8406 250.004 39.6305C250.004 42.1137 248.166 43.6456 244.473 43.6456Z" fill="white"/>
<path d="M188.664 58.8594H318.647" stroke="white" stroke-width="0.446797" stroke-linecap="round" stroke-linejoin="round"/>
<path d="M321.305 58.7734H330.712" stroke="white" stroke-width="0.577026" stroke-linecap="round" stroke-linejoin="round"/>
<path d="M326.008 63.4762V54.0703" stroke="white" stroke-width="0.577026" stroke-linecap="round" stroke-linejoin="round"/>
<path d="M322.988 62.3672L329.035 55.1617" stroke="white" stroke-width="0.577026" stroke-linecap="round" stroke-linejoin="round"/>
<path d="M329.613 61.7804L322.406 55.7344" stroke="white" stroke-width="0.577026" stroke-linecap="round" stroke-linejoin="round"/>
<path d="M146.719 59.825C145.389 59.825 144.535 59.0591 144.535 57.8766C144.535 56.1297 145.63 54.9069 147.404 54.9069C148.721 54.9069 149.588 55.6728 149.588 56.8553C149.588 58.6022 148.56 59.825 146.719 59.825ZM146.813 58.7634C147.74 58.7634 148.284 57.937 148.284 56.9628C148.284 56.338 147.868 55.9684 147.31 55.9684C146.383 55.9684 145.839 56.7948 145.839 57.7691C145.839 58.3939 146.255 58.7634 146.813 58.7634ZM150.805 59.825C150.12 59.825 149.717 59.4689 149.717 58.8575C149.717 58.7702 149.73 58.6761 149.744 58.582L150.147 56.2909H151.383L151.027 58.3267C151.02 58.3805 151.014 58.4342 151.014 58.4812C151.014 58.703 151.114 58.8306 151.316 58.8306C151.652 58.8306 151.874 58.5887 151.948 58.152L152.27 56.2909H153.506L152.902 59.7578H151.733L151.807 59.3211C151.565 59.6503 151.229 59.825 150.805 59.825ZM154.676 59.7578H153.44L154.044 56.2909H155.213L155.093 56.9695C155.314 56.4387 155.623 56.2372 156.06 56.2372C156.154 56.2372 156.389 56.2641 156.436 56.2909L156.248 57.3659H155.805C155.334 57.3659 155.039 57.675 154.945 58.2125L154.676 59.7578ZM162.597 56.3245C162.597 57.5272 161.845 58.1722 160.562 58.1722H159.561L159.285 59.7578H157.982L158.822 54.9741H160.938C161.966 54.9741 162.597 55.5116 162.597 56.3245ZM161.294 56.4387C161.294 56.0827 161.052 55.9416 160.562 55.9416H159.957L159.735 57.2047H160.528C161.039 57.2047 161.294 56.9427 161.294 56.4387ZM163.665 59.7578H162.429L163.033 56.2909H164.202L164.081 56.9695C164.303 56.4387 164.612 56.2372 165.049 56.2372C165.143 56.2372 165.378 56.2641 165.425 56.2909L165.237 57.3659H164.794C164.323 57.3659 164.028 57.675 163.934 58.2125L163.665 59.7578ZM167.053 58.8978C167.523 58.8978 167.879 58.3402 167.879 57.7287C167.879 57.3391 167.671 57.1509 167.362 57.1509C166.892 57.1509 166.535 57.7086 166.535 58.32C166.535 58.7097 166.744 58.8978 167.053 58.8978ZM166.959 59.825C165.951 59.825 165.299 59.2875 165.299 58.4006C165.299 56.9964 166.22 56.2237 167.456 56.2237C168.464 56.2237 169.115 56.7612 169.115 57.6481C169.115 59.0523 168.195 59.825 166.959 59.825ZM170.987 59.825C169.98 59.825 169.328 59.2875 169.328 58.4006C169.328 56.9964 170.181 56.2237 171.485 56.2237C172.553 56.2237 173.09 56.7948 173.09 57.46C173.09 57.5406 173.077 57.6212 173.063 57.7019H171.901C171.901 57.4264 171.767 57.1509 171.391 57.1509C170.853 57.1509 170.564 57.7086 170.564 58.32C170.564 58.7097 170.772 58.8978 171.081 58.8978C171.337 58.8978 171.659 58.7634 171.794 58.32H172.956C172.801 59.2069 172.21 59.825 170.987 59.825ZM174.845 59.825C173.784 59.825 173.186 59.2673 173.186 58.4006C173.186 56.9964 174.106 56.2237 175.302 56.2237C176.283 56.2237 176.922 56.7612 176.922 57.6481C176.922 57.8698 176.881 58.0916 176.814 58.3133H174.395C174.389 58.367 174.389 58.4141 174.389 58.4611C174.389 58.8105 174.57 59.0053 174.926 59.0053C175.208 59.0053 175.43 58.8844 175.558 58.6156H176.707C176.505 59.3412 175.907 59.825 174.845 59.825ZM175.222 57.0434C174.886 57.0434 174.657 57.2114 174.53 57.5339H175.739C175.719 57.2114 175.558 57.0434 175.222 57.0434ZM178.654 59.825C177.667 59.825 177.042 59.4219 177.042 58.7903C177.042 58.7298 177.042 58.6761 177.055 58.6156H178.224C178.224 58.9112 178.459 59.0322 178.782 59.0322C179.125 59.0322 179.299 58.8844 179.299 58.7231C179.299 58.6156 179.219 58.5484 178.93 58.5081L178.453 58.4409C177.727 58.3402 177.371 58.0512 177.371 57.4264C177.371 56.647 178.15 56.2237 179.158 56.2237C179.843 56.2237 180.67 56.4656 180.67 57.2181C180.67 57.2719 180.663 57.3256 180.656 57.3794H179.487C179.487 57.1173 179.326 57.0166 179.03 57.0166C178.789 57.0166 178.607 57.1241 178.607 57.2987C178.607 57.4062 178.627 57.4533 178.849 57.4869L179.326 57.5541C180.126 57.6683 180.535 57.9505 180.535 58.6291C180.535 59.395 179.743 59.825 178.654 59.825ZM182.401 59.825C181.413 59.825 180.788 59.4219 180.788 58.7903C180.788 58.7298 180.788 58.6761 180.802 58.6156H181.971C181.971 58.9112 182.206 59.0322 182.528 59.0322C182.871 59.0322 183.046 58.8844 183.046 58.7231C183.046 58.6156 182.965 58.5484 182.676 58.5081L182.199 58.4409C181.474 58.3402 181.117 58.0512 181.117 57.4264C181.117 56.647 181.897 56.2237 182.905 56.2237C183.59 56.2237 184.416 56.4656 184.416 57.2181C184.416 57.2719 184.41 57.3256 184.403 57.3794H183.234C183.234 57.1173 183.073 57.0166 182.777 57.0166C182.535 57.0166 182.354 57.1241 182.354 57.2987C182.354 57.4062 182.374 57.4533 182.596 57.4869L183.073 57.5541C183.872 57.6683 184.282 57.9505 184.282 58.6291C184.282 59.395 183.489 59.825 182.401 59.825Z" fill="white"/>
<path d="M13.5906 178.734C13.5906 180.065 12.8247 180.918 11.6422 180.918C9.89531 180.918 8.6725 179.823 8.6725 178.049C8.6725 177.021 9.18312 175.973 10.3656 175.973C10.4328 175.973 10.5067 175.98 10.5806 175.986V177.222C10.0902 177.222 9.73406 177.585 9.73406 178.143C9.73406 179.07 10.5605 179.614 11.5347 179.614C12.1595 179.614 12.5291 179.198 12.5291 178.64C12.5291 178.042 12.1797 177.585 11.6422 177.424V176.174C12.9456 176.336 13.5906 177.37 13.5906 178.734ZM13.5234 172.715V173.952L11.4877 173.596C11.4339 173.589 11.3802 173.582 11.3331 173.582C11.1114 173.582 10.9837 173.683 10.9837 173.885C10.9837 174.22 11.2256 174.442 11.6623 174.516L13.5234 174.839V176.075L8.73969 175.235V173.999L10.3925 174.288C10.1641 174.093 9.98937 173.797 9.98937 173.374C9.98937 172.689 10.3455 172.285 10.9569 172.285C11.0442 172.285 11.1383 172.299 11.2323 172.312L13.5234 172.715ZM13.5906 170.982C13.5906 171.734 13.2144 172.144 12.6298 172.144C11.8773 172.144 11.5414 171.613 11.4675 170.746L11.4003 169.947C11.3869 169.765 11.3062 169.638 11.1584 169.638C10.9569 169.638 10.8494 169.806 10.8494 170.027C10.8494 170.316 10.9837 170.424 11.1987 170.478V171.714C10.4194 171.64 9.98937 171.096 9.98937 169.92C9.98937 169.02 10.3253 168.408 11.0442 168.408C11.1383 168.408 11.2391 168.415 11.3466 168.435L12.6366 168.664C12.9255 168.717 13.1472 168.744 13.3017 168.744C13.4025 168.744 13.4764 168.731 13.5234 168.711V169.839C13.4361 169.907 13.3353 169.933 13.2412 169.933C13.2211 169.933 13.1942 169.933 13.1539 169.927C13.4562 170.195 13.5906 170.464 13.5906 170.982ZM12.7709 170.538C12.7709 170.162 12.5022 169.873 12.173 169.819L12.052 169.799C12.0856 169.826 12.0991 169.94 12.1125 170.074L12.1394 170.41C12.1662 170.74 12.2805 170.908 12.482 170.908C12.65 170.908 12.7709 170.787 12.7709 170.538ZM13.5234 167.044V168.28L8.73969 167.44V166.204L13.5234 167.044ZM13.5234 165.272V166.509L8.73969 165.669L8.73969 164.432L13.5234 165.272ZM13.5906 162.936C13.5906 163.998 13.033 164.596 12.1662 164.596C10.762 164.596 9.98937 163.675 9.98937 162.479C9.98937 161.499 10.5269 160.86 11.4137 160.86C11.6355 160.86 11.8572 160.901 12.0789 160.968V163.386C12.1327 163.393 12.1797 163.393 12.2267 163.393C12.5761 163.393 12.7709 163.212 12.7709 162.856C12.7709 162.574 12.65 162.352 12.3812 162.224V161.075C13.1069 161.277 13.5906 161.875 13.5906 162.936ZM10.8091 162.56C10.8091 162.896 10.977 163.124 11.2995 163.252L11.2995 162.043C10.977 162.063 10.8091 162.224 10.8091 162.56ZM13.5234 157.428V158.664L11.4877 158.308C11.4339 158.301 11.3802 158.294 11.3331 158.294C11.1114 158.294 10.9837 158.395 10.9837 158.597C10.9837 158.933 11.2256 159.154 11.6623 159.228L13.5234 159.551V160.787L10.0566 160.182V159.013L10.4933 159.087C10.1641 158.845 9.98937 158.509 9.98937 158.086C9.98937 157.401 10.3455 156.998 10.9569 156.998C11.0442 156.998 11.1383 157.011 11.2323 157.025L13.5234 157.428ZM13.3891 155.391C13.3891 156.245 12.7844 156.722 12.0655 156.722C10.8494 156.722 9.98937 156.07 9.98937 154.928C9.98937 154.457 10.1775 154.142 10.5537 153.98L10.0566 153.893V152.724L13.1875 153.275C14.4641 153.497 14.9075 154.229 14.9075 155.358C14.9075 156.171 14.632 156.863 13.7855 156.863C13.7317 156.863 13.678 156.863 13.6175 156.856V155.727C13.9266 155.727 14.1147 155.58 14.1147 155.217C14.1147 154.861 13.9266 154.632 13.5503 154.572L13.033 154.484C13.2211 154.659 13.3891 154.968 13.3891 155.391ZM12.5291 155.015C12.5291 154.545 11.9378 154.236 11.3936 154.236C11.0711 154.236 10.8494 154.397 10.8494 154.706C10.8494 155.176 11.4406 155.485 11.9848 155.485C12.3073 155.485 12.5291 155.324 12.5291 155.015ZM13.5906 150.988C13.5906 152.05 13.033 152.648 12.1662 152.648C10.762 152.648 9.98937 151.727 9.98937 150.531C9.98937 149.55 10.5269 148.912 11.4137 148.912C11.6355 148.912 11.8572 148.952 12.0789 149.02V151.438C12.1327 151.445 12.1797 151.445 12.2267 151.445C12.5761 151.445 12.7709 151.264 12.7709 150.908C12.7709 150.625 12.65 150.404 12.3812 150.276V149.127C13.1069 149.329 13.5906 149.927 13.5906 150.988ZM10.8091 150.612C10.8091 150.948 10.977 151.176 11.2995 151.304V150.095C10.977 150.115 10.8091 150.276 10.8091 150.612Z" fill="white"/>
<g clip-path="url(#clip1_1145_3056)">
<rect x="21.7695" y="164.656" width="102.131" height="102.131" rx="6.71875" transform="rotate(-45 21.7695 164.656)" fill="black" fill-opacity="0.5"/>
<g filter="url(#filter0_f_1145_3056)">
<path d="M166.893 179.152C166.893 213.705 140.982 227.263 124.269 227.263C107.556 227.263 94.0078 199.251 94.0078 164.698C94.0078 130.144 107.556 102.133 124.269 102.133C140.982 102.133 166.893 144.598 166.893 179.152Z" fill="#009252" fill-opacity="0.3"/>
</g>
<g filter="url(#filter1_f_1145_3056)">
<path d="M21.7713 179.152C21.7713 213.705 47.6819 227.263 64.3948 227.263C81.1077 227.263 94.6562 199.251 94.6562 164.698C94.6562 130.144 81.1077 102.133 64.3948 102.133C47.6819 102.133 21.7713 144.598 21.7713 179.152Z" fill="#00829B" fill-opacity="0.3"/>
</g>
<path d="M70.0044 158.397C70.0044 160.899 68.6781 162.461 66.0067 162.461H63.0531L64.2289 155.764H66.9285C68.8662 155.764 70.0044 156.685 70.0044 158.397ZM68.1796 158.548C68.1796 157.673 67.6434 157.193 66.9003 157.193H65.7998L65.1225 161.031H66.2231C67.4835 161.031 68.1796 159.912 68.1796 158.548ZM72.4612 162.555C70.975 162.555 70.1378 161.774 70.1378 160.561C70.1378 158.595 71.4265 157.513 73.1008 157.513C74.4741 157.513 75.3677 158.266 75.3677 159.507C75.3677 159.818 75.3113 160.128 75.2172 160.439H71.8309C71.8215 160.514 71.8215 160.58 71.8215 160.646C71.8215 161.135 72.0755 161.407 72.574 161.407C72.9691 161.407 73.2795 161.238 73.4582 160.862H75.0667C74.7845 161.878 73.9474 162.555 72.4612 162.555ZM72.9879 158.661C72.5176 158.661 72.1978 158.896 72.0191 159.347H73.7122C73.684 158.896 73.4582 158.661 72.9879 158.661ZM77.7935 162.555C76.4108 162.555 75.536 161.991 75.536 161.106C75.536 161.022 75.536 160.947 75.5548 160.862H77.1915C77.1915 161.276 77.5207 161.445 77.9722 161.445C78.4519 161.445 78.6965 161.238 78.6965 161.012C78.6965 160.862 78.5836 160.768 78.1791 160.711L77.5113 160.617C76.4954 160.476 75.9969 160.072 75.9969 159.197C75.9969 158.106 77.088 157.513 78.4989 157.513C79.4584 157.513 80.6154 157.852 80.6154 158.905C80.6154 158.981 80.6059 159.056 80.5965 159.131H78.9599C78.9599 158.764 78.7341 158.623 78.3202 158.623C77.9816 158.623 77.7276 158.774 77.7276 159.018C77.7276 159.169 77.7559 159.235 78.0663 159.282L78.7341 159.376C79.8534 159.536 80.4272 159.931 80.4272 160.881C80.4272 161.953 79.3173 162.555 77.7935 162.555ZM82.446 162.461H80.7152L81.5618 157.607H83.2925L82.446 162.461ZM82.5494 157.156C82.0039 157.156 81.6841 156.836 81.6841 156.432C81.6841 155.858 82.0697 155.444 82.7752 155.444C83.3208 155.444 83.6406 155.764 83.6406 156.168C83.6406 156.742 83.2549 157.156 82.5494 157.156ZM85.293 162.273C84.0984 162.273 83.4305 161.426 83.4305 160.42C83.4305 158.717 84.3429 157.513 85.942 157.513C86.6004 157.513 87.0425 157.777 87.2683 158.303L87.3906 157.607H89.0273L88.2559 161.991C87.9455 163.778 86.9203 164.399 85.34 164.399C84.2019 164.399 83.233 164.013 83.233 162.828C83.233 162.753 83.233 162.677 83.2424 162.593H84.8227C84.8227 163.025 85.0296 163.289 85.5375 163.289C86.0361 163.289 86.3559 163.025 86.4405 162.499L86.5628 161.774C86.3183 162.038 85.8856 162.273 85.293 162.273ZM85.8197 161.069C86.4782 161.069 86.9109 160.241 86.9109 159.479C86.9109 159.028 86.6851 158.717 86.2524 158.717C85.594 158.717 85.1613 159.545 85.1613 160.307C85.1613 160.758 85.387 161.069 85.8197 161.069ZM93.6396 162.461H91.9089L92.4074 159.611C92.4168 159.536 92.4262 159.46 92.4262 159.394C92.4262 159.084 92.2851 158.905 92.0029 158.905C91.5326 158.905 91.2222 159.244 91.1188 159.855L90.6673 162.461H88.9365L89.7831 157.607H91.4198L91.3163 158.219C91.6549 157.758 92.1252 157.513 92.7178 157.513C93.6773 157.513 94.2416 158.012 94.2416 158.868C94.2416 158.99 94.2228 159.122 94.204 159.253L93.6396 162.461ZM96.1236 162.461H94.3929L95.2394 157.607H96.9702L96.1236 162.461ZM96.2271 157.156C95.6815 157.156 95.3617 156.836 95.3617 156.432C95.3617 155.858 95.7474 155.444 96.4528 155.444C96.9984 155.444 97.3182 155.764 97.3182 156.168C97.3182 156.742 96.9325 157.156 96.2271 157.156ZM101.576 162.461H99.8454L100.344 159.611C100.353 159.536 100.363 159.46 100.363 159.394C100.363 159.084 100.222 158.905 99.9395 158.905C99.4692 158.905 99.1587 159.244 99.0553 159.855L98.6038 162.461H96.873L97.7196 157.607H99.3563L99.2528 158.219C99.5914 157.758 100.062 157.513 100.654 157.513C101.614 157.513 102.178 158.012 102.178 158.868C102.178 158.99 102.159 159.122 102.141 159.253L101.576 162.461ZM104.427 162.273C103.232 162.273 102.565 161.426 102.565 160.42C102.565 158.717 103.477 157.513 105.076 157.513C105.734 157.513 106.177 157.777 106.402 158.303L106.525 157.607H108.161L107.39 161.991C107.08 163.778 106.054 164.399 104.474 164.399C103.336 164.399 102.367 164.013 102.367 162.828C102.367 162.753 102.367 162.677 102.376 162.593H103.957C103.957 163.025 104.164 163.289 104.672 163.289C105.17 163.289 105.49 163.025 105.575 162.499L105.697 161.774C105.452 162.038 105.02 162.273 104.427 162.273ZM104.954 161.069C105.612 161.069 106.045 160.241 106.045 159.479C106.045 159.028 105.819 158.717 105.386 158.717C104.728 158.717 104.295 159.545 104.295 160.307C104.295 160.758 104.521 161.069 104.954 161.069ZM112.595 162.517C111.523 162.517 111.052 162.226 111.052 161.407C111.052 161.238 111.071 161.05 111.109 160.834L111.466 158.811H110.78L110.986 157.607H111.673L111.936 156.14H113.667L113.404 157.607H114.316L114.109 158.811H113.197L112.83 160.899C112.821 160.947 112.821 160.984 112.821 161.022C112.821 161.219 112.934 161.313 113.169 161.313H113.667L113.47 162.461C113.235 162.48 112.849 162.517 112.595 162.517ZM118.79 162.461H117.06L117.558 159.611C117.568 159.536 117.577 159.46 117.577 159.394C117.577 159.084 117.436 158.905 117.154 158.905C116.683 158.905 116.373 159.244 116.269 159.855L115.818 162.461H114.087L115.263 155.764H116.994L116.589 158.078C116.862 157.758 117.276 157.513 117.869 157.513C118.828 157.513 119.392 158.012 119.392 158.868C119.392 158.99 119.374 159.122 119.355 159.253L118.79 162.461ZM122.064 162.555C120.578 162.555 119.741 161.774 119.741 160.561C119.741 158.595 121.03 157.513 122.704 157.513C124.077 157.513 124.971 158.266 124.971 159.507C124.971 159.818 124.915 160.128 124.82 160.439H121.434C121.425 160.514 121.425 160.58 121.425 160.646C121.425 161.135 121.679 161.407 122.177 161.407C122.572 161.407 122.883 161.238 123.061 160.862H124.67C124.388 161.878 123.551 162.555 122.064 162.555ZM122.591 158.661C122.121 158.661 121.801 158.896 121.622 159.347H123.315C123.287 158.896 123.061 158.661 122.591 158.661ZM69.9671 173.461H68.2363L69.0829 168.607H70.7196L70.5503 169.557C70.8607 168.814 71.2934 168.532 71.9048 168.532C72.0364 168.532 72.3657 168.57 72.4315 168.607L72.1681 170.112H71.5473C70.8889 170.112 70.475 170.545 70.3433 171.297L69.9671 173.461ZM73.8802 173.461H72.1495L72.996 168.607H74.7268L73.8802 173.461ZM73.9837 168.156C73.4381 168.156 73.1183 167.836 73.1183 167.432C73.1183 166.858 73.504 166.444 74.2094 166.444C74.755 166.444 75.0748 166.764 75.0748 167.168C75.0748 167.742 74.6892 168.156 73.9837 168.156ZM76.7272 173.273C75.5326 173.273 74.8648 172.426 74.8648 171.42C74.8648 169.717 75.7772 168.513 77.3763 168.513C78.0347 168.513 78.4768 168.777 78.7025 169.303L78.8248 168.607H80.4615L79.6902 172.991C79.3798 174.778 78.3545 175.399 76.7743 175.399C75.6361 175.399 74.6673 175.013 74.6673 173.828C74.6673 173.753 74.6673 173.677 74.6767 173.593H76.2569C76.2569 174.025 76.4639 174.289 76.9718 174.289C77.4703 174.289 77.7901 174.025 77.8748 173.499L77.9971 172.774C77.7525 173.038 77.3198 173.273 76.7272 173.273ZM77.254 172.069C77.9124 172.069 78.3451 171.241 78.3451 170.479C78.3451 170.028 78.1194 169.717 77.6867 169.717C77.0282 169.717 76.5955 170.545 76.5955 171.307C76.5955 171.758 76.8213 172.069 77.254 172.069ZM85.0739 173.461H83.3431L83.8417 170.611C83.8511 170.536 83.8605 170.46 83.8605 170.394C83.8605 170.084 83.7194 169.905 83.4372 169.905C82.9669 169.905 82.6565 170.244 82.553 170.855L82.1015 173.461H80.3708L81.5465 166.764H83.2773L82.8728 169.078C83.1456 168.758 83.5595 168.513 84.1521 168.513C85.1115 168.513 85.6759 169.012 85.6759 169.868C85.6759 169.99 85.6571 170.122 85.6383 170.253L85.0739 173.461ZM87.9081 173.517C86.8358 173.517 86.3655 173.226 86.3655 172.407C86.3655 172.238 86.3843 172.05 86.4219 171.834L86.7793 169.811H86.0927L86.2996 168.607H86.9863L87.2497 167.14H88.9804L88.717 168.607H89.6294L89.4225 169.811H88.5101L88.1433 171.899C88.1338 171.947 88.1338 171.984 88.1338 172.022C88.1338 172.219 88.2467 172.313 88.4819 172.313H88.9804L88.7829 173.461C88.5477 173.48 88.1621 173.517 87.9081 173.517ZM93.9248 173.517C92.8525 173.517 92.3822 173.226 92.3822 172.407C92.3822 172.238 92.401 172.05 92.4386 171.834L92.796 169.811H92.1094L92.3163 168.607H93.003L93.2664 167.14H94.9971L94.7337 168.607H95.6461L95.4392 169.811H94.5268L94.1599 171.899C94.1505 171.947 94.1505 171.984 94.1505 172.022C94.1505 172.219 94.2634 172.313 94.4986 172.313H94.9971L94.7996 173.461C94.5644 173.48 94.1788 173.517 93.9248 173.517ZM100.12 173.461H98.3895L98.888 170.611C98.8974 170.536 98.9068 170.46 98.9068 170.394C98.9068 170.084 98.7657 169.905 98.4835 169.905C98.0132 169.905 97.7028 170.244 97.5993 170.855L97.1478 173.461H95.4171L96.5929 166.764H98.3236L97.9191 169.078C98.1919 168.758 98.6058 168.513 99.1984 168.513C100.158 168.513 100.722 169.012 100.722 169.868C100.722 169.99 100.703 170.122 100.685 170.253L100.12 173.461ZM102.604 173.461H100.873L101.72 168.607H103.451L102.604 173.461ZM102.708 168.156C102.162 168.156 101.842 167.836 101.842 167.432C101.842 166.858 102.228 166.444 102.933 166.444C103.479 166.444 103.799 166.764 103.799 167.168C103.799 167.742 103.413 168.156 102.708 168.156ZM108.057 173.461H106.326L106.825 170.611C106.834 170.536 106.843 170.46 106.843 170.394C106.843 170.084 106.702 169.905 106.42 169.905C105.95 169.905 105.639 170.244 105.536 170.855L105.084 173.461H103.354L104.2 168.607H105.837L105.733 169.219C106.072 168.758 106.542 168.513 107.135 168.513C108.094 168.513 108.659 169.012 108.659 169.868C108.659 169.99 108.64 170.122 108.621 170.253L108.057 173.461ZM110.908 173.273C109.713 173.273 109.045 172.426 109.045 171.42C109.045 169.717 109.958 168.513 111.557 168.513C112.215 168.513 112.657 168.777 112.883 169.303L113.005 168.607H114.642L113.871 172.991C113.56 174.778 112.535 175.399 110.955 175.399C109.816 175.399 108.848 175.013 108.848 173.828C108.848 173.753 108.848 173.677 108.857 173.593H110.437C110.437 174.025 110.644 174.289 111.152 174.289C111.651 174.289 111.97 174.025 112.055 173.499L112.177 172.774C111.933 173.038 111.5 173.273 110.908 173.273ZM111.434 172.069C112.093 172.069 112.525 171.241 112.525 170.479C112.525 170.028 112.3 169.717 111.867 169.717C111.209 169.717 110.776 170.545 110.776 171.307C110.776 171.758 111.002 172.069 111.434 172.069ZM116.874 173.555C115.492 173.555 114.617 172.991 114.617 172.106C114.617 172.022 114.617 171.947 114.636 171.862H116.272C116.272 172.276 116.602 172.445 117.053 172.445C117.533 172.445 117.777 172.238 117.777 172.012C117.777 171.862 117.665 171.768 117.26 171.711L116.592 171.617C115.576 171.476 115.078 171.072 115.078 170.197C115.078 169.106 116.169 168.513 117.58 168.513C118.539 168.513 119.696 168.852 119.696 169.905C119.696 169.981 119.687 170.056 119.677 170.131H118.041C118.041 169.764 117.815 169.623 117.401 169.623C117.063 169.623 116.809 169.774 116.809 170.018C116.809 170.169 116.837 170.235 117.147 170.282L117.815 170.376C118.934 170.536 119.508 170.931 119.508 171.881C119.508 172.953 118.398 173.555 116.874 173.555Z" fill="url(#paint0_linear_1145_3056)"/>
</g>
<rect x="21.8271" y="164.656" width="102.049" height="102.049" rx="6.67806" transform="rotate(-45 21.8271 164.656)" stroke="white" stroke-width="0.0813831"/>
<g clip-path="url(#clip2_1145_3056)">
<rect x="166.086" y="164.656" width="102.131" height="102.131" rx="6.71875" transform="rotate(-45 166.086 164.656)" fill="black" fill-opacity="0.5"/>
<g filter="url(#filter2_f_1145_3056)">
<path d="M311.209 179.152C311.209 213.705 285.299 227.263 268.586 227.263C251.873 227.263 238.324 199.251 238.324 164.698C238.324 130.144 251.873 102.133 268.586 102.133C285.299 102.133 311.209 144.598 311.209 179.152Z" fill="#009252" fill-opacity="0.3"/>
</g>
<g filter="url(#filter3_f_1145_3056)">
<path d="M166.088 179.152C166.088 213.705 191.998 227.263 208.711 227.263C225.424 227.263 238.973 199.251 238.973 164.698C238.973 130.144 225.424 102.133 208.711 102.133C191.998 102.133 166.088 144.598 166.088 179.152Z" fill="#00829B" fill-opacity="0.3"/>
</g>
<path d="M213.935 158.397C213.935 160.899 212.609 162.461 209.937 162.461H206.984L208.16 155.764H210.859C212.797 155.764 213.935 156.685 213.935 158.397ZM212.11 158.548C212.11 157.673 211.574 157.193 210.831 157.193H209.73L209.053 161.031H210.154C211.414 161.031 212.11 159.912 212.11 158.548ZM216.392 162.555C214.906 162.555 214.068 161.774 214.068 160.561C214.068 158.595 215.357 157.513 217.031 157.513C218.405 157.513 219.298 158.266 219.298 159.507C219.298 159.818 219.242 160.128 219.148 160.439H215.762C215.752 160.514 215.752 160.58 215.752 160.646C215.752 161.135 216.006 161.407 216.505 161.407C216.9 161.407 217.21 161.238 217.389 160.862H218.997C218.715 161.878 217.878 162.555 216.392 162.555ZM216.919 158.661C216.448 158.661 216.128 158.896 215.95 159.347H217.643C217.615 158.896 217.389 158.661 216.919 158.661ZM221.131 162.461H219.401L220.577 155.764H222.307L221.131 162.461ZM223.612 162.461H221.881L222.727 157.607H224.458L223.612 162.461ZM223.715 157.156C223.17 157.156 222.85 156.836 222.85 156.432C222.85 155.858 223.235 155.444 223.941 155.444C224.486 155.444 224.806 155.764 224.806 156.168C224.806 156.742 224.421 157.156 223.715 157.156ZM227.766 162.461H225.659L224.831 157.607H226.562L226.891 160.975L228.406 157.607H230.287L227.766 162.461ZM232.173 162.555C230.687 162.555 229.85 161.774 229.85 160.561C229.85 158.595 231.138 157.513 232.813 157.513C234.186 157.513 235.079 158.266 235.079 159.507C235.079 159.818 235.023 160.128 234.929 160.439H231.543C231.533 160.514 231.533 160.58 231.533 160.646C231.533 161.135 231.787 161.407 232.286 161.407C232.681 161.407 232.991 161.238 233.17 160.862H234.778C234.496 161.878 233.659 162.555 232.173 162.555ZM232.7 158.661C232.229 158.661 231.91 158.896 231.731 159.347H233.424C233.396 158.896 233.17 158.661 232.7 158.661ZM236.913 162.461H235.182L236.028 157.607H237.665L237.496 158.557C237.806 157.814 238.239 157.532 238.85 157.532C238.982 157.532 239.311 157.57 239.377 157.607L239.114 159.112H238.493C237.834 159.112 237.421 159.545 237.289 160.297L236.913 162.461ZM240.826 162.461H239.095L239.942 157.607H241.672L240.826 162.461ZM240.929 157.156C240.384 157.156 240.064 156.836 240.064 156.432C240.064 155.858 240.45 155.444 241.155 155.444C241.701 155.444 242.02 155.764 242.02 156.168C242.02 156.742 241.635 157.156 240.929 157.156ZM246.278 162.461H244.548L245.046 159.611C245.056 159.536 245.065 159.46 245.065 159.394C245.065 159.084 244.924 158.905 244.642 158.905C244.171 158.905 243.861 159.244 243.757 159.855L243.306 162.461H241.575L242.422 157.607H244.058L243.955 158.219C244.294 157.758 244.764 157.513 245.357 157.513C246.316 157.513 246.88 158.012 246.88 158.868C246.88 158.99 246.862 159.122 246.843 159.253L246.278 162.461ZM249.129 162.273C247.935 162.273 247.267 161.426 247.267 160.42C247.267 158.717 248.179 157.513 249.778 157.513C250.437 157.513 250.879 157.777 251.105 158.303L251.227 157.607H252.863L252.092 161.991C251.782 163.778 250.756 164.399 249.176 164.399C248.038 164.399 247.069 164.013 247.069 162.828C247.069 162.753 247.069 162.677 247.079 162.593H248.659C248.659 163.025 248.866 163.289 249.374 163.289C249.872 163.289 250.192 163.025 250.277 162.499L250.399 161.774C250.154 162.038 249.722 162.273 249.129 162.273ZM249.656 161.069C250.314 161.069 250.747 160.241 250.747 159.479C250.747 159.028 250.521 158.717 250.089 158.717C249.43 158.717 248.998 159.545 248.998 160.307C248.998 160.758 249.223 161.069 249.656 161.069ZM257.297 162.517C256.225 162.517 255.754 162.226 255.754 161.407C255.754 161.238 255.773 161.05 255.811 160.834L256.168 158.811H255.482L255.689 157.607H256.375L256.639 156.14H258.369L258.106 157.607H259.018L258.812 158.811H257.899L257.532 160.899C257.523 160.947 257.523 160.984 257.523 161.022C257.523 161.219 257.636 161.313 257.871 161.313H258.369L258.172 162.461C257.937 162.48 257.551 162.517 257.297 162.517ZM263.493 162.461H261.762L262.26 159.611C262.27 159.536 262.279 159.46 262.279 159.394C262.279 159.084 262.138 158.905 261.856 158.905C261.386 158.905 261.075 159.244 260.972 159.855L260.52 162.461H258.789L259.965 155.764H261.696L261.291 158.078C261.564 157.758 261.978 157.513 262.571 157.513C263.53 157.513 264.095 158.012 264.095 158.868C264.095 158.99 264.076 159.122 264.057 159.253L263.493 162.461ZM266.767 162.555C265.28 162.555 264.443 161.774 264.443 160.561C264.443 158.595 265.732 157.513 267.406 157.513C268.78 157.513 269.673 158.266 269.673 159.507C269.673 159.818 269.617 160.128 269.523 160.439H266.136C266.127 160.514 266.127 160.58 266.127 160.646C266.127 161.135 266.381 161.407 266.88 161.407C267.275 161.407 267.585 161.238 267.764 160.862H269.372C269.09 161.878 268.253 162.555 266.767 162.555ZM267.293 158.661C266.823 158.661 266.503 158.896 266.325 159.347H268.018C267.989 158.896 267.764 158.661 267.293 158.661ZM214.726 173.517C213.653 173.517 213.183 173.226 213.183 172.407C213.183 172.238 213.202 172.05 213.239 171.834L213.597 169.811H212.91L213.117 168.607H213.804L214.067 167.14H215.798L215.535 168.607H216.447L216.24 169.811H215.328L214.961 171.899C214.951 171.947 214.951 171.984 214.951 172.022C214.951 172.219 215.064 172.313 215.299 172.313H215.798L215.6 173.461C215.365 173.48 214.98 173.517 214.726 173.517ZM220.921 173.461H219.19L219.689 170.611C219.698 170.536 219.708 170.46 219.708 170.394C219.708 170.084 219.566 169.905 219.284 169.905C218.814 169.905 218.504 170.244 218.4 170.855L217.949 173.461H216.218L217.394 166.764H219.124L218.72 169.078C218.993 168.758 219.407 168.513 219.999 168.513C220.959 168.513 221.523 169.012 221.523 169.868C221.523 169.99 221.504 170.122 221.485 170.253L220.921 173.461ZM223.405 173.461H221.674L222.521 168.607H224.252L223.405 173.461ZM223.508 168.156C222.963 168.156 222.643 167.836 222.643 167.432C222.643 166.858 223.029 166.444 223.734 166.444C224.28 166.444 224.6 166.764 224.6 167.168C224.6 167.742 224.214 168.156 223.508 168.156ZM228.858 173.461H227.127L227.625 170.611C227.635 170.536 227.644 170.46 227.644 170.394C227.644 170.084 227.503 169.905 227.221 169.905C226.751 169.905 226.44 170.244 226.337 170.855L225.885 173.461H224.154L225.001 168.607H226.638L226.534 169.219C226.873 168.758 227.343 168.513 227.936 168.513C228.895 168.513 229.46 169.012 229.46 169.868C229.46 169.99 229.441 170.122 229.422 170.253L228.858 173.461ZM231.708 173.273C230.514 173.273 229.846 172.426 229.846 171.42C229.846 169.717 230.758 168.513 232.357 168.513C233.016 168.513 233.458 168.777 233.684 169.303L233.806 168.607H235.443L234.671 172.991C234.361 174.778 233.336 175.399 231.755 175.399C230.617 175.399 229.648 175.013 229.648 173.828C229.648 173.753 229.648 173.677 229.658 173.593H231.238C231.238 174.025 231.445 174.289 231.953 174.289C232.451 174.289 232.771 174.025 232.856 173.499L232.978 172.774C232.734 173.038 232.301 173.273 231.708 173.273ZM232.235 172.069C232.894 172.069 233.326 171.241 233.326 170.479C233.326 170.028 233.1 169.717 232.668 169.717C232.009 169.717 231.577 170.545 231.577 171.307C231.577 171.758 231.802 172.069 232.235 172.069ZM237.675 173.555C236.292 173.555 235.418 172.991 235.418 172.106C235.418 172.022 235.418 171.947 235.437 171.862H237.073C237.073 172.276 237.402 172.445 237.854 172.445C238.334 172.445 238.578 172.238 238.578 172.012C238.578 171.862 238.465 171.768 238.061 171.711L237.393 171.617C236.377 171.476 235.879 171.072 235.879 170.197C235.879 169.106 236.97 168.513 238.381 168.513C239.34 168.513 240.497 168.852 240.497 169.905C240.497 169.981 240.488 170.056 240.478 170.131H238.842C238.842 169.764 238.616 169.623 238.202 169.623C237.863 169.623 237.609 169.774 237.609 170.018C237.609 170.169 237.638 170.235 237.948 170.282L238.616 170.376C239.735 170.536 240.309 170.931 240.309 171.881C240.309 172.953 239.199 173.555 237.675 173.555ZM244.679 173.461H242.949L243.795 168.607H245.432L245.262 169.557C245.573 168.814 246.006 168.532 246.617 168.532C246.749 168.532 247.078 168.57 247.144 168.607L246.88 170.112H246.26C245.601 170.112 245.187 170.545 245.056 171.297L244.679 173.461ZM248.592 173.461H246.862L247.708 168.607H249.439L248.592 173.461ZM248.696 168.156C248.15 168.156 247.831 167.836 247.831 167.432C247.831 166.858 248.216 166.444 248.922 166.444C249.467 166.444 249.787 166.764 249.787 167.168C249.787 167.742 249.401 168.156 248.696 168.156ZM251.439 173.273C250.245 173.273 249.577 172.426 249.577 171.42C249.577 169.717 250.489 168.513 252.088 168.513C252.747 168.513 253.189 168.777 253.415 169.303L253.537 168.607H255.174L254.402 172.991C254.092 174.778 253.067 175.399 251.486 175.399C250.348 175.399 249.379 175.013 249.379 173.828C249.379 173.753 249.379 173.677 249.389 173.593H250.969C250.969 174.025 251.176 174.289 251.684 174.289C252.183 174.289 252.502 174.025 252.587 173.499L252.709 172.774C252.465 173.038 252.032 173.273 251.439 173.273ZM251.966 172.069C252.625 172.069 253.057 171.241 253.057 170.479C253.057 170.028 252.832 169.717 252.399 169.717C251.74 169.717 251.308 170.545 251.308 171.307C251.308 171.758 251.533 172.069 251.966 172.069ZM259.786 173.461H258.055L258.554 170.611C258.563 170.536 258.573 170.46 258.573 170.394C258.573 170.084 258.432 169.905 258.149 169.905C257.679 169.905 257.369 170.244 257.265 170.855L256.814 173.461H255.083L256.259 166.764H257.989L257.585 169.078C257.858 168.758 258.272 168.513 258.864 168.513C259.824 168.513 260.388 169.012 260.388 169.868C260.388 169.99 260.369 170.122 260.35 170.253L259.786 173.461ZM262.62 173.517C261.548 173.517 261.078 173.226 261.078 172.407C261.078 172.238 261.096 172.05 261.134 171.834L261.492 169.811H260.805L261.012 168.607H261.698L261.962 167.14H263.693L263.429 168.607H264.342L264.135 169.811H263.222L262.855 171.899C262.846 171.947 262.846 171.984 262.846 172.022C262.846 172.219 262.959 172.313 263.194 172.313H263.693L263.495 173.461C263.26 173.48 262.874 173.517 262.62 173.517Z" fill="url(#paint1_linear_1145_3056)"/>
</g>
<rect x="166.143" y="164.656" width="102.049" height="102.049" rx="6.67806" transform="rotate(-45 166.143 164.656)" stroke="white" stroke-width="0.0813831"/>
<line x1="21.6352" y1="227.453" x2="21.6352" y2="102.132" stroke="white" stroke-width="0.26875" stroke-dasharray="0.54 1.61"/>
<line x1="165.952" y1="285.141" x2="165.952" y2="102.122" stroke="white" stroke-width="0.26875" stroke-dasharray="0.54 1.61"/>
<line x1="93.9281" y1="284.867" x2="93.9281" y2="228.161" stroke="white" stroke-width="0.26875" stroke-dasharray="0.54 1.61"/>
<line x1="238.248" y1="285.141" x2="238.248" y2="228.434" stroke="white" stroke-width="0.26875" stroke-dasharray="0.54 1.61"/>
<line x1="308.659" y1="285.961" x2="308.659" y2="104.547" stroke="white" stroke-width="0.26875" stroke-dasharray="0.54 1.61"/>
<path d="M308.342 164.814C361.316 163.53 395.923 99.24 386.636 109.186" stroke="#34BDFE" stroke-width="1.40228"/>
<path d="M308.754 165.077C347.095 201.653 417.04 180.712 403.441 181.168" stroke="#34BDFE" stroke-width="1.40228"/>
<path d="M312.043 166.72C355.92 196.43 421.423 164.178 408.087 166.884" stroke="#34BDFE" stroke-width="1.40228"/>
<path d="M313.864 165.959C362.738 186.434 420.596 141.899 408.055 147.182" stroke="#34BDFE" stroke-width="1.40228"/>
<path d="M308.754 165.892C347.095 129.316 417.04 150.257 403.441 149.8" stroke="#34BDFE" stroke-width="1.40228"/>
<path d="M312.043 164.264C355.92 134.554 421.423 166.806 408.087 164.1" stroke="#34BDFE" stroke-width="1.40228"/>
<path d="M313.864 165.002C362.738 144.527 420.596 189.061 408.055 183.779" stroke="#34BDFE" stroke-width="1.40228"/>
<path d="M308.828 165.425C361.659 169.515 402.603 109.062 392.356 118.016" stroke="#34BDFE" stroke-width="1.40228"/>
<path d="M310.203 163.979C362.349 173.399 409.204 117.404 398.103 125.273" stroke="#34BDFE" stroke-width="1.40228"/>
<path d="M306.74 165.357C359.714 166.642 394.322 230.932 385.034 220.986" stroke="#34BDFE" stroke-width="1.40228"/>
<path d="M318.193 163.951C365.729 161.371 392.233 219.904 384.596 211.131" stroke="#34BDFE" stroke-width="1.40228"/>
<path d="M314.221 165.357C361.756 162.778 388.26 221.31 380.623 212.537" stroke="#34BDFE" stroke-width="1.40228"/>
<path d="M78.0088 258.939L86.876 268.791L78.0098 278.206H24.5918V258.939H78.0088Z" fill="#0A1613" stroke="url(#paint2_linear_1145_3056)" stroke-width="0.26875"/>
<path d="M39.5619 267.558C39.5619 269.624 38.4664 270.914 36.2598 270.914H33.8201L34.7913 265.382H37.0212C38.6218 265.382 39.5619 266.143 39.5619 267.558ZM38.0546 267.682C38.0546 266.959 37.6117 266.563 36.9979 266.563H36.0889L35.5294 269.733H36.4385C37.4796 269.733 38.0546 268.808 38.0546 267.682ZM40.9386 270.914H39.509L40.2083 266.905H41.6379L40.9386 270.914ZM41.0241 266.532C40.5735 266.532 40.3093 266.268 40.3093 265.934C40.3093 265.46 40.6279 265.118 41.2106 265.118C41.6612 265.118 41.9254 265.382 41.9254 265.716C41.9254 266.19 41.6068 266.532 41.0241 266.532ZM43.4768 270.992C42.3346 270.992 41.6121 270.526 41.6121 269.795C41.6121 269.725 41.6121 269.663 41.6276 269.593H42.9795C42.9795 269.935 43.2515 270.075 43.6244 270.075C44.0207 270.075 44.2227 269.904 44.2227 269.718C44.2227 269.593 44.1295 269.516 43.7954 269.469L43.2437 269.391C42.4046 269.275 41.9928 268.941 41.9928 268.218C41.9928 267.317 42.8941 266.827 44.0595 266.827C44.852 266.827 45.8077 267.107 45.8077 267.977C45.8077 268.039 45.7999 268.101 45.7922 268.164H44.4402C44.4402 267.861 44.2538 267.744 43.9119 267.744C43.6322 267.744 43.4224 267.868 43.4224 268.07C43.4224 268.195 43.4457 268.249 43.7021 268.288L44.2538 268.366C45.1784 268.498 45.6523 268.824 45.6523 269.609C45.6523 270.494 44.7355 270.992 43.4768 270.992ZM47.9725 270.992C46.807 270.992 46.0534 270.37 46.0534 269.345C46.0534 267.721 47.0401 266.827 48.5475 266.827C49.7829 266.827 50.4044 267.488 50.4044 268.257C50.4044 268.35 50.3889 268.443 50.3734 268.537H49.0292C49.0292 268.218 48.8738 267.899 48.4387 267.899C47.8171 267.899 47.483 268.544 47.483 269.251C47.483 269.702 47.7239 269.92 48.0813 269.92C48.3765 269.92 48.7495 269.764 48.9049 269.251H50.249C50.0703 270.277 49.3866 270.992 47.9725 270.992ZM52.5428 269.92C53.0867 269.92 53.4985 269.275 53.4985 268.568C53.4985 268.117 53.2576 267.899 52.9002 267.899C52.3563 267.899 51.9445 268.544 51.9445 269.251C51.9445 269.702 52.1854 269.92 52.5428 269.92ZM52.434 270.992C51.2686 270.992 50.5149 270.37 50.5149 269.345C50.5149 267.721 51.5794 266.827 53.009 266.827C54.1745 266.827 54.9281 267.449 54.9281 268.474C54.9281 270.098 53.8637 270.992 52.434 270.992ZM57.4969 270.914H55.7565L55.0728 266.905H56.5024L56.7743 269.686L58.0253 266.905H59.5792L57.4969 270.914ZM61.1371 270.992C59.9094 270.992 59.2179 270.347 59.2179 269.345C59.2179 267.721 60.2824 266.827 61.6654 266.827C62.7998 266.827 63.5379 267.449 63.5379 268.474C63.5379 268.731 63.4913 268.987 63.4136 269.244H60.6165C60.6087 269.306 60.6087 269.36 60.6087 269.415C60.6087 269.819 60.8185 270.044 61.2303 270.044C61.5566 270.044 61.813 269.904 61.9607 269.593H63.2893C63.0562 270.432 62.3647 270.992 61.1371 270.992ZM61.5722 267.775C61.1837 267.775 60.9195 267.969 60.7719 268.342H62.1704C62.1471 267.969 61.9607 267.775 61.5722 267.775ZM65.0522 270.914H63.6225L64.3218 266.905H65.6737L65.5339 267.69C65.7903 267.076 66.1477 266.843 66.6527 266.843C66.7615 266.843 67.0334 266.874 67.0878 266.905L66.8703 268.148H66.3575C65.8136 268.148 65.4717 268.505 65.3629 269.127L65.0522 270.914Z" fill="url(#paint3_linear_1145_3056)"/>
<path d="M152.45 258.939L161.317 268.791L152.451 278.206H99.2656L110.307 268.897L110.426 268.797L110.309 268.693L99.2539 258.939H152.45Z" fill="#0A1613" stroke="url(#paint4_linear_1145_3056)" stroke-width="0.26875"/>
<path d="M123.769 267.558C123.769 269.624 122.673 270.914 120.467 270.914H118.027L118.998 265.382H121.228C122.829 265.382 123.769 266.143 123.769 267.558ZM122.262 267.682C122.262 266.959 121.819 266.563 121.205 266.563H120.296L119.736 269.733H120.646C121.687 269.733 122.262 268.808 122.262 267.682ZM125.798 270.992C124.571 270.992 123.879 270.347 123.879 269.345C123.879 267.721 124.944 266.827 126.327 266.827C127.461 266.827 128.199 267.449 128.199 268.474C128.199 268.731 128.153 268.987 128.075 269.244H125.278C125.27 269.306 125.27 269.36 125.27 269.415C125.27 269.819 125.48 270.044 125.892 270.044C126.218 270.044 126.474 269.904 126.622 269.593H127.951C127.717 270.432 127.026 270.992 125.798 270.992ZM126.233 267.775C125.845 267.775 125.581 267.969 125.433 268.342H126.832C126.808 267.969 126.622 267.775 126.233 267.775ZM129.972 270.914H128.542L129.07 267.899H128.503L128.674 266.905H129.249L129.28 266.726C129.451 265.755 129.855 265.335 130.842 265.335C131.129 265.335 131.51 265.366 131.697 265.382L131.533 266.33H131.122C130.888 266.33 130.756 266.446 130.718 266.68L130.679 266.905H131.425L131.254 267.899H130.5L129.972 270.914ZM132.619 270.914H131.19L131.889 266.905H133.319L132.619 270.914ZM132.705 266.532C132.254 266.532 131.99 266.268 131.99 265.934C131.99 265.46 132.309 265.118 132.891 265.118C133.342 265.118 133.606 265.382 133.606 265.716C133.606 266.19 133.288 266.532 132.705 266.532ZM137.123 270.914H135.694L136.106 268.56C136.113 268.498 136.121 268.436 136.121 268.381C136.121 268.125 136.005 267.977 135.771 267.977C135.383 267.977 135.127 268.257 135.041 268.762L134.668 270.914H133.239L133.938 266.905H135.29L135.204 267.41C135.484 267.029 135.872 266.827 136.362 266.827C137.154 266.827 137.621 267.239 137.621 267.946C137.621 268.047 137.605 268.156 137.59 268.265L137.123 270.914ZM139.828 270.992C138.6 270.992 137.909 270.347 137.909 269.345C137.909 267.721 138.973 266.827 140.356 266.827C141.491 266.827 142.229 267.449 142.229 268.474C142.229 268.731 142.182 268.987 142.104 269.244H139.307C139.3 269.306 139.3 269.36 139.3 269.415C139.3 269.819 139.509 270.044 139.921 270.044C140.247 270.044 140.504 269.904 140.651 269.593H141.98C141.747 270.432 141.055 270.992 139.828 270.992ZM140.263 267.775C139.874 267.775 139.61 267.969 139.463 268.342H140.861C140.838 267.969 140.651 267.775 140.263 267.775Z" fill="url(#paint5_linear_1145_3056)"/>
<path d="M225.013 258.939L233.88 268.791L225.014 278.206H171.828L182.869 268.897L182.988 268.797L182.871 268.693L171.816 258.939H225.013Z" fill="#0A1613" stroke="url(#paint6_linear_1145_3056)" stroke-width="0.26875"/>
<path d="M194.278 267.558C194.278 269.624 193.182 270.914 190.976 270.914H188.536L189.507 265.382H191.737C193.338 265.382 194.278 266.143 194.278 267.558ZM192.77 267.682C192.77 266.959 192.328 266.563 191.714 266.563H190.805L190.245 269.733H191.154C192.196 269.733 192.77 268.808 192.77 267.682ZM196.307 270.992C195.08 270.992 194.388 270.347 194.388 269.345C194.388 267.721 195.452 266.827 196.836 266.827C197.97 266.827 198.708 267.449 198.708 268.474C198.708 268.731 198.661 268.987 198.584 269.244H195.787C195.779 269.306 195.779 269.36 195.779 269.415C195.779 269.819 195.989 270.044 196.4 270.044C196.727 270.044 196.983 269.904 197.131 269.593H198.459C198.226 270.432 197.535 270.992 196.307 270.992ZM196.742 267.775C196.354 267.775 196.09 267.969 195.942 268.342H197.341C197.317 267.969 197.131 267.775 196.742 267.775ZM201.279 270.914H199.539L198.855 266.905H200.284L200.556 269.686L201.807 266.905H203.361L201.279 270.914ZM204.919 270.992C203.692 270.992 203 270.347 203 269.345C203 267.721 204.064 266.827 205.447 266.827C206.582 266.827 207.32 267.449 207.32 268.474C207.32 268.731 207.273 268.987 207.196 269.244H204.399C204.391 269.306 204.391 269.36 204.391 269.415C204.391 269.819 204.601 270.044 205.012 270.044C205.339 270.044 205.595 269.904 205.743 269.593H207.071C206.838 270.432 206.147 270.992 204.919 270.992ZM205.354 267.775C204.966 267.775 204.702 267.969 204.554 268.342H205.953C205.929 267.969 205.743 267.775 205.354 267.775ZM208.834 270.914H207.405L208.376 265.382H209.805L208.834 270.914ZM211.644 269.92C212.188 269.92 212.6 269.275 212.6 268.568C212.6 268.117 212.359 267.899 212.002 267.899C211.458 267.899 211.046 268.544 211.046 269.251C211.046 269.702 211.287 269.92 211.644 269.92ZM211.536 270.992C210.37 270.992 209.616 270.37 209.616 269.345C209.616 267.721 210.681 266.827 212.111 266.827C213.276 266.827 214.03 267.449 214.03 268.474C214.03 270.098 212.965 270.992 211.536 270.992ZM216.661 270.992C216.171 270.992 215.798 270.805 215.619 270.448L215.27 272.437H213.84L214.811 266.905H216.163L216.078 267.41C216.358 267.029 216.746 266.827 217.236 266.827C218.253 266.827 218.766 267.589 218.766 268.474C218.766 269.881 217.981 270.992 216.661 270.992ZM216.42 269.92C216.964 269.92 217.337 269.275 217.337 268.568C217.337 268.117 217.135 267.899 216.777 267.899C216.233 267.899 215.86 268.544 215.86 269.251C215.86 269.702 216.062 269.92 216.42 269.92Z" fill="url(#paint7_linear_1145_3056)"/>
<path d="M295.966 258.939L304.833 268.791L295.967 278.206H242.781L253.822 268.897L253.941 268.797L253.824 268.693L242.77 258.939H295.966Z" fill="#0A1613" stroke="url(#paint8_linear_1145_3056)" stroke-width="0.26875"/>
<path d="M267.285 267.558C267.285 269.624 266.189 270.914 263.982 270.914H261.543L262.514 265.382H264.744C266.344 265.382 267.285 266.143 267.285 267.558ZM265.777 267.682C265.777 266.959 265.334 266.563 264.721 266.563H263.812L263.252 269.733H264.161C265.202 269.733 265.777 268.808 265.777 267.682ZM269.314 270.992C268.086 270.992 267.395 270.347 267.395 269.345C267.395 267.721 268.459 266.827 269.842 266.827C270.977 266.827 271.715 267.449 271.715 268.474C271.715 268.731 271.668 268.987 271.59 269.244H268.793C268.786 269.306 268.786 269.36 268.786 269.415C268.786 269.819 268.995 270.044 269.407 270.044C269.734 270.044 269.99 269.904 270.138 269.593H271.466C271.233 270.432 270.542 270.992 269.314 270.992ZM269.749 267.775C269.361 267.775 269.096 267.969 268.949 268.342H270.347C270.324 267.969 270.138 267.775 269.749 267.775ZM273.229 270.914H271.799L272.771 265.382H274.2L273.229 270.914ZM275.278 270.914H273.848L274.547 266.905H275.977L275.278 270.914ZM275.363 266.532C274.913 266.532 274.648 266.268 274.648 265.934C274.648 265.46 274.967 265.118 275.55 265.118C276 265.118 276.264 265.382 276.264 265.716C276.264 266.19 275.946 266.532 275.363 266.532ZM278.709 270.914H276.969L276.285 266.905H277.715L277.987 269.686L279.238 266.905H280.792L278.709 270.914ZM282.35 270.992C281.122 270.992 280.43 270.347 280.43 269.345C280.43 267.721 281.495 266.827 282.878 266.827C284.012 266.827 284.75 267.449 284.75 268.474C284.75 268.731 284.704 268.987 284.626 269.244H281.829C281.821 269.306 281.821 269.36 281.821 269.415C281.821 269.819 282.031 270.044 282.443 270.044C282.769 270.044 283.025 269.904 283.173 269.593H284.502C284.269 270.432 283.577 270.992 282.35 270.992ZM282.785 267.775C282.396 267.775 282.132 267.969 281.984 268.342H283.383C283.36 267.969 283.173 267.775 282.785 267.775ZM286.265 270.914H284.835L285.534 266.905H286.886L286.746 267.69C287.003 267.076 287.36 266.843 287.865 266.843C287.974 266.843 288.246 266.874 288.3 266.905L288.083 268.148H287.57C287.026 268.148 286.684 268.505 286.575 269.127L286.265 270.914Z" fill="url(#paint9_linear_1145_3056)"/>
<path d="M367.72 258.939L376.587 268.791L367.721 278.206H314.535L325.576 268.897L325.695 268.797L325.578 268.693L314.523 258.939H367.72Z" fill="#0A1613" stroke="url(#paint10_linear_1145_3056)" stroke-width="0.26875"/>
<path d="M337.382 270.914H333.078L334.049 265.382H338.354L338.136 266.61H335.339L335.184 267.519H337.732L337.522 268.669H334.974L334.795 269.686H337.592L337.382 270.914ZM340.692 270.914H338.951L338.268 266.905H339.697L339.969 269.686L341.22 266.905H342.774L340.692 270.914ZM344.441 269.92C344.984 269.92 345.396 269.275 345.396 268.568C345.396 268.117 345.155 267.899 344.798 267.899C344.254 267.899 343.842 268.544 343.842 269.251C343.842 269.702 344.083 269.92 344.441 269.92ZM344.332 270.992C343.166 270.992 342.413 270.37 342.413 269.345C342.413 267.721 343.477 266.827 344.907 266.827C346.072 266.827 346.826 267.449 346.826 268.474C346.826 270.098 345.761 270.992 344.332 270.992ZM348.338 270.914H346.908L347.88 265.382H349.309L348.338 270.914ZM351.77 270.914H350.029L349.346 266.905H350.775L351.047 269.686L352.298 266.905H353.852L351.77 270.914ZM355.41 270.992C354.182 270.992 353.491 270.347 353.491 269.345C353.491 267.721 354.555 266.827 355.938 266.827C357.073 266.827 357.811 267.449 357.811 268.474C357.811 268.731 357.764 268.987 357.686 269.244H354.889C354.881 269.306 354.881 269.36 354.881 269.415C354.881 269.819 355.091 270.044 355.503 270.044C355.829 270.044 356.086 269.904 356.233 269.593H357.562C357.329 270.432 356.637 270.992 355.41 270.992ZM355.845 267.775C355.456 267.775 355.192 267.969 355.045 268.342H356.443C356.42 267.969 356.233 267.775 355.845 267.775Z" fill="url(#paint11_linear_1145_3056)"/>
</g>
<defs>
<filter id="filter0_f_1145_3056" x="65.0813" y="73.2063" width="130.74" height="182.986" filterUnits="userSpaceOnUse" color-interpolation-filters="sRGB">
<feFlood flood-opacity="0" result="BackgroundImageFix"/>
<feBlend mode="normal" in="SourceGraphic" in2="BackgroundImageFix" result="shape"/>
<feGaussianBlur stdDeviation="14.4633" result="effect1_foregroundBlur_1145_3056"/>
</filter>
<filter id="filter1_f_1145_3056" x="-7.157" y="73.2063" width="130.74" height="182.986" filterUnits="userSpaceOnUse" color-interpolation-filters="sRGB">
<feFlood flood-opacity="0" result="BackgroundImageFix"/>
<feBlend mode="normal" in="SourceGraphic" in2="BackgroundImageFix" result="shape"/>
<feGaussianBlur stdDeviation="14.4633" result="effect1_foregroundBlur_1145_3056"/>
</filter>
<filter id="filter2_f_1145_3056" x="209.398" y="73.2063" width="130.74" height="182.986" filterUnits="userSpaceOnUse" color-interpolation-filters="sRGB">
<feFlood flood-opacity="0" result="BackgroundImageFix"/>
<feBlend mode="normal" in="SourceGraphic" in2="BackgroundImageFix" result="shape"/>
<feGaussianBlur stdDeviation="14.4633" result="effect1_foregroundBlur_1145_3056"/>
</filter>
<filter id="filter3_f_1145_3056" x="137.159" y="73.2063" width="130.74" height="182.986" filterUnits="userSpaceOnUse" color-interpolation-filters="sRGB">
<feFlood flood-opacity="0" result="BackgroundImageFix"/>
<feBlend mode="normal" in="SourceGraphic" in2="BackgroundImageFix" result="shape"/>
<feGaussianBlur stdDeviation="14.4633" result="effect1_foregroundBlur_1145_3056"/>
</filter>
<linearGradient id="paint0_linear_1145_3056" x1="89.8459" y1="147.228" x2="87.5944" y2="173.448" gradientUnits="userSpaceOnUse">
<stop offset="0.354971" stop-color="#0A6A97"/>
<stop offset="0.532442" stop-color="#34BDFE"/>
<stop offset="1" stop-color="#17E48A"/>
</linearGradient>
<linearGradient id="paint1_linear_1145_3056" x1="234.162" y1="147.228" x2="231.911" y2="173.448" gradientUnits="userSpaceOnUse">
<stop offset="0.354971" stop-color="#0A6A97"/>
<stop offset="0.532442" stop-color="#34BDFE"/>
<stop offset="1" stop-color="#17E48A"/>
</linearGradient>
<linearGradient id="paint2_linear_1145_3056" x1="52.0924" y1="253.27" x2="50.0505" y2="276.546" gradientUnits="userSpaceOnUse">
<stop offset="0.354971" stop-color="#0A6A97"/>
<stop offset="0.532442" stop-color="#34BDFE"/>
<stop offset="1" stop-color="#17E48A"/>
</linearGradient>
<linearGradient id="paint3_linear_1145_3056" x1="48.7904" y1="261.364" x2="47.9907" y2="272.11" gradientUnits="userSpaceOnUse">
<stop offset="0.354971" stop-color="#0A6A97"/>
<stop offset="0.532442" stop-color="#34BDFE"/>
<stop offset="1" stop-color="#17E48A"/>
</linearGradient>
<linearGradient id="paint4_linear_1145_3056" x1="126.534" y1="253.27" x2="124.492" y2="276.546" gradientUnits="userSpaceOnUse">
<stop offset="0.354971" stop-color="#0A6A97"/>
<stop offset="0.532442" stop-color="#34BDFE"/>
<stop offset="1" stop-color="#17E48A"/>
</linearGradient>
<linearGradient id="paint5_linear_1145_3056" x1="129.024" y1="261.364" x2="127.942" y2="272.06" gradientUnits="userSpaceOnUse">
<stop offset="0.354971" stop-color="#0A6A97"/>
<stop offset="0.532442" stop-color="#34BDFE"/>
<stop offset="1" stop-color="#17E48A"/>
</linearGradient>
<linearGradient id="paint6_linear_1145_3056" x1="199.096" y1="253.27" x2="197.054" y2="276.546" gradientUnits="userSpaceOnUse">
<stop offset="0.354971" stop-color="#0A6A97"/>
<stop offset="0.532442" stop-color="#34BDFE"/>
<stop offset="1" stop-color="#17E48A"/>
</linearGradient>
<linearGradient id="paint7_linear_1145_3056" x1="201.122" y1="261.364" x2="200.299" y2="272.107" gradientUnits="userSpaceOnUse">
<stop offset="0.354971" stop-color="#0A6A97"/>
<stop offset="0.532442" stop-color="#34BDFE"/>
<stop offset="1" stop-color="#17E48A"/>
</linearGradient>
<linearGradient id="paint8_linear_1145_3056" x1="270.049" y1="253.27" x2="268.008" y2="276.546" gradientUnits="userSpaceOnUse">
<stop offset="0.354971" stop-color="#0A6A97"/>
<stop offset="0.532442" stop-color="#34BDFE"/>
<stop offset="1" stop-color="#17E48A"/>
</linearGradient>
<linearGradient id="paint9_linear_1145_3056" x1="273.423" y1="261.364" x2="272.419" y2="272.076" gradientUnits="userSpaceOnUse">
<stop offset="0.354971" stop-color="#0A6A97"/>
<stop offset="0.532442" stop-color="#34BDFE"/>
<stop offset="1" stop-color="#17E48A"/>
</linearGradient>
<linearGradient id="paint10_linear_1145_3056" x1="341.803" y1="253.27" x2="339.761" y2="276.546" gradientUnits="userSpaceOnUse">
<stop offset="0.354971" stop-color="#0A6A97"/>
<stop offset="0.532442" stop-color="#34BDFE"/>
<stop offset="1" stop-color="#17E48A"/>
</linearGradient>
<linearGradient id="paint11_linear_1145_3056" x1="344.075" y1="261.364" x2="342.993" y2="272.06" gradientUnits="userSpaceOnUse">
<stop offset="0.354971" stop-color="#0A6A97"/>
<stop offset="0.532442" stop-color="#34BDFE"/>
<stop offset="1" stop-color="#17E48A"/>
</linearGradient>
<clipPath id="clip0_1145_3056">
<rect width="387" height="317.125" fill="white"/>
</clipPath>
<clipPath id="clip1_1145_3056">
<rect x="21.7695" y="164.656" width="102.131" height="102.131" rx="6.71875" transform="rotate(-45 21.7695 164.656)" fill="white"/>
</clipPath>
<clipPath id="clip2_1145_3056">
<rect x="166.086" y="164.656" width="102.131" height="102.131" rx="6.71875" transform="rotate(-45 166.086 164.656)" fill="white"/>
</clipPath>
</defs>
</svg>
