<svg width="121" height="32" viewBox="0 0 121 32" fill="none" xmlns="http://www.w3.org/2000/svg">
<path d="M1.87305 8.04342C22.6899 6.86065 43.5068 5.67787 57.8972 4.53631C72.2877 3.39475 79.6209 2.33025 83.9309 1.78188C88.2408 1.2335 89.3053 1.2335 84.886 2.71197C80.4668 4.19044 70.5314 7.14738 62.2197 9.26204C53.908 11.3767 47.5211 12.5595 48.6071 12.9322C49.6931 13.305 58.4456 12.8319 63.6642 12.6473C70.2982 12.4126 72.8289 12.9394 75.1514 13.2978C77.8002 13.7066 80.1191 13.6562 83.266 14.2512C89.319 15.3956 93.9791 15.5702 96.7694 15.925C102.337 16.633 107.706 18.6669 111.343 20.8102C114.624 23.4267 117.036 26.0718 118.35 28.2779C118.835 29.3011 118.954 30.1291 119.075 30.9821" stroke="white" stroke-width="2" stroke-linecap="round"/>
</svg>
